<svg xmlns="http://www.w3.org/2000/svg" width="292" height="188" fill="none" viewBox="0 0 292 188"><path id="ic" fill="currentColor" d="M234.152 99.602c.473-.828.473-1.836.646-2.232.253-.436 1.201-.35 1.201-.656 0-.128-.687-.303-.948-.479-.51-.305-.337-1.881-.596-1.881-.392 0-.778 1.092-1.168.614-.684-.877-3.526-2.54-4.814-3.021-.476-.176.344-1.619.13-1.755-.217-.13-.776.88-1.593.705-.645-.13-.347-1.315-.69-1.315-.173 0-.82 1.664-1.293 1.531-.518-.13-1.199-.319-1.199-.319v-4.36c0-.745-.491-1.322-1.124-1.316h-4.648c-1.29 0-1.204-.962-1.204-1.183 0-5.82 8.306-6.782 8.306-14.395 0-3.327-2.064-5.56-4.473-7.531-.133-.085 0 .483 0 .701 0 3.545-12.954 5.384-12.954 13.569 0 7.13 6.973 7.436 6.973 8.533 0 .218-.428.306-.472.306h-5.336c-.559 0-1.044.35-1.037 1.305l.005 4.384c-.52.175-1.204-.614-1.551-.614-.173 0-.084 1.358-.387 1.536-.259.128-5.118 1.88-5.554 1.924-.682.13-.51-1.095-.897-1.095-.35 0-.35 1.225-1.209 1.225-.515 0-.943-.483-1.33-.483-.259 0 .556 1.01.556 1.313 0 .834-1.588 1.137-1.588 1.708 0 .306 1.502-.13 1.719-.13.773 0 .69.923.985.923.303 0 .517-1.058.779-1.228.511-.306 1.118.218 1.376.218.429 0-.345-1.053.045-1.228 0 0 5.243-2.272 5.591-2.1.3.178.261.702.603.877.342.173.862-1.225.862-.353v10.725c-.606.388-1.897.615-2.586.615-.34 0-.173-1.141-.387-1.141-.345 0-.69.962-1.204.962-.473 0-1.16-1.18-1.631-1.18-.3 0 .555 1.486.04 1.749-1.983 1.01-5.121 1.972-5.121 5.161 0 .661.348 1.453.212 1.663-.123.311-.81.922-.771 1.185 0 .263 1.291.173 1.552.572.125.212.214 1.177.476 1.177.208 0 .768-.742 1.246-.481 1.502.922 4.125 1.924 5.335 2.588.295.175.125 1.135.295 1.223.347.175 1.032-.92 2.113-.309.217.091.432.441.432.834l-.006 3.58c0 .657.298.83.646.917l12.828 2.596s1.139.261 1.526.261c.447.018 1-.003.969-1.1l-.005-8.135c0-.083.102-.282.274-.282.753-.002.374 2.206.543 2.206.343 0 .559-1.488.993-1.488.601 0 .993.568 1.244.438.217-.13-.123-.834-.123-1.273 0-.39 1.113-.566 2.493-1.092 1.204-.433 2.194-.916 2.583-.916.298 0 .51.828.774.828.214 0 .256-1.089.731-1.089.384 0 1.244.609 1.464.433.169-.128-.432-.962.038-1.315.348-.218 1.163-.739 1.163-.96 0-.13-1.591-.177-1.677-.177-.3-.085-.646-1.048-.865-1.048-.248 0-.248.963-.64 1.268-.347.261-1.205-.919-1.589-.919-.219 0 .254.877.254 1.581 0 .696-4.17 2.054-4.729 2.054-.862 0-.906-1.095-1.079-1.095-.258 0-.251 1.337-1.201 1.337-.476 0-.646-.361-.646-.622v-10.508c0-.3.086-.709.646-.733.708-.032.726 1.597.984 1.597.473 0 .735-1.618 1.636-1.618.69 0 1.249.965 1.68.965.3 0-.515-1.008-.515-1.491 0-.481 4.258-.307 5.893-3.24m-27.021 16.11c-.687 0-1.118-1.404-1.29-1.356-.214.045.047 1.18-.214 1.356-.215.215-4.776-1.927-5.121-2.272-.303-.309.13-.745 0-1.053-.087-.263-.779-.178-.988-.311-.175-.173.209-.965-.042-1.134-.222-.133-.689.789-.992.345-.134-.176-.17-.478-.17-.872 0-2.67 2.793-3.763 4.69-4.419.77-.265.509.742.77.787.301.088.345-.481.69-.481.261 0 1.251.481 1.463.306.173-.131-.515-.787-.3-1.05.261-.218 2.257-.6 2.239-.08l.005 9.352c0 .98-.74.882-.74.882m4.867-37.77c0-6.041 8.779-9.498 9.379-12.562.646.614.732 1.618.732 2.495 0 3.675-6.281 9.846-6.281 14.31 0 .484.042.612.042.92 0 .435-.172.526-.256.526-1.037 0-3.616-2.06-3.616-5.69m8.865 43.936c0 .922-.306 1.137-1.077.964l-8.216-1.663c-.476-.085-.735-.393-.735-.917V105.12c0-.393 1.336-.438 1.55-.263.389.351.259 1.618.515 1.618.347 0 1.248-1.533 1.638-1.533.817 0 1.374.481 1.547.396.175-.09.175-.789.386-.965.301-.212 1.204-.212 1.677-.265a83 83 0 0 0 2.198-.173c.559 0 .517.399.517 1.23zm-4.693-18.866c-.259-.43-.13-1.177-.386-1.177-.128 0-.816 1.052-1.207 1.052-.384 0-1.03-.746-1.289-.746-.172 0 .173 1.052-.172 1.485-.217.309-2.281.535-2.281.269V89.013c0-.699.52-.962.988-.962l7.702-.002c.943 0 1.332.303 1.332 1.31l.008 13.356c0 .436-4.525.611-4.695.297m11.789-1.524c-.301-.133-.34-1.093-.513-1.093-.261 0-.394.872-.901 1.002-.522.09-1.293-.566-1.513-.396-.217.181.486 1.422-.674 1.422-.347 0-.525-.401-.525-.707v-9.538s.039-.013.559.117c.343.09.687.263.687.747 0 .258-.091.784.084.875.18.09.3-.09.389-.133 1.589-1.18 1.978.916 2.32.916.304 0 .262-1.44.69-1.44.347-.135 3.658 1.485 3.658 2.538 0 .218-.434.257-.471.48-.041.31.774.436.643 1.008-.047.353-.817.79-.606 1.005.222.22 1.254-.216 1.34-.216.215 0 .254.346.254.479 0 1.929-4.429 3.375-5.421 2.934m-61.914-20.467h-.071l-3.206-10.3h-4.645l5.528 15.81v11.24h4.57V86.53l5.523-15.81h-4.64zm-18.01 16.75h4.569V74.766h4.421v-4.045h-13.41v4.045h4.42zm-14.521-20.72c0-1.688.81-2.663 2.283-2.663 1.032 0 2.247.677 2.433 3l4.347-.486c-.405-3.824-2.618-6.559-6.338-6.559-4.494 0-7.07 2.435-7.07 6.745 0 7.76 9.28 9.181 9.28 14.536 0 1.613-1.068 2.474-2.652 2.474-1.473 0-2.542-1.347-2.727-4.084l-4.348.635c.185 4.05 2.615 7.494 6.855 7.494 4.272 0 7.219-2.472 7.219-6.928 0-7.343-9.282-9.554-9.282-14.164m-6.108 16.673h-8.177v-7.94h5.891v-4.047h-5.891v-6.97h7.665V70.72h-12.235v27.053h12.747zm-21.061-7.53h-.076l-5.559-15.472h-4.238v27.05h4.125V80.876h.074l5.82 16.896h3.98v-27.05h-4.126zM77.693 76.64h.073l4.125 21.133h2.214l4.127-21.133h.068v21.133h3.982v-27.05h-6.006l-3.242 15.809h-.074l-3.24-15.81h-6.004v27.05h3.977zm-16.794-5.919L56 97.772h4.42l.81-5.995h5.009l.81 5.995h4.423l-4.901-27.05zm.992 17.01 1.806-11.615h.073l1.805 11.616zm104.019 33.43v-16.301h2.753v13.861h4.327v2.44zm-7.131-6.052h2.218l-1.087-6.999h-.044zm-.888 6.051h-2.665l2.952-16.3h3.42l2.952 16.3h-2.665l-.488-3.611h-3.018zm-12.657.001v-16.301h2.553l3.352 9.323h.044v-9.323h2.487v16.301h-2.398l-3.509-10.183h-.041v10.183zm-7.545-4.019q0 .927.312 1.366.311.441 1.154.441.842 0 1.155-.441.31-.439.311-1.366v-8.262q-.001-.928-.311-1.366-.313-.442-1.155-.441-.843 0-1.154.441-.311.438-.312 1.366zm-2.75-8.331q-.001-.858.253-1.627a3.6 3.6 0 0 1 .778-1.331 3.7 3.7 0 0 1 1.309-.893q.788-.327 1.876-.327 1.09 0 1.876.327.787.328 1.309.893.52.564.776 1.331.255.77.256 1.627v8.4q0 .857-.256 1.623-.255.769-.776 1.334a3.7 3.7 0 0 1-1.309.891q-.786.327-1.876.329-1.088-.002-1.876-.329a3.7 3.7 0 0 1-1.309-.891 3.6 3.6 0 0 1-.778-1.334 5.1 5.1 0 0 1-.253-1.623zm-4.952 12.349h2.752V104.86h-2.752zm-7.142-13.862h-2.665v-2.44h8.081v2.44h-2.662v13.864h-2.754zm-8.235 7.811h2.218l-1.087-6.999h-.044zm-.888 6.051h-2.665l2.952-16.3h3.42l2.952 16.3h-2.664l-.489-3.611h-3.018zm-12.63.001v-16.301h2.552l3.352 9.323h.045v-9.323h2.487v16.301h-2.399l-3.508-10.184h-.042v10.184zm-8.142-8.987h.977q.553 0 .943-.111c.258-.077.47-.21.632-.407q.244-.294.356-.778.11-.487.112-1.21 0-1.443-.468-1.974-.466-.53-1.576-.532h-.976zm.194 8.988h-2.752V104.86h3.862q2.31 0 3.485 1.108 1.176 1.105 1.176 3.702 0 .993-.165 1.692a4.5 4.5 0 0 1-.444 1.186 2.9 2.9 0 0 1-1.322 1.233l2.33 7.382H96.52l-1.954-6.752a4.5 4.5 0 0 1-.656.056q-.386.015-.765.013zm-12.208 0v-16.301h7.37v2.437h-4.619v4.202h3.553v2.436h-3.553v4.786h4.93v2.44zM74.18 107.3h-2.665v-2.44h8.081v2.44h-2.662v13.864h-2.754zm-12.416 13.863v-16.301h2.552l3.352 9.323h.045v-9.323h2.487v16.301H67.8l-3.51-10.183h-.04v10.183zm-5.166-.001h2.75v-16.3h-2.75z"/></svg>