<svg xmlns="http://www.w3.org/2000/svg" width="293" height="188" fill="none" viewBox="0 0 293 188"><g id="ic" fill="currentColor"><path d="M77.767 96.64h-1.512C70.045 96.64 65 91.567 65 85.336s5.046-11.3 11.25-11.3 11.249 5.069 11.249 11.3v10.82h-4.515v-10.82c0-3.733-3.024-6.77-6.74-6.77s-6.74 3.037-6.74 6.77 3.024 6.77 6.74 6.77h1.512v4.534zM97.67 96.156h-4.514v-10.82c0-6.23 5.05-11.298 11.255-11.298h1.565v4.534h-1.565c-3.716 0-6.74 3.038-6.74 6.77v10.82zM119.677 96.716q-.87.002-1.754-.135c-6.129-.958-10.343-6.742-9.389-12.903a11.24 11.24 0 0 1 4.478-7.39 11.15 11.15 0 0 1 8.364-2.046 11.18 11.18 0 0 1 7.357 4.497l-3.641 2.677a6.68 6.68 0 0 0-4.407-2.693 6.67 6.67 0 0 0-5.014 1.223 6.72 6.72 0 0 0-2.681 4.427c-.568 3.688 1.952 7.151 5.625 7.728 2.531.398 5.029-.663 6.52-2.758l3.673 2.634c-2.145 3.01-5.534 4.734-9.131 4.734zM144.052 96.635c-6.204 0-11.249-5.068-11.249-11.299V74.572h4.515v10.766c0 3.732 3.024 6.77 6.74 6.77 3.715 0 6.74-3.038 6.74-6.77V74.57h4.514v10.766c0 6.23-5.045 11.298-11.249 11.298zM175.264 96.635h-1.86c-6.204 0-11.25-5.068-11.25-11.299V74.572h4.515v10.766c0 3.732 3.024 6.77 6.74 6.77h1.861v4.534zM189.678 96.69c-6.204 0-11.25-5.069-11.25-11.3V74.57h4.515v10.82c0 3.733 3.024 6.77 6.74 6.77s6.74-3.037 6.74-6.77V74.57h4.515v10.82c0 6.231-5.046 11.3-11.25 11.3zM216.702 96.684c-1.485 0-2.927-.286-4.289-.846l1.715-4.195c.815.34 1.684.506 2.574.506 3.738 0 6.783-3.053 6.783-6.813H228c0 6.253-5.067 11.342-11.292 11.342zM209.924 85.342h-4.514c0-6.253 5.067-11.342 11.292-11.342 1.716 0 3.362.377 4.896 1.12l-1.958 4.082a6.7 6.7 0 0 0-2.938-.667c-3.737 0-6.778 3.053-6.778 6.812zM70.089 114.865l-.665-2.261H66.65l-.664 2.261H65l2.418-7.927h1.255l2.418 7.927h-1.008zm-2-6.92h-.102l-1.11 3.829h2.322zM85.006 106.938v5.876c0 .333-.054.635-.172.91a1.94 1.94 0 0 1-.482.694q-.314.283-.74.437c-.284.102-.6.151-.939.151-.606 0-1.099-.157-1.49-.464q-.589-.462-.767-1.319l.906-.194c.038.162.086.307.15.447q.096.212.263.366.16.154.402.243.242.09.563.091.643 0 1.003-.371.354-.371.354-1.153v-4.885h-2.853v-.829zM88.898 106.938v4.761q0 .582.032 1.034c.022.301.08.56.183.775q.151.325.456.496c.209.113.493.172.863.172q.557-.001.863-.172.314-.17.456-.496c.096-.215.16-.474.182-.775q.033-.453.032-1.034v-4.761h.95v4.535c0 .592-.027 1.104-.086 1.545-.06.442-.172.808-.349 1.104a1.63 1.63 0 0 1-.756.663q-.492.22-1.297.221c-.537 0-.966-.076-1.298-.221a1.63 1.63 0 0 1-.756-.663q-.267-.443-.349-1.104a13 13 0 0 1-.085-1.545v-4.535h.959M96.352 108.155h-.08v6.716h-.858v-7.928h1.345l2.692 6.646h.08v-6.646h.859v7.928h-1.346zM106.995 113.81h-.058c-.07.151-.145.301-.236.441a1.5 1.5 0 0 1-.344.383 1.8 1.8 0 0 1-.504.269 2.1 2.1 0 0 1-.702.102q-1.285-.001-1.92-1.044-.627-1.044-.627-3c0-1.303.231-2.397.692-3.102q.69-1.058 2.128-1.056.556 0 .96.146.41.146.697.398.29.252.483.56.195.315.316.63l-.815.377a5 5 0 0 0-.23-.495 1.7 1.7 0 0 0-.317-.409 1.4 1.4 0 0 0-.445-.28 1.6 1.6 0 0 0-.611-.103q-.95-.001-1.394.716c-.3.48-.445 1.115-.445 1.907v1.228c0 .404.032.765.091 1.099s.161.613.3.856q.211.365.542.56c.22.129.493.199.82.199.515 0 .912-.156 1.201-.468.284-.313.429-.711.429-1.207v-.818h-1.662v-.76h2.547v3.921h-.885v-1.056zM114.368 111.268h-3.078v3.603h-.949v-7.928h.949v3.501h3.078v-3.501h.949v7.928h-.949zM117.918 114.865v-7.927h4.863v.829h-3.914v2.672h3.78v.829h-3.78v2.773h3.914v.83h-4.863zM125.317 114.865v-.759h1.968v-6.409h-1.968v-.759h4.885v.759h-1.968v6.409h1.968v.759zM133.671 108.155h-.08v6.716h-.858v-7.928h1.346l2.692 6.646h.08v-6.646h.858v7.928h-1.346zM141.264 114.865h-.949v-7.927h2.874q1.094-.001 1.673.603.579.606.579 1.68 0 .963-.499 1.546-.498.58-1.447.668l2.01 3.43h-1.061l-1.925-3.387h-1.255zm1.898-4.189c.397 0 .713-.103.933-.302q.332-.299.333-.856v-.593q-.001-.557-.333-.856-.338-.3-.933-.302h-1.898v2.909zM147.709 114.865v-.759h1.968v-6.409h-1.968v-.759h4.885v.759h-1.968v6.409h1.968v.759zM157.876 115q-1.448.002-2.156-1.056-.708-1.057-.708-3.042c0-1.325.236-2.343.708-3.043q.708-1.058 2.156-1.056c.359 0 .675.049.938.146q.393.146.681.398.283.252.477.56.193.315.338.63l-.815.377a4 4 0 0 0-.236-.495 1.8 1.8 0 0 0-.322-.409 1.4 1.4 0 0 0-.439-.28 1.6 1.6 0 0 0-.617-.103q-.942-.001-1.394.716-.458.72-.456 1.907v1.292q-.001 1.196.456 1.907.46.717 1.394.716.36.001.617-.102.255-.104.439-.28a1.9 1.9 0 0 0 .322-.409c.091-.157.172-.318.236-.496l.815.377a5 5 0 0 1-.338.636 2.5 2.5 0 0 1-.477.554 2.1 2.1 0 0 1-.681.399 2.7 2.7 0 0 1-.938.145zM166.621 111.268h-3.078v3.603h-.949v-7.928h.949v3.501h3.078v-3.501h.949v7.928h-.949zM180.267 115q-1.448.002-2.155-1.056-.708-1.057-.708-3.042c0-1.325.236-2.343.708-3.043q.707-1.058 2.155-1.056c.359 0 .676.049.938.146q.393.146.681.398.283.252.478.56.192.315.337.63l-.815.377a4 4 0 0 0-.235-.495 2 2 0 0 0-.322-.409 1.4 1.4 0 0 0-.44-.28 1.6 1.6 0 0 0-.617-.103q-.941-.001-1.394.716-.456.72-.455 1.907v1.292q-.001 1.196.455 1.907.46.717 1.394.716.362.001.617-.102a1.4 1.4 0 0 0 .44-.28 2 2 0 0 0 .322-.409c.091-.157.171-.318.235-.496l.815.377a5 5 0 0 1-.337.636 2.5 2.5 0 0 1-.478.554 2.1 2.1 0 0 1-.681.399 2.7 2.7 0 0 1-.938.145zM187.474 115q-.723.001-1.244-.28a2.26 2.26 0 0 1-.858-.802q-.337-.525-.499-1.282a8.5 8.5 0 0 1-.161-1.74c0-.651.054-1.222.161-1.734q.162-.769.499-1.287c.225-.35.515-.614.858-.802.348-.184.761-.281 1.244-.281q.722-.001 1.244.281c.348.188.633.452.858.802s.391.775.498 1.287q.161.767.161 1.734a8.4 8.4 0 0 1-.161 1.74c-.107.506-.273.937-.498 1.282-.225.35-.515.613-.858.802q-.522.281-1.244.28m0-.829q.474-.001.804-.189c.22-.124.397-.301.542-.528q.215-.339.311-.824a5.6 5.6 0 0 0 .096-1.082v-1.293q0-.591-.096-1.077a2.4 2.4 0 0 0-.311-.829 1.55 1.55 0 0 0-.542-.528 1.6 1.6 0 0 0-.804-.188 1.6 1.6 0 0 0-.804.188q-.332.188-.542.528a2.4 2.4 0 0 0-.311.829 5.6 5.6 0 0 0-.097 1.077v1.293c0 .398.033.765.097 1.082s.166.598.311.824q.219.341.542.528.328.188.804.189M196.691 110.891v-2.51h-.091l-1.662 4.077-1.662-4.077h-.091v6.484h-.869v-7.927h1.222l1.389 3.501h.07l1.389-3.501h1.174v7.927h-.869zM200.026 114.865v-7.927h2.874q1.095-.001 1.673.603.579.606.579 1.68c0 .717-.193 1.282-.579 1.681q-.578.605-1.673.603h-1.925v3.36zm.949-4.189h1.899c.396 0 .713-.103.933-.302q.33-.299.332-.856v-.593q-.002-.557-.332-.856-.339-.3-.933-.302h-1.899zM211.914 114.865l-.665-2.261h-2.772l-.665 2.261h-.981l2.418-7.927h1.255l2.418 7.927zm-2-6.92h-.102l-1.11 3.829h2.316l-1.11-3.829zM215.786 108.155h-.081v6.716h-.858v-7.928h1.346l2.692 6.646h.08v-6.646h.858v7.928h-1.346zM224.322 114.865v-3.112l-2.724-4.815h1.083l1.131 2.068.96 1.804h.043l.981-1.804 1.132-2.068h1.061l-2.724 4.815v3.112h-.949z"/></g></svg>