<svg xmlns="http://www.w3.org/2000/svg" width="293" height="188" fill="none" viewBox="0 0 293 188"><g id="ic" fill="currentColor"><path d="M47.474 112.963c33.88-3.235 68.32-4.872 103.019-4.872 34.811 0 69.064 1.674 103.057 4.909v-.371a881 881 0 0 0-103.057-6.063c-34.885 0-69.213 2.12-103.02 6.063zM101.996 93.44c-1.041.631-3.236 1.747-4.165 2.007-.447.112-.893.038-1.116-.223-.149-.111-.223-.297-.223-.52.074-.521.892-1.823 2.454-2.604l.521-.26c1.116-.52 1.265-.632 2.157-.818.93-.224 2.12-.298 2.529-.038l.075.075c.037.335-1.116 1.674-2.232 2.38m-18.633-4.203c.558-.521 1.153-.968 1.34-1.079 1.078-.67 1.561-.818 2.305-.595.484.149.52.409.558.744.037.297-.297.595-.632.78-.707.41-1.6.745-2.269 1.042-.074.037-2.417.93-2.529.781-.149-.297.67-1.153 1.227-1.673m62.035 5.913c-.26-.52-1.301-.52-2.008-.26-.707.223-1.785.483-2.157.186-.298-.224.186-1.005.818-1.934.483-.744 1.079-1.674 1.525-2.678.372-.856.446-1.488.223-1.934-.298-.632-1.041-.893-2.343-1.153s-3.645.967-5.988 2.231c-.409.224-.744.372-.93.484-1.004.483-1.301.26-2.157-.967-.967-1.413-3.012-.856-4.649-.186-.818.335-1.599.744-2.194 1.116-.632.334-1.264.706-1.45.632s-.521-.372-.893-.707c-.521-.446-1.153-1.004-1.636-1.19-.819-.372-2.12.335-4.091 1.376l-.67.335c-1.673.893-3.719 2.12-5.393 3.124l-1.599.967c-1.227.707-2.157.372-2.38.037s1.674-2.566 1.748-3.793c.074-1.6-3.087-2.38-5.504-2.567-2.715-.223-5.058.968-7.773 2.715-4.091 3.273-10.34 4.798-12.682 4.91 0 0-.186 0-.633-.075-.446-.074-1.376-.67-1.45-1.078-.112-.41.223-.93.483-1.079.298-.111 1.153-.446 2.157-.818 1.302-.483 2.79-1.041 3.72-1.45 1.264-.596 2.38-1.414 2.343-3.534-.037-1.785-2.269-2.789-3.757-2.677-1.487.111-4.016 1.599-5.17 2.752-1.152 1.19-3.235 4.09-3.532 4.388s-6.025 1.414-6.1 1.414c-.186 0-.297.074-.297.037.037-.112 1.636-1.711 1.897-5.244.26-3.57-5.393-5.504-5.43-5.504.037-.038.074-.075.111-.15.26-.334.818-1.04 1.041-2.454.372-2.38-1.376-4.425-3.16-5.504-1.749-1.079-4.612-.558-5.877-.112l-.78.26c-1.08.373-2.158.745-2.79.856h-.186c-.075-.037-.037-.297 0-.483.037-.298.074-.67-.075-.967-.409-.781-1.673-.447-2.715-.038-.037 0-.074.038-.111.075-2.083 3.347-8.629 11.827-9.781 13.017-.521.558-1.711 1.97-2.976 3.533-1.524 1.822-3.087 3.719-3.793 4.463-.93.93-1.45 2.194-1.34 3.198.075.595.373 1.042.82 1.302 1.115.707 2.119-.41 3.16-1.525.298-.297.558-.632.856-.892 1.376-1.377 5.839-7.067 8.554-10.86 2.194-3.124 4.277-4.724 5.801-5.914.26-.186.484-.372.707-.558 1.413-1.152 4.166-2.343 6.695-2.9 2.082-.484 2.454.409 2.863 1.487.075.149.112.298.186.447.223.52.149 1.227-.149 1.933-.409.856-1.078 1.562-1.86 1.823-.557.186-1.152.334-1.784.483-1.153.298-2.38.595-3.385 1.153-1.525.856-2.938 2.752-2.677 4.463.037.335.223.632.52.855.93.67 2.938.372 4.091.15h.075c1.078-.15 2.789-1.34 4.016-2.195.447-.297.819-.595 1.079-.744.744-.446 2.083-.52 3.533.558.335.223.484.558.558 1.004.149 1.153-.744 2.752-1.636 3.868-1.19 1.45-3.236 1.488-5.021 1.488h-.335c-.818.037-1.86-.372-2.752-.744-1.227-.484-2.269-.893-2.79-.335-.818.893-1.04 3.124-.483 4.128.632 1.116 2.678 2.939 6.174 2.678 2.529-.186 4.351-1.525 5.578-2.454.484-.372.893-.707 1.116-.744.484-.075 1.227-.075 3.98-.632 2.715-.558 4.35-1.19 4.5-.968 0 0 1.264 2.901 4.053 3.794 2.046.67 7.7-1.041 7.922-1.116.335-.111.633-.223.93-.334.855-.298 1.6-.558 2.343-.633.335-.037.818.26 1.339.67.893.67 1.971 1.45 3.459 1.339 1.822-.15 3.682-1.079 5.021-1.785.483-.224.892-.447 1.19-.521.632-.26.892.037 1.376.67.223.26.446.594.781.817.93.781 2.975.484 6.248-1.004 1.785-.818 3.533-1.86 4.909-2.677.855-.484 1.562-.893 2.083-1.153.409-.186.595-.224.632-.224 0 .112-.112.41-.818 1.19-.967 1.042-1.451 1.86-1.674 2.827-.074.223-.037.446.112.595.335.41 1.19.41 1.971.372.855 0 1.19-.335 1.971-1.079l.484-.446c1.115-1.041 4.76-3.347 6.21-4.016.967-.41 1.302-.26 1.414-.186.186.148.148.409.074.558-.111.371-1.004 1.338-1.674 2.045-.743.781-1.115 1.227-1.19 1.413-.037.223.038.484.224.744.371.446 1.004.707 1.748.707.892 0 1.673-.67 2.714-1.488.484-.372 1.005-.818 1.6-1.227 1.45-1.042 3.384-2.12 4.537-2.752l.781-.447c.298-.186.558-.223.669-.148.149.074.186.409.075.892-.075.335-.223.67-.446 1.041-.298.633-.707 1.377-.819 2.53-.186 1.859 1.6 2.64 3.273 2.789.818.074 2.157-.335 3.496-1.004.856-.819 1.748-1.674 1.376-2.678M191.031 97.716h-4.239c.148-1.34.186-3.534.186-5.616v-1.86c0-2.12-.038-4.426-.298-5.616h2.417c.893 0 1.376.298 1.525.893 1.153-.855 2.418-1.19 3.682-1.19 4.537 0 5.095 2.715 5.095 4.723v3.682c0 2.046.112 3.905.261 5.02h-2.529c-1.153 0-1.711-.706-1.711-1.859v-5.318c0-2.12-.186-3.72-2.827-3.72-.595 0-1.19.112-1.71.298v4.723c0 1.6 0 4.463.148 5.84m-12.459-13.129h4.24c-.149 1.376-.186 3.533-.186 5.616v1.86c0 2.12.112 4.425.298 5.615h-2.418c-.892 0-1.376-.297-1.525-.892-1.153.855-2.417 1.19-3.682 1.19-4.537 0-5.057-2.715-5.057-4.723V89.57c0-2.046-.112-3.905-.261-5.021h2.529c1.153 0 1.711.707 1.711 1.86v5.355c0 2.12.186 3.72 2.826 3.72a5.2 5.2 0 0 0 1.711-.298v-4.724c-.037-1.673-.074-4.537-.186-5.876m-11.938 3.124c-.744-.707-2.12-1.116-3.533-1.116-1.004 0-2.194.15-2.194 1.302 0 .855 1.004 1.265 2.529 1.822 1.748.67 3.83 1.525 3.83 3.98 0 3.905-4.165 4.426-6.136 4.426-1.116 0-2.306-.112-3.199-.335-.892-.26-1.115-.67-1.115-1.86v-1.45c1.004.707 2.603 1.041 3.905 1.041 1.599 0 2.417-.446 2.417-1.45 0-.967-.855-1.302-3.124-2.157-1.562-.595-3.236-1.413-3.236-3.682 0-3.31 3.757-4.166 6.025-4.166 1.376 0 2.455.26 3.162.558.595.298.669.67.669 1.45zM218.107 91.06c0 3.013 1.041 4.389 3.124 4.389 2.008 0 3.013-1.34 3.013-4.389s-1.005-4.426-3.013-4.426c-2.083 0-3.124 1.414-3.124 4.426m9.967-.037c0 4.388-2.529 7.103-7.029 7.103-4.537 0-6.843-2.454-6.843-6.954 0-4.426 2.455-6.992 6.992-6.992s6.88 2.417 6.88 6.843m-16.513-6.434c.707 0 1.823-.037 2.381-.149-.112.41-.409 1.45-.595 1.897-.335.744-.819 1.004-2.567 1.004h-1.524v4.463c0 1.674.037 4.537.186 5.876h-4.277c.148-1.339.186-4.24.186-5.876V87.34h-1.302c-1.153 0-2.157.149-2.678.446v-1.339c0-1.153.186-1.86 1.86-1.86zM252.768 93.884v.298c0 1.004.038 2.677.186 3.533h-4.277c.149-.856.186-2.567.186-3.533v-.298c0-.558-.148-1.116-.595-2.008-.967-1.897-3.049-5.579-4.872-7.252.707-.112 2.009-.15 2.827-.15 1.673 0 2.157.559 2.566 1.19.335.559 1.748 3.31 2.194 4.464.558-1.302 1.674-3.608 2.157-4.426.409-.595.967-1.264 2.381-1.264.669 0 1.71.037 2.529.148-1.302 1.153-3.757 5.244-4.761 7.104-.483.93-.521 1.376-.521 2.194m-10.711 4.575c-1.599 0-1.971-.596-2.975-2.046-.558-.818-2.306-3.756-2.603-4.388-.149-.298-.186-.558.111-.707 1.302-.744 1.599-1.562 1.599-2.455 0-1.041-.409-1.97-1.896-1.97-.447 0-.856.036-1.153.148v4.76c0 1.674.037 4.538.186 5.876h-4.128c.148-1.301.185-3.533.185-5.615v-1.86c0-2.12-.037-4.426-.297-5.616 1.971 0 4.574-.111 5.839-.111 2.194 0 5.132.446 5.132 3.756 0 1.339-.595 2.455-1.71 3.161-.186.149-.186.26 0 .558 1.413 2.12 3.124 4.463 4.686 6.137-.558.186-2.009.372-2.976.372"/></g></svg>