<svg xmlns="http://www.w3.org/2000/svg" width="293" height="188" fill="none" viewBox="0 0 293 188"><g id="ic" fill="currentColor"><path d="M99.618 98.79h-1.49v12.707h1.503c1.698 0 3.327-.67 4.527-1.861a6.33 6.33 0 0 0 1.876-4.492c0-1.684-.675-3.3-1.876-4.491a6.43 6.43 0 0 0-4.527-1.86M125.572 84.585a154 154 0 0 0 1.546-1.537l-3.418-3.36-1.526 1.516a2.45 2.45 0 0 0-.708 1.714 2.3 2.3 0 0 0 .705 1.657 2.36 2.36 0 0 0 1.699.715 2.38 2.38 0 0 0 1.699-.715M109.088 84.7a10.87 10.87 0 0 0-3.207-7.71 11.05 11.05 0 0 0-7.757-3.213V95.62a11.05 11.05 0 0 0 7.756-3.212 10.87 10.87 0 0 0 3.208-7.707M124.531 93.281a9.2 9.2 0 0 0-5.811 2.067 9.08 9.08 0 0 0-3.172 5.255 9.03 9.03 0 0 0 .908 6.057 9.14 9.14 0 0 0 4.575 4.113 9.24 9.24 0 0 0 6.165.301 9.16 9.16 0 0 0 4.96-3.647 9.04 9.04 0 0 0 1.503-5.94 9.06 9.06 0 0 0-2.636-5.538 9.1 9.1 0 0 0-2.972-1.978 9.2 9.2 0 0 0-3.51-.69"/><path d="M133.257 111.036a12.414 12.414 0 0 1-15.581 1.502 12.25 12.25 0 0 1-4.944-6.63 12.15 12.15 0 0 1 .419-8.237 12.27 12.27 0 0 1 5.59-6.104 12.43 12.43 0 0 1 8.225-1.2 12.36 12.36 0 0 1 7.125 4.25 12.18 12.18 0 0 1 1.851 12.453 12.2 12.2 0 0 1-2.685 3.966m-26.855.83a9.563 9.563 0 0 1-6.772 2.785h-4.686V70.648h3.124a14.24 14.24 0 0 1 8.747 2.963 14.05 14.05 0 0 1 5.045 7.683 13.96 13.96 0 0 1-.805 9.135 14.1 14.1 0 0 1-6.31 6.7 9.6 9.6 0 0 1 3.209 3.327 9.424 9.424 0 0 1-1.552 11.41m13.745-37.53a4.356 4.356 0 0 1 7.422-3.054l.046.052-.026.04-.712.702-1.028 1.014-.037.039-.039-.043a1.75 1.75 0 0 0-1.272-.516 1.92 1.92 0 0 0-1.289.543 1.72 1.72 0 0 0-.507 1.235 1.62 1.62 0 0 0 .547 1.262c.623.628 5.678 5.653 5.678 5.653l1.727-1.72 1.809 1.795-1.73 1.72 2.429 2.41-.02.042-1.737 1.722-2.465-2.383c-.399.386-.811.795-1.539 1.517a5.32 5.32 0 0 1-3.21 1.445 4.75 4.75 0 0 1-3.819-1.445 4.714 4.714 0 0 1-1.46-3.4 5.2 5.2 0 0 1 1.447-3.576l1.535-1.491c-.728-.664-1.75-1.769-1.75-3.564m-6.323-20.371a39.05 39.05 0 0 0-21.572 6.49A38.6 38.6 0 0 0 77.95 77.74a38.23 38.23 0 0 0-2.211 22.254 38.42 38.42 0 0 0 10.624 19.723 38.93 38.93 0 0 0 19.879 10.543 39.1 39.1 0 0 0 22.434-2.19 38.76 38.76 0 0 0 17.426-14.185 38.3 38.3 0 0 0 6.545-21.399 38.2 38.2 0 0 0-2.953-14.74 38.5 38.5 0 0 0-8.416-12.498 38.8 38.8 0 0 0-12.596-8.35 39.1 39.1 0 0 0-14.858-2.933M172.493 98.277c0-2.547-2.07-4.368-4.614-4.368h-1.892v8.771h1.876c2.56 0 4.613-1.873 4.613-4.4m2.597 0c0 4.041-3.295 6.911-7.112 6.911h-1.977v4.413h-2.725V91.427h4.613c4.024 0 7.224 2.89 7.224 6.866m22.617-1.716-2.927 6.339h5.86zm0-5.862 9.062 18.902h-3.035l-1.905-4.122h-8.238l-1.902 4.122h-3.035zm-16.494.722h-2.742v18.177h8.051l1.239-2.582h-6.558zm38.791 0-6.469 12.423v5.764h-2.574v-5.79l-6.545-12.423h3.042l4.795 9.409 4.844-9.409z"/></g></svg>