<svg xmlns="http://www.w3.org/2000/svg" width="293" height="188" fill="none" viewBox="0 0 293 188"><path id="ic" fill="currentColor" d="M168.201 86.948a1.005 1.005 0 0 1-.794.74c-.017-.001-5.318.922-6.551 1.15a.34.34 0 0 1-.383-.145.4.4 0 0 1-.05-.137c0-.603.767-9.457.753-9.512-.112-.531-.681-.408-1.206-.313a.92.92 0 0 0-.739.664l-.838 9.539a.563.563 0 0 1-.433.405c-2.163.382-4.588.8-6.595 1.169-.149.02-.3 0-.439-.058a.565.565 0 0 1-.293-.586l1.158-14.182c0-.174.245-.34.341-.375l11.538-2.023c.991-.205 2.384-.133 3.137.255a3.41 3.41 0 0 1 2.024 2.818 15.6 15.6 0 0 1-.058 3.376 588 588 0 0 0-.586 7.19m-.508 6.555-.838 10.693a.86.86 0 0 1-.62.753 2 2 0 0 1-.238.051c-3.539.627-13.541 2.385-14.11 2.487a3.5 3.5 0 0 1-1.428-.034c-.834-.375-1.127-1.052-1.059-2.119.106-1.642.341-4.302.412-4.667.039-.261.128-.512.263-.739.483-.736.987-.988 2.524-1.26.501-.086 6.857-1.186 6.925-1.213.069-.027.229-.16.229-.252.042-.287.023-.58-.058-.859a.98.98 0 0 0-.975-.385l-8.175 1.441c-.273.045-.474-.272-.453-.569.102-1.127.17-2.493.286-3.638.037-.392.238-.542.756-.634.075 0 13.834-2.449 14.008-2.473a2.12 2.12 0 0 1 1.526.508c.722.521 1.138 1.587 1.022 2.916M122.123 98.2a.7.7 0 0 1 .204-.464 1 1 0 0 1 .498-.19s5.737-.999 6.963-1.227c.208-.034.463.096.439.286-.037.399-.756 8.858-.756 8.858v.143c.099.531.654.419 1.182.316.371-.061.777-.34.801-.681 0 0 .776-8.826.78-8.857a.7.7 0 0 1 .204-.463c.148-.105.321-.17.501-.191.02 0 4.033-.702 5.263-.927.205-.04.463.092.45.283 0 .34-.767 8.857-.763 8.857a.6.6 0 0 0 0 .133c.095.538.654.422 1.185.32a.954.954 0 0 0 .787-.681c0-.017.767-8.833.767-8.84a.73.73 0 0 1 .207-.467c.149-.103.321-.168.501-.187 0 0 4.357-.753 6.34-1.114a.8.8 0 0 1 .443.061.59.59 0 0 1 .296.583s-1.144 13.967-1.148 13.967a.8.8 0 0 1-.283.456.9.9 0 0 1-.395.191l-20.732 3.679a4.2 4.2 0 0 1-1.673-.085 3.767 3.767 0 0 1-2.868-3.771l.807-10.005m10.479-6.92c.109-1.648.34-4.302.409-4.67.042-.262.133-.514.269-.742.477-.736.821-.964 2.36-1.237 1.363-.238 6.03-1.022 6.095-1.063s.235-.16.235-.248a2 2 0 0 0-.061-.866.97.97 0 0 0-.971-.378l-7.171 1.26c-.269.048-.477-.272-.45-.568.102-1.128.167-2.494.283-3.635.044-.395.242-.545.76-.637.074 0 12.454-2.204 12.635-2.228a2.1 2.1 0 0 1 1.529.511c.719.514 1.114 1.577.988 2.902l-.821 10.694a.86.86 0 0 1-.62.756q-.115.035-.235.051c-3.539.627-12.179 2.13-12.744 2.248-.473.095-.96.082-1.427-.037-.835-.371-1.131-1.043-1.063-2.112m50.002-6.986a37.213 37.213 0 0 0-66.262-10.901c-.034.047-.61.9-.62.91a.65.65 0 0 0 .159.894.64.64 0 0 0 .475.107s5.069-.886 5.348-.93a.47.47 0 0 1 .484.45l-.545 5.665a.3.3 0 0 0 0 .157.176.176 0 0 0 .235.109l4.517-.794c.64-.14 1.302-.14 1.942 0a3.775 3.775 0 0 1 2.95 3.825v.065l-.804 9.712a1.1 1.1 0 0 1-.198.46 1.2 1.2 0 0 1-.558.365c-.137.027-6.701 1.189-6.715 1.182-.409.102-.729-.11-.742-.365.149-1.853.797-9.3.797-9.3.034-.541-.682-.405-1.23-.306a.87.87 0 0 0-.705.644l-.031.21c-.034.403-.756 8.45-.811 9.028v.034a.8.8 0 0 1-.282.457.87.87 0 0 1-.406.197h-.02c-.29.055-4.347.77-7.243 1.278a2.726 2.726 0 0 0-2.231 3.117l.092.555a37.22 37.22 0 0 0 31.587 30.409 37.22 37.22 0 0 0 38.616-20.765c.024-.03.467-1.022.463-1.022a.6.6 0 0 0 .028-.34.64.64 0 0 0-.733-.518h-.044s-5.791 1.022-11.436 2.016a.438.438 0 0 1-.454-.266.5.5 0 0 1-.037-.183c.052-1.407.164-2.174.259-3.478q.046-.272.181-.511a.88.88 0 0 1 .722-.423c2.18-.395 6.326-1.056 7.835-1.362.249-.043.483-.146.682-.3.364-.269.466-.835.473-1.4 0-.055-.061-.157-.129-.137l-5.758 1.022a3.3 3.3 0 0 1-1.584-.143 2.92 2.92 0 0 1-1.802-2.875c0-.184.682-9.198.682-9.371.085-1.22 1.199-2.385 2.122-2.562 0 0 4.456-.787 8.469-1.482a2.746 2.746 0 0 0 2.238-3.13zm-41.792 4.97a.81.81 0 0 0 .735-.66s.144-1.684.14-1.684a1 1 0 0 0 0-.14c-.112-.527-.681-.415-1.202-.316a.94.94 0 0 0-.743.681s-.14 1.676-.136 1.676a.6.6 0 0 0 0 .143c.112.528.681.41 1.206.317m17.407 11.095a.9.9 0 0 0-.739.658l-.143 1.679s0 .089.02.14c.116.532.682.412 1.203.317a.92.92 0 0 0 .743-.658s.139-1.682.139-1.703a1 1 0 0 0 0-.136c-.112-.535-.681-.412-1.206-.314m19.759-7.722a.93.93 0 0 0-.74.657l-.34 3.819s0 .092.017.14c.112.528.681.405 1.206.32a.92.92 0 0 0 .736-.681l.34-3.82a1 1 0 0 0-.017-.139c-.119-.531-.681-.415-1.206-.317"/></svg>