<svg xmlns="http://www.w3.org/2000/svg" width="293" height="188" fill="none" viewBox="0 0 293 188"><path id="ic" fill="currentColor" d="M127.214 62v20.228h-4.917l-8.351-12.72v12.72h-4.859V62h5.295l7.999 12.137V62zm17.268 0v4.462h-5.432v15.766h-4.711V66.462h-5.486V62zm16.305 0v4.488h-9.601v3.325h9.594v4.49h-9.594v3.435h9.594v4.49h-14.657V62zm15.593 12.92a6.53 6.53 0 0 0 2.517-2.453 6.8 6.8 0 0 0 .917-3.506 7 7 0 0 0-.525-2.707 6.2 6.2 0 0 0-1.541-2.199 7.5 7.5 0 0 0-2.503-1.497 9.7 9.7 0 0 0-3.404-.553h-9.134v20.223h5.063V76.16h3.985l2.997 6.068h5.583zM173.863 71q-.772.787-2.401.787h-3.694v-5.382h3.694q1.602 0 2.387.707t.785 1.954a2.65 2.65 0 0 1-.771 1.926zm-65.735 13.153v20.223h-4.917l-8.35-12.72v12.72h-4.86v-20.23h5.297l8.001 12.139V84.146zm16.578 0v4.49h-9.598v3.325h9.601v4.49h-9.601v3.435h9.601v4.489h-14.662V84.146zm19.055 0v20.223h-5.091v-7.782h-6.949v7.782h-5.092v-20.23h5.092v7.676h6.954v-7.676zm23.014 0v20.223h-4.941V91.545l-5.621 7.177-5.557-7.148v12.802h-4.971v-20.23h4.831l5.731 7.566 5.907-7.566zm16.577 0v4.49h-9.591v3.325h9.602v4.49h-9.602v3.435h9.602v4.489h-14.665V84.146zm15.693 12.913a6.53 6.53 0 0 0 2.517-2.453 6.8 6.8 0 0 0 .915-3.504 7 7 0 0 0-.522-2.707 6.24 6.24 0 0 0-1.543-2.199 7.5 7.5 0 0 0-2.502-1.497 9.7 9.7 0 0 0-3.405-.555h-9.135v20.225h5.063v-6.07h3.987l2.998 6.07H203zm-2.507-3.928q-.771.79-2.4.79h-3.696v-5.375h3.696q1.599 0 2.385.707.786.706.795 1.953a2.66 2.66 0 0 1-.78 1.925m-90.903 13.156v4.46H100.2v15.769h-4.715v-15.769h-5.484v-4.46zm14.05 19.96a11.7 11.7 0 0 1-7.105 0 7.3 7.3 0 0 1-2.691-1.607 7.2 7.2 0 0 1-1.717-2.578 9.3 9.3 0 0 1-.622-3.506v-12.269h5.149v12.269q0 1.691.917 2.605.916.913 2.488.915 1.54 0 2.502-.915.96-.915.959-2.605v-12.269h5.151v12.269a9.3 9.3 0 0 1-.611 3.491 7.2 7.2 0 0 1-1.724 2.585 7.3 7.3 0 0 1-2.706 1.607m28.05-19.952v20.229h-4.947v-12.83l-5.616 7.177-5.556-7.15v12.803h-4.977v-20.229h4.831l5.731 7.564 5.907-7.564zM95.147 74.276V62h-5.146v12.276a9.4 9.4 0 0 0 .611 3.491 7.2 7.2 0 0 0 1.717 2.576 7.35 7.35 0 0 0 2.707 1.61c1.144.38 2.345.567 3.552.552v-4.71q-1.523-.009-2.473-.913-.951-.903-.968-2.606M107.157 62h-5.139v11.58h5.151zm-.61 15.816a7.2 7.2 0 0 0-1.717-2.578 7.35 7.35 0 0 0-2.707-1.607 10.8 10.8 0 0 0-3.552-.555v4.72q1.523 0 2.475.913.952.915.959 2.605v.92h5.151v-.92a9.4 9.4 0 0 0-.597-3.498z"/></svg>