<svg xmlns="http://www.w3.org/2000/svg" width="292" height="188" fill="none" viewBox="0 0 292 188"><g id="ic" fill="currentColor"><path fill-rule="evenodd" d="M164.047 74.565h-6.888a.28.28 0 0 0-.279.284v3.585a19.35 19.35 0 0 0-12.152-4.285c-10.812 0-19.61 8.91-19.61 19.864s8.798 19.865 19.61 19.865a19.35 19.35 0 0 0 12.152-4.285v3.618a.284.284 0 0 0 .279.284h6.888c.074 0 .145-.03.198-.084a.28.28 0 0 0 .082-.2V74.849a.283.283 0 0 0-.28-.284m-19.315 31.732c-2.4.002-4.747-.717-6.743-2.065a12.26 12.26 0 0 1-4.473-5.51 12.43 12.43 0 0 1-.695-7.099 12.34 12.34 0 0 1 3.319-6.292 12.1 12.1 0 0 1 6.212-3.365 12 12 0 0 1 7.012.698 12.17 12.17 0 0 1 5.446 4.524 12.39 12.39 0 0 1-1.508 15.506 12.07 12.07 0 0 1-8.57 3.603" clip-rule="evenodd"/><path d="M125.756 74.564h-7.46a.49.49 0 0 0-.446.283l-13.578 29.621-13.011-29.61a.49.49 0 0 0-.447-.293h-7.406a.28.28 0 0 0-.235.129.28.28 0 0 0-.021.27l16.706 38.025a.85.85 0 0 0 .31.368.83.83 0 0 0 .458.138h7.19a.84.84 0 0 0 .763-.492l17.43-38.037a.29.29 0 0 0-.018-.271.28.28 0 0 0-.235-.131M202.038 74.562h6.929a.284.284 0 0 1 .278.282v8.318c-.023 10.425-2.995 21.335-8.563 30.105a.49.49 0 0 1-.42.229h-8.342a.28.28 0 0 1-.253-.162.3.3 0 0 1-.026-.156.3.3 0 0 1 .061-.144c2.88-3.675 5.181-7.775 6.898-12.129a19.3 19.3 0 0 1-8.965 2.203c-10.814 0-19.61-8.912-19.61-19.864v-8.395a.284.284 0 0 1 .28-.284h6.926a.28.28 0 0 1 .281.284v8.395c0 1.612.313 3.208.922 4.697a12.3 12.3 0 0 0 2.629 3.982 12.1 12.1 0 0 0 3.932 2.66 11.997 11.997 0 0 0 9.279 0 12.1 12.1 0 0 0 3.933-2.66 12.3 12.3 0 0 0 2.628-3.982c.61-1.49.923-3.085.923-4.697v-8.398c0-.076.03-.148.082-.2a.28.28 0 0 1 .198-.084"/></g></svg>