<svg xmlns="http://www.w3.org/2000/svg" width="293" height="188" fill="none" viewBox="0 0 293 188"><path id="ic" fill="currentColor" d="M146.1 128.513c-18.774 0-34.244-15.62-34.244-34.394 0-3.905.751-7.66 1.953-11.265l19.975 38.9c.301.601.601.901 1.202.901.751 0 .901-.45 1.201-.901l9.312-20.726q.226-.451.451-.451c.3 0 .3.3.451.451l9.462 20.726c.3.601.601.901 1.201.901.751 0 .901-.45 1.202-.901l19.976-38.9c1.201 3.455 1.952 7.21 1.952 11.265.15 18.774-15.32 34.394-34.094 34.394m0-43.256c-.3 0-.3-.3-.45-.45l-10.664-23.13a33.2 33.2 0 0 1 22.228 0l-10.663 23.13c-.15.15-.15.45-.451.45m-11.264 25.083c-.301 0-.301-.301-.451-.451l-17.422-33.643c3.004-4.957 7.509-9.162 12.616-12.166l12.316 26.734c.3.601.601.752.901.752h6.458c.451 0 .751-.15.901-.752l12.316-26.734c5.107 2.854 9.613 7.06 12.616 12.166l-17.272 33.643q-.225.45-.45.451c-.301 0-.301-.301-.451-.451l-6.608-14.719c-.301-.6-.601-.75-.902-.75h-6.458c-.45 0-.751.15-.901.75l-6.759 14.719c-.15.15-.15.451-.45.451m11.264 22.829c21.628 0 38.9-17.422 38.9-38.9s-17.272-39.05-38.9-39.05-38.9 17.422-38.9 38.9 17.423 39.05 38.9 39.05"/></svg>