<svg width="120" height="4402" viewBox="0 0 120 4402" fill="none" xmlns="http://www.w3.org/2000/svg">
<g clip-path="url(#clip0_3088_154)">
<g clip-path="url(#clip1_3088_154)">
<path d="M117.403 70.8C117.403 112.848 93.5947 140.688 59.9948 140.688C26.3948 140.688 2.58675 112.272 2.58675 70.8C2.58675 29.328 26.3948 0.911991 59.9948 0.911991C93.5947 0.911991 117.403 28.752 117.403 70.8ZM59.9948 130.704C86.4908 130.704 106.267 108.24 106.267 70.8C106.267 33.36 86.4908 10.896 59.9948 10.896C33.3068 10.896 13.7228 33.36 13.7228 70.8C13.7228 108.24 33.3068 130.704 59.9948 130.704Z" fill="#212121"/>
</g>
<path d="M33.56 172.48V162.496C48.92 162.496 57.368 157.312 63.32 145.6H72.92V280H61.784V161.728C55.64 169.216 47.384 172.48 33.56 172.48Z" fill="#212121"/>
<path d="M33.56 1592.48V1582.5C48.92 1582.5 57.368 1577.31 63.32 1565.6H72.92V1700H61.784V1581.73C55.64 1589.22 47.384 1592.48 33.56 1592.48Z" fill="#212121"/>
<path d="M33.56 3012.48V3002.5C48.92 3002.5 57.368 2997.31 63.32 2985.6H72.92V3120H61.784V3001.73C55.64 3009.22 47.384 3012.48 33.56 3012.48Z" fill="#212121"/>
<path d="M16.319 413.936L68.351 362.48C82.943 347.888 88.895 337.136 88.895 322.928C88.895 305.456 77.183 294.896 57.983 294.896C41.087 294.896 28.031 306.416 28.031 324.848C28.031 327.92 28.607 330.8 29.567 333.488L19.199 335.216C17.471 330.8 16.895 327.728 16.895 323.312C16.895 303.92 32.447 284.912 58.367 284.912C84.671 284.912 100.031 300.656 100.031 322.16C100.031 337.52 94.655 350.384 75.455 369.584L34.559 410.48H100.991V422H16.319V413.936Z" fill="#212121"/>
<path d="M16.319 1833.94L68.351 1782.48C82.943 1767.89 88.895 1757.14 88.895 1742.93C88.895 1725.46 77.183 1714.9 57.983 1714.9C41.087 1714.9 28.031 1726.42 28.031 1744.85C28.031 1747.92 28.607 1750.8 29.567 1753.49L19.199 1755.22C17.471 1750.8 16.895 1747.73 16.895 1743.31C16.895 1723.92 32.447 1704.91 58.367 1704.91C84.671 1704.91 100.031 1720.66 100.031 1742.16C100.031 1757.52 94.655 1770.38 75.455 1789.58L34.559 1830.48H100.991V1842H16.319V1833.94Z" fill="#212121"/>
<path d="M16.319 3253.94L68.351 3202.48C82.943 3187.89 88.895 3177.14 88.895 3162.93C88.895 3145.46 77.183 3134.9 57.983 3134.9C41.087 3134.9 28.031 3146.42 28.031 3164.85C28.031 3167.92 28.607 3170.8 29.567 3173.49L19.199 3175.22C17.471 3170.8 16.895 3167.73 16.895 3163.31C16.895 3143.92 32.447 3124.91 58.367 3124.91C84.671 3124.91 100.031 3140.66 100.031 3162.16C100.031 3177.52 94.655 3190.38 75.455 3209.58L34.559 3250.48H100.991V3262H16.319V3253.94Z" fill="#212121"/>
<path d="M18.7213 518.304L29.2812 521.184C28.7053 523.488 28.3213 525.792 28.3213 528.864C28.3213 544.224 40.9933 556.704 61.1533 556.704C79.2013 556.704 93.4093 546.336 93.4093 526.368C93.4093 505.632 75.3613 497.184 54.0493 497.184V486.432C78.0493 486.432 86.8813 472.8 86.8813 460.512C86.8813 445.152 76.1293 436.896 59.2333 436.896C43.8733 436.896 31.9693 447.264 31.9693 462.624C31.9693 463.968 32.3533 466.464 32.9293 467.808L22.3693 469.536C21.4093 467.04 20.8333 464.16 20.8333 460.896C20.8333 441.696 37.1533 426.912 59.4253 426.912C84.0013 426.912 98.0173 441.12 98.0173 459.36C98.0173 470.88 91.6813 484.704 74.5933 490.464C90.9133 494.496 104.929 506.208 104.929 525.216C104.929 550.752 86.1133 566.688 61.1533 566.688C33.3133 566.688 16.8013 547.488 16.8013 529.248C16.8013 524.832 17.3773 521.184 18.7213 518.304Z" fill="#212121"/>
<path d="M18.7213 1938.3L29.2812 1941.18C28.7053 1943.49 28.3213 1945.79 28.3213 1948.86C28.3213 1964.22 40.9933 1976.7 61.1533 1976.7C79.2013 1976.7 93.4093 1966.34 93.4093 1946.37C93.4093 1925.63 75.3613 1917.18 54.0493 1917.18V1906.43C78.0493 1906.43 86.8813 1892.8 86.8813 1880.51C86.8813 1865.15 76.1293 1856.9 59.2333 1856.9C43.8733 1856.9 31.9693 1867.26 31.9693 1882.62C31.9693 1883.97 32.3533 1886.46 32.9293 1887.81L22.3693 1889.54C21.4093 1887.04 20.8333 1884.16 20.8333 1880.9C20.8333 1861.7 37.1533 1846.91 59.4253 1846.91C84.0013 1846.91 98.0173 1861.12 98.0173 1879.36C98.0173 1890.88 91.6813 1904.7 74.5933 1910.46C90.9133 1914.5 104.929 1926.21 104.929 1945.22C104.929 1970.75 86.1133 1986.69 61.1533 1986.69C33.3133 1986.69 16.8013 1967.49 16.8013 1949.25C16.8013 1944.83 17.3773 1941.18 18.7213 1938.3Z" fill="#212121"/>
<path d="M18.7213 3358.3L29.2812 3361.18C28.7053 3363.49 28.3213 3365.79 28.3213 3368.86C28.3213 3384.22 40.9933 3396.7 61.1533 3396.7C79.2013 3396.7 93.4093 3386.34 93.4093 3366.37C93.4093 3345.63 75.3613 3337.18 54.0493 3337.18V3326.43C78.0493 3326.43 86.8813 3312.8 86.8813 3300.51C86.8813 3285.15 76.1293 3276.9 59.2333 3276.9C43.8733 3276.9 31.9693 3287.26 31.9693 3302.62C31.9693 3303.97 32.3533 3306.46 32.9293 3307.81L22.3693 3309.54C21.4093 3307.04 20.8333 3304.16 20.8333 3300.9C20.8333 3281.7 37.1533 3266.91 59.4253 3266.91C84.0013 3266.91 98.0173 3281.12 98.0173 3299.36C98.0173 3310.88 91.6813 3324.7 74.5933 3330.46C90.9133 3334.5 104.929 3346.21 104.929 3365.22C104.929 3390.75 86.1133 3406.69 61.1533 3406.69C33.3133 3406.69 16.8013 3387.49 16.8013 3369.25C16.8013 3364.83 17.3773 3361.18 18.7213 3358.3Z" fill="#212121"/>
<path d="M15.6268 677.2V667.216L81.0988 571.6H92.6188V667.216H107.979V677.2H92.6188V706H81.0988V677.2H15.6268ZM81.0988 589.264L27.5308 667.216H81.0988V589.264Z" fill="#212121"/>
<path d="M15.6268 2097.2V2087.22L81.0988 1991.6H92.6188V2087.22H107.979V2097.2H92.6188V2126H81.0988V2097.2H15.6268ZM81.0988 2009.26L27.5308 2087.22H81.0988V2009.26Z" fill="#212121"/>
<path d="M15.6268 3517.2V3507.22L81.0988 3411.6H92.6188V3507.22H107.979V3517.2H92.6188V3546H81.0988V3517.2H15.6268ZM81.0988 3429.26L27.5308 3507.22H81.0988V3429.26Z" fill="#212121"/>
<path d="M16.5335 786.176L23.4455 713.6H98.1335V723.584H32.8535L27.0935 775.808C36.3095 762.56 49.9415 756.224 63.1895 756.224C91.0295 756.224 106.198 776.192 106.198 803.072C106.198 831.296 86.9975 850.688 59.1575 850.688C31.5095 850.688 15.7655 832.832 15.7655 813.824C15.7655 810.752 16.3415 806.912 17.3015 804.416L27.6695 806.912C27.0935 808.448 26.9015 810.368 26.9015 812.864C26.9015 830.336 39.3815 840.704 59.1575 840.704C79.8935 840.704 94.6775 826.304 94.6775 803.072C94.6775 779.456 82.1975 766.592 60.6935 766.592C44.7575 766.592 32.2775 778.688 26.5175 789.056L16.5335 786.176Z" fill="#212121"/>
<path d="M16.5335 2206.18L23.4455 2133.6H98.1335V2143.58H32.8535L27.0935 2195.81C36.3095 2182.56 49.9415 2176.22 63.1895 2176.22C91.0295 2176.22 106.198 2196.19 106.198 2223.07C106.198 2251.3 86.9975 2270.69 59.1575 2270.69C31.5095 2270.69 15.7655 2252.83 15.7655 2233.82C15.7655 2230.75 16.3415 2226.91 17.3015 2224.42L27.6695 2226.91C27.0935 2228.45 26.9015 2230.37 26.9015 2232.86C26.9015 2250.34 39.3815 2260.7 59.1575 2260.7C79.8935 2260.7 94.6775 2246.3 94.6775 2223.07C94.6775 2199.46 82.1975 2186.59 60.6935 2186.59C44.7575 2186.59 32.2775 2198.69 26.5175 2209.06L16.5335 2206.18Z" fill="#212121"/>
<path d="M16.5335 3626.18L23.4455 3553.6H98.1335V3563.58H32.8535L27.0935 3615.81C36.3095 3602.56 49.9415 3596.22 63.1895 3596.22C91.0295 3596.22 106.198 3616.19 106.198 3643.07C106.198 3671.3 86.9975 3690.69 59.1575 3690.69C31.5095 3690.69 15.7655 3672.83 15.7655 3653.82C15.7655 3650.75 16.3415 3646.91 17.3015 3644.42L27.6695 3646.91C27.0935 3648.45 26.9015 3650.37 26.9015 3652.86C26.9015 3670.34 39.3815 3680.7 59.1575 3680.7C79.8935 3680.7 94.6775 3666.3 94.6775 3643.07C94.6775 3619.46 82.1975 3606.59 60.6935 3606.59C44.7575 3606.59 32.2775 3618.69 26.5175 3629.06L16.5335 3626.18Z" fill="#212121"/>
<path d="M100.849 894L90.0965 891.504C90.8645 889.392 91.4405 886.896 91.4405 883.824C91.4405 871.536 83.3765 862.896 64.9445 862.896C41.5205 862.896 26.1605 888.624 25.2005 925.488C32.8805 910.32 48.4325 902.064 63.7925 902.064C89.1365 902.064 108.145 920.688 108.145 946.8C108.145 971.952 89.3285 992.688 62.0645 992.688C31.9205 992.688 13.6805 970.032 13.6805 930.672C13.6805 913.2 17.1365 898.224 21.7445 886.512C30.1925 865.008 46.5125 852.912 64.7525 852.912C87.7925 852.912 102.577 865.776 102.577 884.016C102.577 887.472 102 890.736 100.849 894ZM62.0645 912.048C43.4405 912.048 26.7365 925.104 26.7365 947.376C26.7365 969.648 43.4405 982.704 62.0645 982.704C80.6885 982.704 96.6245 969.648 96.6245 947.376C96.6245 925.104 80.6885 912.048 62.0645 912.048Z" fill="#212121"/>
<path d="M100.849 2314L90.0965 2311.5C90.8645 2309.39 91.4405 2306.9 91.4405 2303.82C91.4405 2291.54 83.3765 2282.9 64.9445 2282.9C41.5205 2282.9 26.1605 2308.62 25.2005 2345.49C32.8805 2330.32 48.4325 2322.06 63.7925 2322.06C89.1365 2322.06 108.145 2340.69 108.145 2366.8C108.145 2391.95 89.3285 2412.69 62.0645 2412.69C31.9205 2412.69 13.6805 2390.03 13.6805 2350.67C13.6805 2333.2 17.1365 2318.22 21.7445 2306.51C30.1925 2285.01 46.5125 2272.91 64.7525 2272.91C87.7925 2272.91 102.577 2285.78 102.577 2304.02C102.577 2307.47 102 2310.74 100.849 2314ZM62.0645 2332.05C43.4405 2332.05 26.7365 2345.1 26.7365 2367.38C26.7365 2389.65 43.4405 2402.7 62.0645 2402.7C80.6885 2402.7 96.6245 2389.65 96.6245 2367.38C96.6245 2345.1 80.6885 2332.05 62.0645 2332.05Z" fill="#212121"/>
<path d="M100.849 3734L90.0965 3731.5C90.8645 3729.39 91.4405 3726.9 91.4405 3723.82C91.4405 3711.54 83.3765 3702.9 64.9445 3702.9C41.5205 3702.9 26.1605 3728.62 25.2005 3765.49C32.8805 3750.32 48.4325 3742.06 63.7925 3742.06C89.1365 3742.06 108.145 3760.69 108.145 3786.8C108.145 3811.95 89.3285 3832.69 62.0645 3832.69C31.9205 3832.69 13.6805 3810.03 13.6805 3770.67C13.6805 3753.2 17.1365 3738.22 21.7445 3726.51C30.1925 3705.01 46.5125 3692.91 64.7525 3692.91C87.7925 3692.91 102.577 3705.78 102.577 3724.02C102.577 3727.47 102 3730.74 100.849 3734ZM62.0645 3752.05C43.4405 3752.05 26.7365 3765.1 26.7365 3787.38C26.7365 3809.65 43.4405 3822.7 62.0645 3822.7C80.6885 3822.7 96.6245 3809.65 96.6245 3787.38C96.6245 3765.1 80.6885 3752.05 62.0645 3752.05Z" fill="#212121"/>
<path d="M102.504 1006.43L47.016 1132H35.88L91.368 1007.58H17.256V997.6H102.504V1006.43Z" fill="#212121"/>
<path d="M102.504 2426.43L47.016 2552H35.88L91.368 2427.58H17.256V2417.6H102.504V2426.43Z" fill="#212121"/>
<path d="M102.504 3846.43L47.016 3972H35.88L91.368 3847.58H17.256V3837.6H102.504V3846.43Z" fill="#212121"/>
<path d="M60.4565 1276.69C35.6885 1276.69 17.0645 1260.75 17.0645 1236.75C17.0645 1220.43 27.2405 1208.34 39.5285 1202C28.2005 1195.86 21.2885 1183.95 21.2885 1171.66C21.2885 1150.93 38.5685 1136.91 60.4565 1136.91C82.3445 1136.91 99.6245 1150.93 99.6245 1171.66C99.6245 1183.95 92.7125 1195.86 81.3845 1202C93.6725 1208.34 103.849 1220.43 103.849 1236.75C103.849 1260.75 85.2245 1276.69 60.4565 1276.69ZM60.4565 1266.7C79.4645 1266.7 92.3285 1254.8 92.3285 1236.94C92.3285 1219.09 77.7365 1207.18 60.4565 1207.18C43.1765 1207.18 28.5845 1219.09 28.5845 1236.94C28.5845 1254.8 41.4485 1266.7 60.4565 1266.7ZM32.4245 1172.24C32.4245 1188.18 43.5605 1197.97 60.4565 1197.97C77.3525 1197.97 88.4885 1188.18 88.4885 1172.24C88.4885 1156.5 76.0085 1146.51 60.4565 1146.51C44.9045 1146.51 32.4245 1156.5 32.4245 1172.24Z" fill="#212121"/>
<path d="M60.4565 2696.69C35.6885 2696.69 17.0645 2680.75 17.0645 2656.75C17.0645 2640.43 27.2405 2628.34 39.5285 2622C28.2005 2615.86 21.2885 2603.95 21.2885 2591.66C21.2885 2570.93 38.5685 2556.91 60.4565 2556.91C82.3445 2556.91 99.6245 2570.93 99.6245 2591.66C99.6245 2603.95 92.7125 2615.86 81.3845 2622C93.6725 2628.34 103.849 2640.43 103.849 2656.75C103.849 2680.75 85.2245 2696.69 60.4565 2696.69ZM60.4565 2686.7C79.4645 2686.7 92.3285 2674.8 92.3285 2656.94C92.3285 2639.09 77.7365 2627.18 60.4565 2627.18C43.1765 2627.18 28.5845 2639.09 28.5845 2656.94C28.5845 2674.8 41.4485 2686.7 60.4565 2686.7ZM32.4245 2592.24C32.4245 2608.18 43.5605 2617.97 60.4565 2617.97C77.3525 2617.97 88.4885 2608.18 88.4885 2592.24C88.4885 2576.5 76.0085 2566.51 60.4565 2566.51C44.9045 2566.51 32.4245 2576.5 32.4245 2592.24Z" fill="#212121"/>
<path d="M60.4565 4116.69C35.6885 4116.69 17.0645 4100.75 17.0645 4076.75C17.0645 4060.43 27.2405 4048.34 39.5285 4042C28.2005 4035.86 21.2885 4023.95 21.2885 4011.66C21.2885 3990.93 38.5685 3976.91 60.4565 3976.91C82.3445 3976.91 99.6245 3990.93 99.6245 4011.66C99.6245 4023.95 92.7125 4035.86 81.3845 4042C93.6725 4048.34 103.849 4060.43 103.849 4076.75C103.849 4100.75 85.2245 4116.69 60.4565 4116.69ZM60.4565 4106.7C79.4645 4106.7 92.3285 4094.8 92.3285 4076.94C92.3285 4059.09 77.7365 4047.18 60.4565 4047.18C43.1765 4047.18 28.5845 4059.09 28.5845 4076.94C28.5845 4094.8 41.4485 4106.7 60.4565 4106.7ZM32.4245 4012.24C32.4245 4028.18 43.5605 4037.97 60.4565 4037.97C77.3525 4037.97 88.4885 4028.18 88.4885 4012.24C88.4885 3996.5 76.0085 3986.51 60.4565 3986.51C44.9045 3986.51 32.4245 3996.5 32.4245 4012.24Z" fill="#212121"/>
<path d="M21.0035 1377.6L31.7555 1380.1C30.9875 1382.21 30.4115 1384.7 30.4115 1387.78C30.4115 1400.06 38.4755 1408.7 56.9075 1408.7C81.4835 1408.7 95.1155 1383.55 96.6515 1346.69C89.9315 1362.24 74.9555 1369.54 59.0195 1369.54C33.6755 1369.54 13.7075 1350.91 13.7075 1324.8C13.7075 1299.65 32.5235 1278.91 59.7875 1278.91C91.0835 1278.91 108.172 1301.18 108.172 1340.93C108.172 1358.4 104.716 1373.38 100.108 1385.09C91.6595 1406.59 75.3395 1418.69 57.0995 1418.69C34.0595 1418.69 19.2755 1405.82 19.2755 1387.58C19.2755 1384.32 19.8515 1380.86 21.0035 1377.6ZM59.7875 1359.55C78.4115 1359.55 95.1155 1346.5 95.1155 1324.22C95.1155 1301.95 78.4115 1288.9 59.7875 1288.9C41.1635 1288.9 25.2275 1301.95 25.2275 1324.22C25.2275 1346.5 41.1635 1359.55 59.7875 1359.55Z" fill="#212121"/>
<path d="M21.0035 2797.6L31.7555 2800.1C30.9875 2802.21 30.4115 2804.7 30.4115 2807.78C30.4115 2820.06 38.4755 2828.7 56.9075 2828.7C81.4835 2828.7 95.1155 2803.55 96.6515 2766.69C89.9315 2782.24 74.9555 2789.54 59.0195 2789.54C33.6755 2789.54 13.7075 2770.91 13.7075 2744.8C13.7075 2719.65 32.5235 2698.91 59.7875 2698.91C91.0835 2698.91 108.172 2721.18 108.172 2760.93C108.172 2778.4 104.716 2793.38 100.108 2805.09C91.6595 2826.59 75.3395 2838.69 57.0995 2838.69C34.0595 2838.69 19.2755 2825.82 19.2755 2807.58C19.2755 2804.32 19.8515 2800.86 21.0035 2797.6ZM59.7875 2779.55C78.4115 2779.55 95.1155 2766.5 95.1155 2744.22C95.1155 2721.95 78.4115 2708.9 59.7875 2708.9C41.1635 2708.9 25.2275 2721.95 25.2275 2744.22C25.2275 2766.5 41.1635 2779.55 59.7875 2779.55Z" fill="#212121"/>
<path d="M21.0035 4217.6L31.7555 4220.1C30.9875 4222.21 30.4115 4224.7 30.4115 4227.78C30.4115 4240.06 38.4755 4248.7 56.9075 4248.7C81.4835 4248.7 95.1155 4223.55 96.6515 4186.69C89.9315 4202.24 74.9555 4209.54 59.0195 4209.54C33.6755 4209.54 13.7075 4190.91 13.7075 4164.8C13.7075 4139.65 32.5235 4118.91 59.7875 4118.91C91.0835 4118.91 108.172 4141.18 108.172 4180.93C108.172 4198.4 104.716 4213.38 100.108 4225.09C91.6595 4246.59 75.3395 4258.69 57.0995 4258.69C34.0595 4258.69 19.2755 4245.82 19.2755 4227.58C19.2755 4224.32 19.8515 4220.86 21.0035 4217.6ZM59.7875 4199.55C78.4115 4199.55 95.1155 4186.5 95.1155 4164.22C95.1155 4141.95 78.4115 4128.9 59.7875 4128.9C41.1635 4128.9 25.2275 4141.95 25.2275 4164.22C25.2275 4186.5 41.1635 4199.55 59.7875 4199.55Z" fill="#212121"/>
<g clip-path="url(#clip2_3088_154)">
<path d="M117.403 1490.8C117.403 1532.85 93.5947 1560.69 59.9948 1560.69C26.3948 1560.69 2.58675 1532.27 2.58675 1490.8C2.58675 1449.33 26.3948 1420.91 59.9948 1420.91C93.5947 1420.91 117.403 1448.75 117.403 1490.8ZM59.9948 1550.7C86.4908 1550.7 106.267 1528.24 106.267 1490.8C106.267 1453.36 86.4908 1430.9 59.9948 1430.9C33.3068 1430.9 13.7228 1453.36 13.7228 1490.8C13.7228 1528.24 33.3068 1550.7 59.9948 1550.7Z" fill="#212121"/>
</g>
<g clip-path="url(#clip3_3088_154)">
<path d="M117.403 2910.8C117.403 2952.85 93.5947 2980.69 59.9948 2980.69C26.3948 2980.69 2.58675 2952.27 2.58675 2910.8C2.58675 2869.33 26.3948 2840.91 59.9948 2840.91C93.5947 2840.91 117.403 2868.75 117.403 2910.8ZM59.9948 2970.7C86.4908 2970.7 106.267 2948.24 106.267 2910.8C106.267 2873.36 86.4908 2850.9 59.9948 2850.9C33.3068 2850.9 13.7228 2873.36 13.7228 2910.8C13.7228 2948.24 33.3068 2970.7 59.9948 2970.7Z" fill="#212121"/>
</g>
<g clip-path="url(#clip4_3088_154)">
<path d="M117.403 4330.8C117.403 4372.85 93.5947 4400.69 59.9948 4400.69C26.3948 4400.69 2.58675 4372.27 2.58675 4330.8C2.58675 4289.33 26.3948 4260.91 59.9948 4260.91C93.5947 4260.91 117.403 4288.75 117.403 4330.8ZM59.9948 4390.7C86.4908 4390.7 106.267 4368.24 106.267 4330.8C106.267 4293.36 86.4908 4270.9 59.9948 4270.9C33.3068 4270.9 13.7228 4293.36 13.7228 4330.8C13.7228 4368.24 33.3068 4390.7 59.9948 4390.7Z" fill="#212121"/>
</g>
</g>
<defs>
<clipPath id="clip0_3088_154">
<rect width="120" height="4402" fill="white"/>
</clipPath>
<clipPath id="clip1_3088_154">
<rect width="120" height="142" fill="white"/>
</clipPath>
<clipPath id="clip2_3088_154">
<rect width="120" height="142" fill="white" transform="translate(0 1420)"/>
</clipPath>
<clipPath id="clip3_3088_154">
<rect width="120" height="142" fill="white" transform="translate(0 2840)"/>
</clipPath>
<clipPath id="clip4_3088_154">
<rect width="120" height="142" fill="white" transform="translate(0 4260)"/>
</clipPath>
</defs>
</svg>
