<svg width="120" height="284" viewBox="0 0 120 284" fill="none" xmlns="http://www.w3.org/2000/svg">
<g clip-path="url(#clip0_3088_152)">
<g clip-path="url(#clip1_3088_152)">
<path d="M117.403 70.8C117.403 112.848 93.5947 140.688 59.9948 140.688C26.3948 140.688 2.58675 112.272 2.58675 70.8C2.58675 29.328 26.3948 0.911991 59.9948 0.911991C93.5947 0.911991 117.403 28.752 117.403 70.8ZM59.9948 130.704C86.4908 130.704 106.267 108.24 106.267 70.8C106.267 33.36 86.4908 10.896 59.9948 10.896C33.3068 10.896 13.7228 33.36 13.7228 70.8C13.7228 108.24 33.3068 130.704 59.9948 130.704Z" fill="#212121"/>
</g>
<path d="M64.56 172.48V162.496C79.92 162.496 88.368 157.312 94.32 145.6H103.92V280H92.784V161.728C86.64 169.216 78.384 172.48 64.56 172.48Z" fill="#212121"/>
</g>
<defs>
<clipPath id="clip0_3088_152">
<rect width="120" height="284" fill="white"/>
</clipPath>
<clipPath id="clip1_3088_152">
<rect width="120" height="142" fill="white"/>
</clipPath>
</defs>
</svg>
