<svg width="120" height="1562" viewBox="0 0 120 1562" fill="none" xmlns="http://www.w3.org/2000/svg">
<g clip-path="url(#clip0_3088_153)">
<g clip-path="url(#clip1_3088_153)">
<path d="M117.403 70.8C117.403 112.848 93.5947 140.688 59.9948 140.688C26.3948 140.688 2.58675 112.272 2.58675 70.8C2.58675 29.328 26.3948 0.911991 59.9948 0.911991C93.5947 0.911991 117.403 28.752 117.403 70.8ZM59.9948 130.704C86.4908 130.704 106.267 108.24 106.267 70.8C106.267 33.36 86.4908 10.896 59.9948 10.896C33.3068 10.896 13.7228 33.36 13.7228 70.8C13.7228 108.24 33.3068 130.704 59.9948 130.704Z" fill="#212121"/>
</g>
<path d="M33.56 172.48V162.496C48.92 162.496 57.368 157.312 63.32 145.6H72.92V280H61.784V161.728C55.64 169.216 47.384 172.48 33.56 172.48Z" fill="#212121"/>
<path d="M16.319 413.936L68.351 362.48C82.943 347.888 88.895 337.136 88.895 322.928C88.895 305.456 77.183 294.896 57.983 294.896C41.087 294.896 28.031 306.416 28.031 324.848C28.031 327.92 28.607 330.8 29.567 333.488L19.199 335.216C17.471 330.8 16.895 327.728 16.895 323.312C16.895 303.92 32.447 284.912 58.367 284.912C84.671 284.912 100.031 300.656 100.031 322.16C100.031 337.52 94.655 350.384 75.455 369.584L34.559 410.48H100.991V422H16.319V413.936Z" fill="#212121"/>
<path d="M18.7213 518.304L29.2812 521.184C28.7053 523.488 28.3213 525.792 28.3213 528.864C28.3213 544.224 40.9933 556.704 61.1533 556.704C79.2013 556.704 93.4093 546.336 93.4093 526.368C93.4093 505.632 75.3613 497.184 54.0493 497.184V486.432C78.0493 486.432 86.8813 472.8 86.8813 460.512C86.8813 445.152 76.1293 436.896 59.2333 436.896C43.8733 436.896 31.9693 447.264 31.9693 462.624C31.9693 463.968 32.3533 466.464 32.9293 467.808L22.3693 469.536C21.4093 467.04 20.8333 464.16 20.8333 460.896C20.8333 441.696 37.1533 426.912 59.4253 426.912C84.0013 426.912 98.0173 441.12 98.0173 459.36C98.0173 470.88 91.6813 484.704 74.5933 490.464C90.9133 494.496 104.929 506.208 104.929 525.216C104.929 550.752 86.1133 566.688 61.1533 566.688C33.3133 566.688 16.8013 547.488 16.8013 529.248C16.8013 524.832 17.3773 521.184 18.7213 518.304Z" fill="#212121"/>
<path d="M15.6268 677.2V667.216L81.0988 571.6H92.6188V667.216H107.979V677.2H92.6188V706H81.0988V677.2H15.6268ZM81.0988 589.264L27.5308 667.216H81.0988V589.264Z" fill="#212121"/>
<path d="M16.5335 786.176L23.4455 713.6H98.1335V723.584H32.8535L27.0935 775.808C36.3095 762.56 49.9415 756.224 63.1895 756.224C91.0295 756.224 106.198 776.192 106.198 803.072C106.198 831.296 86.9975 850.688 59.1575 850.688C31.5095 850.688 15.7655 832.832 15.7655 813.824C15.7655 810.752 16.3415 806.912 17.3015 804.416L27.6695 806.912C27.0935 808.448 26.9015 810.368 26.9015 812.864C26.9015 830.336 39.3815 840.704 59.1575 840.704C79.8935 840.704 94.6775 826.304 94.6775 803.072C94.6775 779.456 82.1975 766.592 60.6935 766.592C44.7575 766.592 32.2775 778.688 26.5175 789.056L16.5335 786.176Z" fill="#212121"/>
<path d="M100.849 894L90.0965 891.504C90.8645 889.392 91.4405 886.896 91.4405 883.824C91.4405 871.536 83.3765 862.896 64.9445 862.896C41.5205 862.896 26.1605 888.624 25.2005 925.488C32.8805 910.32 48.4325 902.064 63.7925 902.064C89.1365 902.064 108.145 920.688 108.145 946.8C108.145 971.952 89.3285 992.688 62.0645 992.688C31.9205 992.688 13.6805 970.032 13.6805 930.672C13.6805 913.2 17.1365 898.224 21.7445 886.512C30.1925 865.008 46.5125 852.912 64.7525 852.912C87.7925 852.912 102.577 865.776 102.577 884.016C102.577 887.472 102 890.736 100.849 894ZM62.0645 912.048C43.4405 912.048 26.7365 925.104 26.7365 947.376C26.7365 969.648 43.4405 982.704 62.0645 982.704C80.6885 982.704 96.6245 969.648 96.6245 947.376C96.6245 925.104 80.6885 912.048 62.0645 912.048Z" fill="#212121"/>
<path d="M102.504 1006.43L47.016 1132H35.88L91.368 1007.58H17.256V997.6H102.504V1006.43Z" fill="#212121"/>
<path d="M60.4565 1276.69C35.6885 1276.69 17.0645 1260.75 17.0645 1236.75C17.0645 1220.43 27.2405 1208.34 39.5285 1202C28.2005 1195.86 21.2885 1183.95 21.2885 1171.66C21.2885 1150.93 38.5685 1136.91 60.4565 1136.91C82.3445 1136.91 99.6245 1150.93 99.6245 1171.66C99.6245 1183.95 92.7125 1195.86 81.3845 1202C93.6725 1208.34 103.849 1220.43 103.849 1236.75C103.849 1260.75 85.2245 1276.69 60.4565 1276.69ZM60.4565 1266.7C79.4645 1266.7 92.3285 1254.8 92.3285 1236.94C92.3285 1219.09 77.7365 1207.18 60.4565 1207.18C43.1765 1207.18 28.5845 1219.09 28.5845 1236.94C28.5845 1254.8 41.4485 1266.7 60.4565 1266.7ZM32.4245 1172.24C32.4245 1188.18 43.5605 1197.97 60.4565 1197.97C77.3525 1197.97 88.4885 1188.18 88.4885 1172.24C88.4885 1156.5 76.0085 1146.51 60.4565 1146.51C44.9045 1146.51 32.4245 1156.5 32.4245 1172.24Z" fill="#212121"/>
<path d="M21.0035 1377.6L31.7555 1380.1C30.9875 1382.21 30.4115 1384.7 30.4115 1387.78C30.4115 1400.06 38.4755 1408.7 56.9075 1408.7C81.4835 1408.7 95.1155 1383.55 96.6515 1346.69C89.9315 1362.24 74.9555 1369.54 59.0195 1369.54C33.6755 1369.54 13.7075 1350.91 13.7075 1324.8C13.7075 1299.65 32.5235 1278.91 59.7875 1278.91C91.0835 1278.91 108.172 1301.18 108.172 1340.93C108.172 1358.4 104.716 1373.38 100.108 1385.09C91.6595 1406.59 75.3395 1418.69 57.0995 1418.69C34.0595 1418.69 19.2755 1405.82 19.2755 1387.58C19.2755 1384.32 19.8515 1380.86 21.0035 1377.6ZM59.7875 1359.55C78.4115 1359.55 95.1155 1346.5 95.1155 1324.22C95.1155 1301.95 78.4115 1288.9 59.7875 1288.9C41.1635 1288.9 25.2275 1301.95 25.2275 1324.22C25.2275 1346.5 41.1635 1359.55 59.7875 1359.55Z" fill="#212121"/>
<g clip-path="url(#clip2_3088_153)">
<path d="M117.403 1490.8C117.403 1532.85 93.5947 1560.69 59.9948 1560.69C26.3948 1560.69 2.58675 1532.27 2.58675 1490.8C2.58675 1449.33 26.3948 1420.91 59.9948 1420.91C93.5947 1420.91 117.403 1448.75 117.403 1490.8ZM59.9948 1550.7C86.4908 1550.7 106.267 1528.24 106.267 1490.8C106.267 1453.36 86.4908 1430.9 59.9948 1430.9C33.3068 1430.9 13.7228 1453.36 13.7228 1490.8C13.7228 1528.24 33.3068 1550.7 59.9948 1550.7Z" fill="#212121"/>
</g>
</g>
<defs>
<clipPath id="clip0_3088_153">
<rect width="120" height="1562" fill="white"/>
</clipPath>
<clipPath id="clip1_3088_153">
<rect width="120" height="142" fill="white"/>
</clipPath>
<clipPath id="clip2_3088_153">
<rect width="120" height="142" fill="white" transform="translate(0 1420)"/>
</clipPath>
</defs>
</svg>
