<svg width="651" height="277" viewBox="0 0 651 277" fill="none" xmlns="http://www.w3.org/2000/svg">
<g clip-path="url(#clip0_2750_2195)">
<path fill-rule="evenodd" clip-rule="evenodd" d="M447 0C447 5.52285 442.747 10 437.502 10C432.256 10 428.003 5.52285 428.003 0L36.474 0C23.7069 0 17.3233 -2.38419e-07 12.447 2.61584C8.15758 4.9168 4.67019 8.58834 2.48464 13.1042C0 18.2381 0 24.9587 0 38.4V238.6C0 252.041 0 258.762 2.48464 263.896C4.67019 268.412 8.15758 272.083 12.447 274.384C17.3233 277 23.7069 277 36.474 277H428.003C428.003 271.477 432.256 267 437.502 267C442.747 267 447 271.477 447 277H614.513C627.28 277 633.664 277 638.54 274.384C642.829 272.083 646.317 268.412 648.502 263.896C650.987 258.762 650.987 252.041 650.987 238.6V38.4C650.987 24.9587 650.987 18.2381 648.502 13.1042C646.317 8.58834 642.829 4.9168 638.54 2.61584C633.664 0 627.28 0 614.513 0L447 0Z" fill="#F5F2EE" fill-opacity="0.19"/>
<path d="M446.154 0C446.154 5.52285 442.503 10 438 10V267C442.503 267 446.154 271.477 446.154 277H618.689C629.649 277 635.129 277 639.315 274.384C642.997 272.083 645.991 268.412 647.867 263.896C650 258.762 650 252.041 650 238.6V38.4C650 24.9587 650 18.2381 647.867 13.1042C645.991 8.58834 642.997 4.9168 639.315 2.61584C635.129 0 629.649 0 618.689 0H446.154Z" fill="#0D99FE"/>
<path d="M21.248 74.9844H34.64C41.024 74.9844 44.192 77.6724 44.192 83.0004C44.192 86.6964 42.56 89.0004 39.248 89.9124C43.52 90.8724 45.68 93.4164 45.68 97.5924C45.68 101.048 43.952 103.976 41.024 105.704C39.44 106.568 37.328 107 34.784 107H21.248V74.9844ZM34.448 103.304C36.656 103.304 38.288 102.92 39.296 102.152C40.592 101.144 41.312 99.5604 41.312 97.6884C41.312 93.8964 39.008 91.9764 34.448 91.9764H25.52V103.304H34.448ZM34.448 88.5204C36.224 88.5204 37.28 88.2804 38.192 87.5604C39.296 86.7444 39.92 85.3524 39.92 83.6724C39.92 82.1364 39.344 80.5044 38.432 79.7364C37.52 78.9684 36.368 78.6804 34.448 78.6804H25.52V88.5204H34.448Z" fill="#F5F2EE"/>
<path d="M70.106 107.144C68.426 107.288 68.042 107.336 67.322 107.336C64.874 107.336 63.914 106.136 63.77 103.592C62.474 105.272 61.802 105.896 60.794 106.52C59.402 107.288 57.53 107.72 55.754 107.72C51.002 107.72 48.026 105.08 48.026 100.856C48.026 97.9764 49.466 95.6244 51.818 94.5204C53.018 93.9924 54.17 93.7524 58.538 93.1284C62.906 92.6004 63.53 92.1204 63.53 90.3924C63.53 87.6564 61.802 86.3124 58.346 86.3124C54.698 86.3124 52.97 87.6564 52.634 90.6804H48.506C48.89 85.6884 52.538 82.8564 58.538 82.8564C64.106 82.8564 67.418 85.4484 67.418 89.6724V102.2C67.418 103.688 67.898 104.168 69.002 104.168C69.338 104.168 69.53 104.168 70.106 104.024V107.144ZM63.434 95.1444C61.562 95.7684 60.6981 96.0564 57.626 96.4404C53.738 97.0164 52.106 98.2644 52.106 100.712C52.106 103.064 53.69 104.456 56.522 104.456C58.586 104.456 60.41 103.688 61.994 102.2C63.098 101.048 63.434 100.376 63.434 98.9844V95.1444Z" fill="#F5F2EE"/>
<path d="M92.6451 98.6004C92.3091 104.408 88.8531 107.912 83.4291 107.912C79.2051 107.912 75.7491 106.088 73.973 102.824C72.869 100.952 72.245 98.1684 72.245 95.7204C72.245 91.7364 73.061 89.0004 74.933 86.5524C76.949 84.0084 79.685 82.7124 83.093 82.7124C88.709 82.7124 92.1171 85.7364 92.453 91.0644H88.229C87.8931 87.9924 86.1171 86.3124 83.093 86.3124C80.741 86.3124 78.677 87.5124 77.573 89.4804C76.757 90.8724 76.373 93.0324 76.373 95.8644C76.373 101 78.917 104.216 83.093 104.216C86.3091 104.216 88.133 102.344 88.5171 98.6004H92.6451Z" fill="#F5F2EE"/>
<path d="M95.3949 74.9844H99.2829V93.5604L109.171 83.5764H114.403L105.475 92.2164L114.595 107H109.843L102.499 95.0964L99.2829 98.2164V107H95.3949V74.9844Z" fill="#F5F2EE"/>
<path d="M134.858 99.3684C134.714 101.432 133.946 103.208 132.554 104.792C130.874 106.76 128.042 107.864 124.634 107.864C117.962 107.864 113.786 103.208 113.786 95.6724C113.786 91.8324 114.602 89.0964 116.282 86.8404C118.25 84.1524 121.178 82.7604 124.634 82.7604C128.618 82.7604 131.642 84.4884 133.418 87.7524C134.522 89.8164 135.098 92.1204 135.098 94.5684V96.4404H118.058C118.202 98.8884 118.586 100.328 119.546 101.672C120.65 103.352 122.618 104.312 124.778 104.312C126.65 104.312 128.282 103.688 129.242 102.392C129.962 101.672 130.154 100.904 130.538 99.3684H134.858ZM130.874 93.2244C130.682 89.0004 128.186 86.3124 124.49 86.3124C120.794 86.3124 118.394 89.0004 118.058 93.2244H130.874Z" fill="#F5F2EE"/>
<path d="M142.231 86.6484C143.335 85.3524 143.719 85.0164 144.247 84.5844C145.543 83.5764 147.367 82.9524 149.431 82.9524C152.503 82.9524 155.047 84.2004 156.247 86.2644C156.871 87.3684 157.159 88.7604 157.159 90.3444V107H153.271V91.7844C153.271 88.3284 151.543 86.5044 148.423 86.5044C144.631 86.5044 142.183 89.2404 142.183 93.4644V107H138.295V83.5764H142.231V86.6484Z" fill="#F5F2EE"/>
<path d="M180.888 107H176.856V104.312C174.984 106.952 173.208 107.816 170.136 107.816C163.992 107.816 160.248 103.16 160.248 95.6244C160.248 91.3524 160.968 88.4724 162.648 86.2164C164.376 83.9124 167.016 82.6644 170.136 82.6644C173.064 82.6644 175.032 83.6244 177 85.9764V74.9844H180.888V107ZM170.808 86.0724C166.824 86.0724 164.472 89.4804 164.472 95.0484C164.472 101.048 166.776 104.408 170.808 104.408C174.792 104.408 177.144 100.952 177.144 95.3364C177.144 92.6484 176.52 90.0564 175.56 88.5684C174.6 87.0804 172.68 86.0724 170.808 86.0724Z" fill="#F5F2EE"/>
<path d="M205.072 74.9844H208.24L195.616 107H192.4L205.072 74.9844Z" fill="#F5F2EE"/>
<path d="M219.811 74.9844H241.987V78.6804H224.131V88.6644H239.827V92.3604H224.035V107H219.811V74.9844Z" fill="#F5F2EE"/>
<path d="M242.479 83.5764H246.463V87.3204C248.191 84.2484 249.871 83.0964 252.319 83.0964H253.903V87.3204H252.655C250.207 87.3204 248.479 88.2324 247.375 90.1044C246.847 91.0164 246.367 93.0324 246.367 94.3284V107H242.479V83.5764Z" fill="#F5F2EE"/>
<path d="M265.156 82.6164C271.684 82.6164 275.908 87.5604 275.908 95.2404C275.908 102.968 271.636 107.864 264.964 107.864C258.58 107.864 254.308 102.92 254.308 95.4324C254.308 87.8964 258.772 82.6164 265.156 82.6164ZM265.108 86.3124C260.932 86.3124 258.532 89.6244 258.532 95.2404C258.532 101 260.884 104.312 265.06 104.312C269.284 104.312 271.684 101 271.684 95.2884C271.684 89.5764 269.284 86.3124 265.108 86.3124Z" fill="#F5F2EE"/>
<path d="M282.94 86.6484C284.044 85.3524 284.428 85.0164 284.956 84.5844C286.252 83.5764 288.076 82.9524 290.14 82.9524C293.212 82.9524 295.756 84.2004 296.956 86.2644C297.58 87.3684 297.868 88.7604 297.868 90.3444V107H293.98V91.7844C293.98 88.3284 292.252 86.5044 289.132 86.5044C285.34 86.5044 282.892 89.2404 282.892 93.4644V107H279.004V83.5764H282.94V86.6484Z" fill="#F5F2EE"/>
<path d="M300.574 83.4324H303.79V77.4324H307.678V83.4324H311.47V86.5524H307.822V100.808C307.822 103.304 308.206 103.736 310.366 103.736C310.558 103.736 310.99 103.688 311.614 103.688V106.856C309.886 107 309.31 107.048 308.686 107.048C305.23 107.048 303.79 105.608 303.79 102.104V86.5524H300.574V83.4324Z" fill="#F5F2EE"/>
<path d="M333.448 99.3684C333.304 101.432 332.536 103.208 331.144 104.792C329.464 106.76 326.632 107.864 323.224 107.864C316.552 107.864 312.376 103.208 312.376 95.6724C312.376 91.8324 313.192 89.0964 314.872 86.8404C316.84 84.1524 319.768 82.7604 323.224 82.7604C327.208 82.7604 330.232 84.4884 332.008 87.7524C333.112 89.8164 333.688 92.1204 333.688 94.5684V96.4404H316.648C316.792 98.8884 317.176 100.328 318.136 101.672C319.24 103.352 321.208 104.312 323.368 104.312C325.24 104.312 326.872 103.688 327.832 102.392C328.552 101.672 328.744 100.904 329.128 99.3684H333.448ZM329.464 93.2244C329.272 89.0004 326.776 86.3124 323.08 86.3124C319.384 86.3124 316.984 89.0004 316.648 93.2244H329.464Z" fill="#F5F2EE"/>
<path d="M340.822 86.6484C341.926 85.3524 342.31 85.0164 342.838 84.5844C344.134 83.5764 345.958 82.9524 348.022 82.9524C351.094 82.9524 353.638 84.2004 354.838 86.2644C355.462 87.3684 355.75 88.7604 355.75 90.3444V107H351.862V91.7844C351.862 88.3284 350.134 86.5044 347.014 86.5044C343.222 86.5044 340.774 89.2404 340.774 93.4644V107H336.886V83.5764H340.822V86.6484Z" fill="#F5F2EE"/>
<path d="M379.479 107H375.447V104.312C373.575 106.952 371.799 107.816 368.727 107.816C362.583 107.816 358.839 103.16 358.839 95.6244C358.839 91.3524 359.559 88.4724 361.239 86.2164C362.967 83.9124 365.607 82.6644 368.727 82.6644C371.655 82.6644 373.623 83.6244 375.591 85.9764V74.9844H379.479V107ZM369.399 86.0724C365.415 86.0724 363.063 89.4804 363.063 95.0484C363.063 101.048 365.367 104.408 369.399 104.408C373.383 104.408 375.735 100.952 375.735 95.3364C375.735 92.6484 375.111 90.0564 374.151 88.5684C373.191 87.0804 371.271 86.0724 369.399 86.0724Z" fill="#F5F2EE"/>
<path d="M469.392 76.0871C475.776 76.6151 479.376 79.8791 479.424 85.3031V85.7831H475.536C475.2 81.7991 473.472 80.1191 469.392 79.5911V89.7671C477.072 91.0631 480.336 93.6551 480.336 98.5031C480.336 102.103 478.416 105.031 475.152 106.519C473.568 107.239 471.648 107.671 469.392 107.767V111.031H467.424V107.815C460.512 107.575 456.432 103.831 456.432 97.7351V97.3031H460.224C460.608 100.375 461.184 101.719 462.72 102.727C464.016 103.639 465.36 103.975 467.424 104.311V93.4151C463.68 92.6471 461.136 91.7351 459.744 90.6311C458.16 89.3351 457.392 87.5111 457.392 85.1111C457.392 81.8471 459.024 78.9671 461.712 77.4791C463.2 76.7111 465.12 76.2311 467.376 76.0871V72.8711H469.392V76.0871ZM469.392 104.311C473.616 104.071 476.304 102.103 476.304 99.0311C476.304 97.5431 475.584 96.2471 474.48 95.5271C473.664 94.9991 471.696 94.3751 469.392 93.7991V104.311ZM467.376 79.5431C463.584 79.8791 461.376 81.7031 461.376 84.7271C461.376 87.3191 462.576 88.0391 467.424 89.3351L467.376 79.5431Z" fill="#1A1A1A"/>
<path d="M482.333 95.6231L496.589 75.6551H499.949V95.9591H504.557V99.4151H499.949V106.999H496.013V99.4151H482.333V95.6231ZM495.917 95.9591V81.6551L485.885 95.9591H495.917Z" fill="#1A1A1A"/>
<path d="M506.744 111.655C508.472 111.271 508.904 110.167 509.048 106.999H506.744V102.343H511.256V106.999C511.256 111.175 509.816 113.143 506.744 113.575V111.655Z" fill="#1A1A1A"/>
<path d="M538.191 90.0071C540.159 90.6311 540.927 91.1111 541.839 92.0231C543.327 93.5111 544.095 95.7191 544.095 98.2151C544.095 103.879 539.967 107.479 533.391 107.479C526.815 107.479 522.831 103.927 522.831 98.1671C522.831 93.7511 524.943 90.8231 528.927 90.0071C527.343 89.6711 526.479 89.2871 525.567 88.1831C524.463 86.8871 523.887 85.3031 523.887 83.3351C523.887 78.3911 527.583 75.1751 533.439 75.1751C539.247 75.1751 543.039 78.3431 543.039 83.3351C543.039 86.6471 541.407 88.9031 538.191 90.0071ZM533.487 91.8791C529.791 91.8791 527.055 94.4231 527.055 97.8791C527.055 101.335 529.791 103.927 533.487 103.927C537.039 103.927 539.823 101.335 539.823 97.8791C539.823 94.3751 537.183 91.8791 533.487 91.8791ZM533.439 78.8711C529.983 78.8711 528.015 80.6471 528.015 83.7191C528.015 86.7431 530.079 88.5191 533.391 88.5191C536.799 88.5191 538.815 86.7431 538.815 83.6711C538.815 80.6471 536.751 78.8711 533.439 78.8711Z" fill="#1A1A1A"/>
<path d="M561.938 90.0071C563.906 90.6311 564.674 91.1111 565.586 92.0231C567.074 93.5111 567.842 95.7191 567.842 98.2151C567.842 103.879 563.714 107.479 557.138 107.479C550.562 107.479 546.578 103.927 546.578 98.1671C546.578 93.7511 548.69 90.8231 552.674 90.0071C551.09 89.6711 550.226 89.2871 549.314 88.1831C548.21 86.8871 547.634 85.3031 547.634 83.3351C547.634 78.3911 551.33 75.1751 557.186 75.1751C562.994 75.1751 566.786 78.3431 566.786 83.3351C566.786 86.6471 565.154 88.9031 561.938 90.0071ZM557.234 91.8791C553.538 91.8791 550.802 94.4231 550.802 97.8791C550.802 101.335 553.538 103.927 557.234 103.927C560.786 103.927 563.57 101.335 563.57 97.8791C563.57 94.3751 560.93 91.8791 557.234 91.8791ZM557.186 78.8711C553.73 78.8711 551.762 80.6471 551.762 83.7191C551.762 86.7431 553.826 88.5191 557.138 88.5191C560.546 88.5191 562.562 86.7431 562.562 83.6711C562.562 80.6471 560.498 78.8711 557.186 78.8711Z" fill="#1A1A1A"/>
<path d="M581.077 75.2231C584.773 75.2231 587.797 77.0471 589.669 80.3111C590.965 82.6151 591.733 87.0311 591.733 91.4951C591.733 102.007 588.085 107.527 581.029 107.527C577.237 107.527 574.309 105.751 572.437 102.439C571.141 100.135 570.373 95.7671 570.373 91.3511C570.373 80.7911 574.021 75.2231 581.077 75.2231ZM581.125 78.7271C576.757 78.7271 574.597 82.9031 574.597 91.2071C574.597 96.0071 575.269 99.4631 576.421 101.335C577.621 103.111 579.157 104.023 581.029 104.023C585.349 104.023 587.509 99.8471 587.509 91.4951C587.509 86.4551 586.789 82.8551 585.397 81.0791C584.197 79.4951 582.757 78.7271 581.125 78.7271Z" fill="#1A1A1A"/>
<path d="M460.224 201.791C460.848 203.903 461.136 204.431 461.76 205.055C462.96 206.207 464.736 206.879 466.608 206.879C470.64 206.879 473.472 204.047 473.472 199.919C473.472 195.839 470.64 192.863 466.8 192.863C464.352 192.863 462.72 193.631 460.656 195.887H457.248L459.792 179.135H475.824V182.831H462.672L461.28 191.711C464.16 189.647 465.312 189.167 467.856 189.167C473.664 189.167 477.696 193.487 477.696 199.487C477.696 205.871 473.088 210.479 466.704 210.479C462.864 210.479 459.456 208.847 457.728 206.303C456.768 204.911 456.48 203.759 456.336 201.791H460.224Z" fill="#1A1A1A"/>
<path d="M479.895 184.703C482.823 184.463 484.215 184.079 485.319 183.503C487.047 182.543 487.815 181.151 488.199 178.607H491.127V209.999H487.239V187.631H479.895V184.703Z" fill="#1A1A1A"/>
<path d="M457.248 225.983H461.472V239.183H478.224V225.983H482.448V257.999H478.224V242.975H461.472V257.999H457.248V225.983Z" fill="#1A1A1A"/>
<path d="M496.471 233.615C502.999 233.615 507.223 238.559 507.223 246.239C507.223 253.967 502.951 258.863 496.279 258.863C489.895 258.863 485.623 253.919 485.623 246.431C485.623 238.895 490.087 233.615 496.471 233.615ZM496.423 237.311C492.247 237.311 489.847 240.623 489.847 246.239C489.847 251.999 492.199 255.311 496.375 255.311C500.599 255.311 502.999 251.999 502.999 246.287C502.999 240.575 500.599 237.311 496.423 237.311Z" fill="#1A1A1A"/>
<path d="M525.056 254.879C523.952 256.223 523.616 256.559 523.088 256.991C521.792 257.999 519.968 258.623 517.904 258.623C514.832 258.623 512.288 257.375 511.088 255.311C510.464 254.207 510.176 252.815 510.176 251.231V234.575H514.064V249.791C514.064 253.199 515.792 255.071 518.912 255.071C522.608 255.071 525.152 252.335 525.152 248.111V234.575H529.04V257.999H525.056V254.879Z" fill="#1A1A1A"/>
<path d="M532.801 234.575H536.785V238.319C538.513 235.247 540.193 234.095 542.641 234.095H544.225V238.319H542.977C540.529 238.319 538.801 239.231 537.697 241.103C537.169 242.015 536.689 244.031 536.689 245.327V257.999H532.801V234.575Z" fill="#1A1A1A"/>
<path d="M559.967 241.199C559.823 239.711 559.727 239.231 559.199 238.607C558.383 237.695 556.847 237.215 554.639 237.215C551.951 237.215 550.031 238.559 550.031 240.623C550.031 241.343 550.367 241.919 550.895 242.255C551.231 242.495 551.663 242.639 552.239 242.831L555.743 243.743C558.479 244.463 560.543 245.039 561.359 245.423C563.615 246.527 564.719 248.351 564.719 250.847C564.719 255.695 560.831 258.863 554.927 258.863C548.591 258.863 545.183 255.839 545.183 250.415H549.215C549.263 252.143 549.455 252.863 550.175 253.583C551.135 254.543 553.103 255.167 555.359 255.167C558.431 255.167 560.495 253.775 560.495 251.519C560.495 250.319 559.823 249.455 558.527 248.927C558.095 248.735 557.711 248.639 556.415 248.303C555.647 248.063 554.591 247.871 553.679 247.631C550.463 246.863 548.975 246.287 547.823 245.375C546.527 244.415 545.903 242.783 545.903 241.055C545.903 239.183 546.623 237.503 548.015 236.159C549.695 234.479 551.807 233.711 554.927 233.711C560.639 233.711 564.095 236.591 564.095 241.199H559.967Z" fill="#1A1A1A"/>
<g opacity="0.5">
<path d="M20.5459 121.993H30.2479V123.61H22.4359V127.978H29.3029V129.595H22.3939V136H20.5459V121.993Z" fill="white"/>
<path d="M37.1156 134.635C36.6326 135.223 36.4856 135.37 36.2546 135.559C35.6876 136 34.8896 136.273 33.9866 136.273C32.6426 136.273 31.5296 135.727 31.0046 134.824C30.7316 134.341 30.6056 133.732 30.6056 133.039V125.752H32.3066V132.409C32.3066 133.9 33.0626 134.719 34.4276 134.719C36.0446 134.719 37.1576 133.522 37.1576 131.674V125.752H38.8586V136H37.1156V134.635Z" fill="white"/>
<path d="M40.5041 121.993H42.2051V136H40.5041V121.993Z" fill="white"/>
<path d="M43.7977 121.993H45.4987V136H43.7977V121.993Z" fill="white"/>
<path d="M59.4835 126.172C59.4205 125.353 59.2105 124.702 58.8535 124.24C58.3495 123.631 57.2575 123.232 56.0815 123.232C54.1495 123.232 52.9315 124.177 52.9315 125.668C52.9315 127.117 53.5615 127.579 56.6485 128.251C57.5935 128.482 58.3075 128.608 58.7905 128.755C60.7015 129.259 61.6675 130.351 61.6675 132.052C61.6675 133.165 61.1635 134.362 60.4285 135.034C59.4415 135.937 57.9295 136.378 55.8925 136.378C52.5955 136.378 50.6215 134.53 50.6215 131.485H52.3855C52.5325 132.766 52.7425 133.354 53.3095 133.837C53.9815 134.404 55.0945 134.761 56.3335 134.761C58.4125 134.761 59.8195 133.753 59.8195 132.304C59.8195 131.548 59.5675 131.002 59.0425 130.666C58.5595 130.33 57.7405 130.078 56.0815 129.721C55.1365 129.511 54.4225 129.343 53.9395 129.217C52.8265 128.902 51.9025 128.377 51.4825 127.642C51.2095 127.138 51.0835 126.655 51.0835 125.836C51.0835 124.723 51.5665 123.589 52.3225 122.854C53.1625 122.035 54.5065 121.615 56.1025 121.615C58.4335 121.615 60.1765 122.56 60.9115 124.156C61.1425 124.723 61.2685 125.311 61.2895 126.172H59.4835Z" fill="white"/>
<path d="M62.1182 125.689H63.5252V123.064H65.2262V125.689H66.8852V127.054H65.2892V133.291C65.2892 134.383 65.4572 134.572 66.4022 134.572C66.4862 134.572 66.6752 134.551 66.9482 134.551V135.937C66.1922 136 65.9402 136.021 65.6672 136.021C64.1552 136.021 63.5252 135.391 63.5252 133.858V127.054H62.1182V125.689Z" fill="white"/>
<path d="M77.3096 136.063C76.5746 136.126 76.4066 136.147 76.0916 136.147C75.0206 136.147 74.6006 135.622 74.5376 134.509C73.9706 135.244 73.6766 135.517 73.2356 135.79C72.6266 136.126 71.8076 136.315 71.0306 136.315C68.9516 136.315 67.6496 135.16 67.6496 133.312C67.6496 132.052 68.2796 131.023 69.3086 130.54C69.8336 130.309 70.3376 130.204 72.2486 129.931C74.1596 129.7 74.4326 129.49 74.4326 128.734C74.4326 127.537 73.6766 126.949 72.1646 126.949C70.5686 126.949 69.8126 127.537 69.6656 128.86H67.8596C68.0276 126.676 69.6236 125.437 72.2486 125.437C74.6846 125.437 76.1336 126.571 76.1336 128.419V133.9C76.1336 134.551 76.3436 134.761 76.8266 134.761C76.9736 134.761 77.0576 134.761 77.3096 134.698V136.063ZM74.3906 130.813C73.5716 131.086 73.1936 131.212 71.8496 131.38C70.1486 131.632 69.4346 132.178 69.4346 133.249C69.4346 134.278 70.1276 134.887 71.3666 134.887C72.2696 134.887 73.0676 134.551 73.7606 133.9C74.2436 133.396 74.3906 133.102 74.3906 132.493V130.813Z" fill="white"/>
<path d="M87.1704 132.325C87.0234 134.866 85.5114 136.399 83.1384 136.399C81.2904 136.399 79.7784 135.601 79.0014 134.173C78.5184 133.354 78.2454 132.136 78.2454 131.065C78.2454 129.322 78.6024 128.125 79.4214 127.054C80.3034 125.941 81.5004 125.374 82.9914 125.374C85.4484 125.374 86.9394 126.697 87.0864 129.028H85.2384C85.0914 127.684 84.3144 126.949 82.9914 126.949C81.9624 126.949 81.0594 127.474 80.5764 128.335C80.2194 128.944 80.0514 129.889 80.0514 131.128C80.0514 133.375 81.1644 134.782 82.9914 134.782C84.3984 134.782 85.1964 133.963 85.3644 132.325H87.1704Z" fill="white"/>
<path d="M88.3734 121.993H90.0744V130.12L94.4004 125.752H96.6894L92.7834 129.532L96.7734 136H94.6944L91.4814 130.792L90.0744 132.157V136H88.3734V121.993Z" fill="white"/>
<path d="M101.81 121.993H107.144C108.509 121.993 109.181 122.077 110.021 122.539C112.1 123.568 113.234 125.815 113.234 128.818C113.234 131.233 112.562 133.207 111.218 134.551C110.147 135.58 108.992 136 107.144 136H101.81V121.993ZM106.976 134.383C108.488 134.383 109.307 134.068 110 133.312C110.903 132.325 111.365 130.834 111.365 128.986C111.365 127.033 110.882 125.584 109.937 124.639C109.202 123.904 108.488 123.61 107.228 123.61H103.679V134.383H106.976Z" fill="white"/>
<path d="M123.628 132.661C123.565 133.564 123.229 134.341 122.62 135.034C121.885 135.895 120.646 136.378 119.155 136.378C116.236 136.378 114.409 134.341 114.409 131.044C114.409 129.364 114.766 128.167 115.501 127.18C116.362 126.004 117.643 125.395 119.155 125.395C120.898 125.395 122.221 126.151 122.998 127.579C123.481 128.482 123.733 129.49 123.733 130.561V131.38H116.278C116.341 132.451 116.509 133.081 116.929 133.669C117.412 134.404 118.273 134.824 119.218 134.824C120.037 134.824 120.751 134.551 121.171 133.984C121.486 133.669 121.57 133.333 121.738 132.661H123.628ZM121.885 129.973C121.801 128.125 120.709 126.949 119.092 126.949C117.475 126.949 116.425 128.125 116.278 129.973H121.885Z" fill="white"/>
<path d="M125.924 125.752L128.633 133.984L131.426 125.752H133.337L129.452 136H127.667L124.013 125.752H125.924Z" fill="white"/>
<path d="M142.622 132.661C142.559 133.564 142.223 134.341 141.614 135.034C140.879 135.895 139.64 136.378 138.149 136.378C135.23 136.378 133.403 134.341 133.403 131.044C133.403 129.364 133.76 128.167 134.495 127.18C135.356 126.004 136.637 125.395 138.149 125.395C139.892 125.395 141.215 126.151 141.992 127.579C142.475 128.482 142.727 129.49 142.727 130.561V131.38H135.272C135.335 132.451 135.503 133.081 135.923 133.669C136.406 134.404 137.267 134.824 138.212 134.824C139.031 134.824 139.745 134.551 140.165 133.984C140.48 133.669 140.564 133.333 140.732 132.661H142.622ZM140.879 129.973C140.795 128.125 139.703 126.949 138.086 126.949C136.469 126.949 135.419 128.125 135.272 129.973H140.879Z" fill="white"/>
<path d="M144.126 121.993H145.827V136H144.126V121.993Z" fill="white"/>
<path d="M151.935 125.332C154.791 125.332 156.639 127.495 156.639 130.855C156.639 134.236 154.77 136.378 151.851 136.378C149.058 136.378 147.189 134.215 147.189 130.939C147.189 127.642 149.142 125.332 151.935 125.332ZM151.914 126.949C150.087 126.949 149.037 128.398 149.037 130.855C149.037 133.375 150.066 134.824 151.893 134.824C153.741 134.824 154.791 133.375 154.791 130.876C154.791 128.377 153.741 126.949 151.914 126.949Z" fill="white"/>
<path d="M157.993 125.752H159.736V126.907C160.576 125.752 161.332 125.374 162.697 125.374C165.364 125.374 167.023 127.453 167.023 130.729C167.023 132.598 166.687 133.837 165.952 134.824C165.196 135.853 164.041 136.378 162.676 136.378C161.395 136.378 160.534 135.979 159.694 134.95V139.759H157.993V125.752ZM162.382 126.865C160.639 126.865 159.61 128.356 159.61 130.855C159.61 132.031 159.883 133.123 160.303 133.795C160.723 134.446 161.563 134.887 162.382 134.887C164.083 134.887 165.154 133.396 165.154 130.96C165.154 128.335 164.146 126.865 162.382 126.865Z" fill="white"/>
<path d="M177.371 132.661C177.308 133.564 176.972 134.341 176.363 135.034C175.628 135.895 174.389 136.378 172.898 136.378C169.979 136.378 168.152 134.341 168.152 131.044C168.152 129.364 168.509 128.167 169.244 127.18C170.105 126.004 171.386 125.395 172.898 125.395C174.641 125.395 175.964 126.151 176.741 127.579C177.224 128.482 177.476 129.49 177.476 130.561V131.38H170.021C170.084 132.451 170.252 133.081 170.672 133.669C171.155 134.404 172.016 134.824 172.961 134.824C173.78 134.824 174.494 134.551 174.914 133.984C175.229 133.669 175.313 133.333 175.481 132.661H177.371ZM175.628 129.973C175.544 128.125 174.452 126.949 172.835 126.949C171.218 126.949 170.168 128.125 170.021 129.973H175.628Z" fill="white"/>
<path d="M178.874 125.752H180.617V127.39C181.373 126.046 182.108 125.542 183.179 125.542H183.872V127.39H183.326C182.255 127.39 181.499 127.789 181.016 128.608C180.785 129.007 180.575 129.889 180.575 130.456V136H178.874V125.752Z" fill="white"/>
</g>
<g opacity="0.5">
<path d="M464.127 132.408C464.127 134.844 462.573 136.335 460.032 136.335C457.68 136.335 456.147 134.823 456.147 132.534V131.421H457.911V132.177C457.911 132.807 458.163 133.668 458.436 134.004C458.772 134.403 459.36 134.655 460.095 134.655C461.523 134.655 462.279 133.815 462.279 132.219V121.992H464.127V132.408Z" fill="#191919"/>
<path d="M472.132 134.634C471.649 135.222 471.502 135.369 471.271 135.558C470.704 135.999 469.906 136.272 469.003 136.272C467.659 136.272 466.546 135.726 466.021 134.823C465.748 134.34 465.622 133.731 465.622 133.038V125.751H467.323V132.408C467.323 133.899 468.079 134.718 469.444 134.718C471.061 134.718 472.174 133.521 472.174 131.673V125.751H473.875V135.999H472.132V134.634Z" fill="#191919"/>
<path d="M477.242 127.095C477.725 126.528 477.893 126.381 478.124 126.192C478.691 125.751 479.489 125.478 480.392 125.478C481.736 125.478 482.849 126.024 483.374 126.927C483.647 127.41 483.773 128.019 483.773 128.712V135.999H482.072V129.342C482.072 127.83 481.316 127.032 479.951 127.032C478.292 127.032 477.221 128.229 477.221 130.077V135.999H475.52V125.751H477.242V127.095Z" fill="#191919"/>
<path d="M494.344 132.66C494.281 133.563 493.945 134.34 493.336 135.033C492.601 135.894 491.362 136.377 489.871 136.377C486.952 136.377 485.125 134.34 485.125 131.043C485.125 129.363 485.482 128.166 486.217 127.179C487.078 126.003 488.359 125.394 489.871 125.394C491.614 125.394 492.937 126.15 493.714 127.578C494.197 128.481 494.449 129.489 494.449 130.56V131.379H486.994C487.057 132.45 487.225 133.08 487.645 133.668C488.128 134.403 488.989 134.823 489.934 134.823C490.753 134.823 491.467 134.55 491.887 133.983C492.202 133.668 492.286 133.332 492.454 132.66H494.344ZM492.601 129.972C492.517 128.124 491.425 126.948 489.808 126.948C488.191 126.948 487.141 128.124 486.994 129.972H492.601Z" fill="#191919"/>
<path d="M499.336 135.894C499.336 133.962 499.966 132.534 501.331 131.358C501.835 130.938 502.444 130.476 502.927 130.224L503.41 129.951L503.872 129.699L504.334 129.426C505.951 128.565 506.833 127.431 506.833 126.255C506.833 125.583 506.518 124.806 506.077 124.386C505.636 123.966 504.964 123.714 504.145 123.714C503.305 123.714 502.528 124.071 502.045 124.68C501.646 125.184 501.457 125.856 501.373 127.095H499.609C499.693 125.331 499.966 124.449 500.617 123.672C501.457 122.685 502.759 122.097 504.271 122.097C506.896 122.097 508.702 123.777 508.702 126.213C508.702 127.536 508.219 128.628 507.253 129.447C506.854 129.804 506.287 130.182 505.804 130.455L505.258 130.749L504.733 131.043L504.187 131.337C502.171 132.408 501.604 133.101 501.373 134.34H508.66V135.999H499.336V135.894Z" fill="#191919"/>
<path d="M514.352 122.097C515.969 122.097 517.292 122.895 518.111 124.323C518.678 125.331 519.014 127.263 519.014 129.216C519.014 133.815 517.418 136.23 514.331 136.23C512.672 136.23 511.391 135.453 510.572 134.004C510.005 132.996 509.669 131.085 509.669 129.153C509.669 124.533 511.265 122.097 514.352 122.097ZM514.373 123.63C512.462 123.63 511.517 125.457 511.517 129.09C511.517 131.19 511.811 132.702 512.315 133.521C512.84 134.298 513.512 134.697 514.331 134.697C516.221 134.697 517.166 132.87 517.166 129.216C517.166 127.011 516.851 125.436 516.242 124.659C515.717 123.966 515.087 123.63 514.373 123.63Z" fill="#191919"/>
<path d="M519.95 135.894C519.95 133.962 520.58 132.534 521.945 131.358C522.449 130.938 523.058 130.476 523.541 130.224L524.024 129.951L524.486 129.699L524.948 129.426C526.565 128.565 527.447 127.431 527.447 126.255C527.447 125.583 527.132 124.806 526.691 124.386C526.25 123.966 525.578 123.714 524.759 123.714C523.919 123.714 523.142 124.071 522.659 124.68C522.26 125.184 522.071 125.856 521.987 127.095H520.223C520.307 125.331 520.58 124.449 521.231 123.672C522.071 122.685 523.373 122.097 524.885 122.097C527.51 122.097 529.316 123.777 529.316 126.213C529.316 127.536 528.833 128.628 527.867 129.447C527.468 129.804 526.901 130.182 526.418 130.455L525.872 130.749L525.347 131.043L524.801 131.337C522.785 132.408 522.218 133.101 521.987 134.34H529.274V135.999H519.95V135.894Z" fill="#191919"/>
<path d="M531.879 131.757C532.026 133.017 532.215 133.5 532.698 133.941C533.244 134.424 533.958 134.655 534.84 134.655C536.625 134.655 537.78 133.626 537.78 131.946C537.78 130.434 536.646 129.51 534.861 129.51C534.504 129.51 534.252 129.51 533.853 129.531V128.019C534.168 128.04 534.483 128.061 534.714 128.061C536.31 128.061 537.234 127.284 537.234 125.94C537.234 124.575 536.31 123.693 534.798 123.693C533.937 123.693 533.118 124.05 532.635 124.701C532.299 125.142 532.173 125.646 532.11 126.654H530.409V126.402C530.409 123.819 532.152 122.076 534.84 122.076C537.339 122.076 539.082 123.588 539.082 125.751C539.082 127.095 538.557 127.935 537.276 128.544C538.851 129.09 539.649 130.182 539.649 131.799C539.649 134.424 537.633 136.272 534.756 136.272C532.992 136.272 531.564 135.621 530.808 134.424C530.325 133.689 530.178 132.933 530.115 131.757H531.879Z" fill="#191919"/>
</g>
<path d="M36.032 236.007C38 236.631 38.768 237.111 39.68 238.023C41.168 239.511 41.936 241.719 41.936 244.215C41.936 249.879 37.808 253.479 31.232 253.479C24.656 253.479 20.672 249.927 20.672 244.167C20.672 239.751 22.784 236.823 26.768 236.007C25.184 235.671 24.32 235.287 23.408 234.183C22.304 232.887 21.728 231.303 21.728 229.335C21.728 224.391 25.424 221.175 31.28 221.175C37.088 221.175 40.88 224.343 40.88 229.335C40.88 232.647 39.248 234.903 36.032 236.007ZM31.328 237.879C27.632 237.879 24.896 240.423 24.896 243.879C24.896 247.335 27.632 249.927 31.328 249.927C34.88 249.927 37.664 247.335 37.664 243.879C37.664 240.375 35.024 237.879 31.328 237.879ZM31.28 224.871C27.824 224.871 25.856 226.647 25.856 229.719C25.856 232.743 27.92 234.519 31.232 234.519C34.64 234.519 36.656 232.743 36.656 229.671C36.656 226.647 34.592 224.871 31.28 224.871Z" fill="#F5F2EE"/>
<path d="M44.3709 236.991H46.3149V242.895C47.3949 241.551 48.4749 240.975 50.0109 240.975C51.4749 240.975 52.7949 241.623 53.3469 242.655C53.6589 243.207 53.8029 243.903 53.8029 244.671V252.999H51.8589V245.391C51.8589 243.663 51.0189 242.751 49.4829 242.751C47.5629 242.751 46.3149 244.095 46.3149 246.231V252.999H44.3709V236.991Z" fill="#F5F2EE"/>
<path d="M110.336 227.703C113.264 227.463 114.656 227.079 115.76 226.503C117.488 225.543 118.256 224.151 118.64 221.607H121.568V252.999H117.68V230.631H110.336V227.703Z" fill="#F5F2EE"/>
<path d="M124.895 222.087H146.255V225.543C143.951 228.375 142.847 229.767 140.879 232.887C138.815 236.151 137.423 238.983 136.127 242.583C135.119 245.511 134.495 247.863 133.343 252.999H129.167C130.223 247.575 130.895 245.031 132.143 241.767C134.303 235.863 137.327 231.159 141.935 225.927L124.895 225.879V222.087Z" fill="#F5F2EE"/>
<path d="M148.368 236.991H150.312V242.895C151.392 241.551 152.472 240.975 154.008 240.975C155.472 240.975 156.792 241.623 157.344 242.655C157.656 243.207 157.8 243.903 157.8 244.671V252.999H155.856V245.391C155.856 243.663 155.016 242.751 153.48 242.751C151.56 242.751 150.312 244.095 150.312 246.231V252.999H148.368V236.991Z" fill="#F5F2EE"/>
<path d="M204.336 227.703C207.264 227.463 208.656 227.079 209.76 226.503C211.488 225.543 212.256 224.151 212.64 221.607H215.568V252.999H211.68V230.631H204.336V227.703Z" fill="#F5F2EE"/>
<path d="M218.895 241.623L233.151 221.655H236.511V241.959H241.119V245.415H236.511V252.999H232.575V245.415H218.895V241.623ZM232.479 241.959V227.655L222.447 241.959H232.479Z" fill="#F5F2EE"/>
<path d="M243.258 236.991H245.202V242.895C246.282 241.551 247.362 240.975 248.898 240.975C250.362 240.975 251.682 241.623 252.234 242.655C252.546 243.207 252.69 243.903 252.69 244.671V252.999H250.746V245.391C250.746 243.663 249.906 242.751 248.37 242.751C246.45 242.751 245.202 244.095 245.202 246.231V252.999H243.258V236.991Z" fill="#F5F2EE"/>
<path d="M298.336 227.703C301.264 227.463 302.656 227.079 303.76 226.503C305.488 225.543 306.256 224.151 306.64 221.607H309.568V252.999H305.68V230.631H298.336V227.703Z" fill="#F5F2EE"/>
<path d="M312.799 252.759C312.799 248.343 314.239 245.079 317.359 242.391C318.511 241.431 319.903 240.375 321.007 239.799L322.111 239.175L323.167 238.599L324.223 237.975C327.919 236.007 329.935 233.415 329.935 230.727C329.935 229.191 329.215 227.415 328.207 226.455C327.199 225.495 325.663 224.919 323.791 224.919C321.871 224.919 320.095 225.735 318.991 227.127C318.079 228.279 317.647 229.815 317.455 232.647H313.423C313.615 228.615 314.239 226.599 315.727 224.823C317.647 222.567 320.623 221.223 324.079 221.223C330.079 221.223 334.207 225.063 334.207 230.631C334.207 233.655 333.103 236.151 330.895 238.023C329.983 238.839 328.687 239.703 327.583 240.327L326.335 240.999L325.135 241.671L323.887 242.343C319.279 244.791 317.983 246.375 317.455 249.207H334.111V252.999H312.799V252.759Z" fill="#F5F2EE"/>
<path d="M336.321 236.991H338.265V242.895C339.345 241.551 340.425 240.975 341.961 240.975C343.425 240.975 344.745 241.623 345.297 242.655C345.609 243.207 345.753 243.903 345.753 244.671V252.999H343.809V245.391C343.809 243.663 342.969 242.751 341.433 242.751C339.513 242.751 338.265 244.095 338.265 246.231V252.999H336.321V236.991Z" fill="#F5F2EE"/>
<path d="M22.037 182.992L24.83 194.563L27.749 182.992H29.933L33.041 194.563L35.729 182.992H37.619L33.965 196.999H31.928L28.82 185.26L25.838 196.999H23.759L20.063 182.992H22.037Z" fill="white"/>
<path d="M46.2602 193.66C46.1972 194.563 45.8612 195.34 45.2522 196.033C44.5172 196.894 43.2782 197.377 41.7872 197.377C38.8682 197.377 37.0412 195.34 37.0412 192.043C37.0412 190.363 37.3982 189.166 38.1332 188.179C38.9942 187.003 40.2752 186.394 41.7872 186.394C43.5302 186.394 44.8532 187.15 45.6302 188.578C46.1132 189.481 46.3652 190.489 46.3652 191.56V192.379H38.9102C38.9732 193.45 39.1412 194.08 39.5612 194.668C40.0442 195.403 40.9052 195.823 41.8502 195.823C42.6692 195.823 43.3832 195.55 43.8032 194.983C44.1182 194.668 44.2022 194.332 44.3702 193.66H46.2602ZM44.5172 190.972C44.4332 189.124 43.3412 187.948 41.7242 187.948C40.1072 187.948 39.0572 189.124 38.9102 190.972H44.5172Z" fill="white"/>
<path d="M56.752 193.66C56.689 194.563 56.353 195.34 55.744 196.033C55.009 196.894 53.77 197.377 52.279 197.377C49.36 197.377 47.533 195.34 47.533 192.043C47.533 190.363 47.89 189.166 48.625 188.179C49.486 187.003 50.767 186.394 52.279 186.394C54.022 186.394 55.345 187.15 56.122 188.578C56.605 189.481 56.857 190.489 56.857 191.56V192.379H49.402C49.465 193.45 49.633 194.08 50.053 194.668C50.536 195.403 51.397 195.823 52.342 195.823C53.161 195.823 53.875 195.55 54.295 194.983C54.61 194.668 54.694 194.332 54.862 193.66H56.752ZM55.009 190.972C54.925 189.124 53.833 187.948 52.216 187.948C50.599 187.948 49.549 189.124 49.402 190.972H55.009Z" fill="white"/>
<path d="M58.2558 182.992H59.9568V191.119L64.2828 186.751H66.5718L62.6658 190.531L66.6558 196.999H64.5768L61.3638 191.791L59.9568 193.156V196.999H58.2558V182.992Z" fill="white"/>
<path d="M71.2935 185.932C72.5745 185.827 73.1835 185.659 73.6665 185.407C74.4225 184.987 74.7585 184.378 74.9265 183.265H76.2075V196.999H74.5065V187.213H71.2935V185.932Z" fill="white"/>
<path d="M112.037 182.992L114.83 194.563L117.749 182.992H119.933L123.041 194.563L125.729 182.992H127.619L123.965 196.999H121.928L118.82 185.26L115.838 196.999H113.759L110.063 182.992H112.037Z" fill="white"/>
<path d="M136.26 193.66C136.197 194.563 135.861 195.34 135.252 196.033C134.517 196.894 133.278 197.377 131.787 197.377C128.868 197.377 127.041 195.34 127.041 192.043C127.041 190.363 127.398 189.166 128.133 188.179C128.994 187.003 130.275 186.394 131.787 186.394C133.53 186.394 134.853 187.15 135.63 188.578C136.113 189.481 136.365 190.489 136.365 191.56V192.379H128.91C128.973 193.45 129.141 194.08 129.561 194.668C130.044 195.403 130.905 195.823 131.85 195.823C132.669 195.823 133.383 195.55 133.803 194.983C134.118 194.668 134.202 194.332 134.37 193.66H136.26ZM134.517 190.972C134.433 189.124 133.341 187.948 131.724 187.948C130.107 187.948 129.057 189.124 128.91 190.972H134.517Z" fill="white"/>
<path d="M146.752 193.66C146.689 194.563 146.353 195.34 145.744 196.033C145.009 196.894 143.77 197.377 142.279 197.377C139.36 197.377 137.533 195.34 137.533 192.043C137.533 190.363 137.89 189.166 138.625 188.179C139.486 187.003 140.767 186.394 142.279 186.394C144.022 186.394 145.345 187.15 146.122 188.578C146.605 189.481 146.857 190.489 146.857 191.56V192.379H139.402C139.465 193.45 139.633 194.08 140.053 194.668C140.536 195.403 141.397 195.823 142.342 195.823C143.161 195.823 143.875 195.55 144.295 194.983C144.61 194.668 144.694 194.332 144.862 193.66H146.752ZM145.009 190.972C144.925 189.124 143.833 187.948 142.216 187.948C140.599 187.948 139.549 189.124 139.402 190.972H145.009Z" fill="white"/>
<path d="M148.256 182.992H149.957V191.119L154.283 186.751H156.572L152.666 190.531L156.656 196.999H154.577L151.364 191.791L149.957 193.156V196.999H148.256V182.992Z" fill="white"/>
<path d="M161.251 196.894C161.251 194.962 161.881 193.534 163.246 192.358C163.75 191.938 164.359 191.476 164.842 191.224L165.325 190.951L165.787 190.699L166.249 190.426C167.866 189.565 168.748 188.431 168.748 187.255C168.748 186.583 168.433 185.806 167.992 185.386C167.551 184.966 166.879 184.714 166.06 184.714C165.22 184.714 164.443 185.071 163.96 185.68C163.561 186.184 163.372 186.856 163.288 188.095H161.524C161.608 186.331 161.881 185.449 162.532 184.672C163.372 183.685 164.674 183.097 166.186 183.097C168.811 183.097 170.617 184.777 170.617 187.213C170.617 188.536 170.134 189.628 169.168 190.447C168.769 190.804 168.202 191.182 167.719 191.455L167.173 191.749L166.648 192.043L166.102 192.337C164.086 193.408 163.519 194.101 163.288 195.34H170.575V196.999H161.251V196.894Z" fill="white"/>
<path d="M206.037 182.992L208.83 194.563L211.749 182.992H213.933L217.041 194.563L219.729 182.992H221.619L217.965 196.999H215.928L212.82 185.26L209.838 196.999H207.759L204.063 182.992H206.037Z" fill="white"/>
<path d="M230.26 193.66C230.197 194.563 229.861 195.34 229.252 196.033C228.517 196.894 227.278 197.377 225.787 197.377C222.868 197.377 221.041 195.34 221.041 192.043C221.041 190.363 221.398 189.166 222.133 188.179C222.994 187.003 224.275 186.394 225.787 186.394C227.53 186.394 228.853 187.15 229.63 188.578C230.113 189.481 230.365 190.489 230.365 191.56V192.379H222.91C222.973 193.45 223.141 194.08 223.561 194.668C224.044 195.403 224.905 195.823 225.85 195.823C226.669 195.823 227.383 195.55 227.803 194.983C228.118 194.668 228.202 194.332 228.37 193.66H230.26ZM228.517 190.972C228.433 189.124 227.341 187.948 225.724 187.948C224.107 187.948 223.057 189.124 222.91 190.972H228.517Z" fill="white"/>
<path d="M240.752 193.66C240.689 194.563 240.353 195.34 239.744 196.033C239.009 196.894 237.77 197.377 236.279 197.377C233.36 197.377 231.533 195.34 231.533 192.043C231.533 190.363 231.89 189.166 232.625 188.179C233.486 187.003 234.767 186.394 236.279 186.394C238.022 186.394 239.345 187.15 240.122 188.578C240.605 189.481 240.857 190.489 240.857 191.56V192.379H233.402C233.465 193.45 233.633 194.08 234.053 194.668C234.536 195.403 235.397 195.823 236.342 195.823C237.161 195.823 237.875 195.55 238.295 194.983C238.61 194.668 238.694 194.332 238.862 193.66H240.752ZM239.009 190.972C238.925 189.124 237.833 187.948 236.216 187.948C234.599 187.948 233.549 189.124 233.402 190.972H239.009Z" fill="white"/>
<path d="M242.256 182.992H243.957V191.119L248.283 186.751H250.572L246.666 190.531L250.656 196.999H248.577L245.364 191.791L243.957 193.156V196.999H242.256V182.992Z" fill="white"/>
<path d="M257.057 192.757C257.204 194.017 257.393 194.5 257.876 194.941C258.422 195.424 259.136 195.655 260.018 195.655C261.803 195.655 262.958 194.626 262.958 192.946C262.958 191.434 261.824 190.51 260.039 190.51C259.682 190.51 259.43 190.51 259.031 190.531V189.019C259.346 189.04 259.661 189.061 259.892 189.061C261.488 189.061 262.412 188.284 262.412 186.94C262.412 185.575 261.488 184.693 259.976 184.693C259.115 184.693 258.296 185.05 257.813 185.701C257.477 186.142 257.351 186.646 257.288 187.654H255.587V187.402C255.587 184.819 257.33 183.076 260.018 183.076C262.517 183.076 264.26 184.588 264.26 186.751C264.26 188.095 263.735 188.935 262.454 189.544C264.029 190.09 264.827 191.182 264.827 192.799C264.827 195.424 262.811 197.272 259.934 197.272C258.17 197.272 256.742 196.621 255.986 195.424C255.503 194.689 255.356 193.933 255.293 192.757H257.057Z" fill="white"/>
<path d="M300.037 182.992L302.83 194.563L305.749 182.992H307.933L311.041 194.563L313.729 182.992H315.619L311.965 196.999H309.928L306.82 185.26L303.838 196.999H301.759L298.063 182.992H300.037Z" fill="white"/>
<path d="M324.26 193.66C324.197 194.563 323.861 195.34 323.252 196.033C322.517 196.894 321.278 197.377 319.787 197.377C316.868 197.377 315.041 195.34 315.041 192.043C315.041 190.363 315.398 189.166 316.133 188.179C316.994 187.003 318.275 186.394 319.787 186.394C321.53 186.394 322.853 187.15 323.63 188.578C324.113 189.481 324.365 190.489 324.365 191.56V192.379H316.91C316.973 193.45 317.141 194.08 317.561 194.668C318.044 195.403 318.905 195.823 319.85 195.823C320.669 195.823 321.383 195.55 321.803 194.983C322.118 194.668 322.202 194.332 322.37 193.66H324.26ZM322.517 190.972C322.433 189.124 321.341 187.948 319.724 187.948C318.107 187.948 317.057 189.124 316.91 190.972H322.517Z" fill="white"/>
<path d="M334.752 193.66C334.689 194.563 334.353 195.34 333.744 196.033C333.009 196.894 331.77 197.377 330.279 197.377C327.36 197.377 325.533 195.34 325.533 192.043C325.533 190.363 325.89 189.166 326.625 188.179C327.486 187.003 328.767 186.394 330.279 186.394C332.022 186.394 333.345 187.15 334.122 188.578C334.605 189.481 334.857 190.489 334.857 191.56V192.379H327.402C327.465 193.45 327.633 194.08 328.053 194.668C328.536 195.403 329.397 195.823 330.342 195.823C331.161 195.823 331.875 195.55 332.295 194.983C332.61 194.668 332.694 194.332 332.862 193.66H334.752ZM333.009 190.972C332.925 189.124 331.833 187.948 330.216 187.948C328.599 187.948 327.549 189.124 327.402 190.972H333.009Z" fill="white"/>
<path d="M336.256 182.992H337.957V191.119L342.283 186.751H344.572L340.666 190.531L344.656 196.999H342.577L339.364 191.791L337.957 193.156V196.999H336.256V182.992Z" fill="white"/>
<path d="M349.293 192.022L355.53 183.286H357V192.169H359.016V193.681H357V196.999H355.278V193.681H349.293V192.022ZM355.236 192.169V185.911L350.847 192.169H355.236Z" fill="white"/>
<rect x="14" y="14" width="117.477" height="40.1369" rx="20.0684" fill="#0D99FE"/>
<path d="M35.9687 36.6693C35.9687 38.5253 34.7847 39.6613 32.8487 39.6613C31.0567 39.6613 29.8887 38.5093 29.8887 36.7653V35.9173H31.2327V36.4933C31.2327 36.9733 31.4247 37.6293 31.6327 37.8853C31.8887 38.1893 32.3367 38.3813 32.8967 38.3813C33.9847 38.3813 34.5607 37.7413 34.5607 36.5253V28.7333H35.9687V36.6693Z" fill="#191919"/>
<path d="M45.3152 35.8533C45.3152 38.1893 43.6832 39.6773 41.1712 39.6773C39.6192 39.6773 38.3072 39.0853 37.5872 37.9973C37.2192 37.4373 37.0272 36.7173 37.0272 35.8533V28.7333H38.4352V35.5333C38.4352 37.3253 39.4592 38.3813 41.1712 38.3813C42.8992 38.3813 43.9072 37.3413 43.9072 35.5333V28.7333H45.3152V35.8533Z" fill="#191919"/>
<path d="M46.442 28.7333H48.25L53.482 37.4693V28.7333H54.89V39.4053H53.082L47.85 30.6693V39.4053H46.442V28.7333Z" fill="#191919"/>
<path d="M56.0433 28.7333H63.8033V29.9653H57.4673V33.2453H63.3233V34.4773H57.4673V38.1093H63.8993V39.4053H56.0433V28.7333Z" fill="#191919"/>
<path d="M74.1782 31.9173C74.1302 31.2933 73.9702 30.7973 73.6982 30.4453C73.3142 29.9813 72.4822 29.6773 71.5862 29.6773C70.1142 29.6773 69.1862 30.3973 69.1862 31.5333C69.1862 32.6373 69.6662 32.9893 72.0182 33.5013C72.7382 33.6773 73.2822 33.7733 73.6502 33.8853C75.1062 34.2693 75.8422 35.1013 75.8422 36.3973C75.8422 37.2453 75.4582 38.1573 74.8982 38.6693C74.1462 39.3573 72.9942 39.6933 71.4422 39.6933C68.9302 39.6933 67.4262 38.2853 67.4262 35.9653H68.7702C68.8822 36.9413 69.0422 37.3893 69.4742 37.7573C69.9862 38.1893 70.8342 38.4613 71.7782 38.4613C73.3622 38.4613 74.4342 37.6933 74.4342 36.5893C74.4342 36.0133 74.2422 35.5973 73.8422 35.3413C73.4742 35.0853 72.8502 34.8933 71.5862 34.6213C70.8662 34.4613 70.3222 34.3333 69.9542 34.2373C69.1062 33.9973 68.4022 33.5973 68.0822 33.0373C67.8742 32.6533 67.7782 32.2853 67.7782 31.6613C67.7782 30.8133 68.1462 29.9493 68.7222 29.3893C69.3622 28.7653 70.3862 28.4453 71.6022 28.4453C73.3782 28.4453 74.7062 29.1653 75.2662 30.3813C75.4422 30.8133 75.5382 31.2613 75.5542 31.9173H74.1782Z" fill="#191919"/>
<path d="M76.722 28.7333H81.138C83.298 28.7333 84.546 29.8533 84.546 31.7893C84.546 33.0053 84.034 33.9973 83.122 34.5093C82.626 34.7813 81.97 34.9253 81.154 34.9253H78.13V39.4053H76.722V28.7333ZM80.866 33.6933C81.586 33.6933 82.114 33.5653 82.45 33.2933C82.882 32.9253 83.122 32.3973 83.122 31.8053C83.122 31.1173 82.786 30.5253 82.258 30.2213C81.89 30.0293 81.506 29.9653 80.866 29.9653H78.162V33.6933H80.866Z" fill="#191919"/>
<path d="M85.4639 28.7333H90.5679C92.7279 28.7333 93.9759 29.8533 93.9759 31.7893C93.9759 33.0693 93.5119 33.7733 92.3599 34.2213C93.4959 34.5093 93.7199 35.0693 93.7679 37.1493C93.7679 38.4773 93.8159 38.5253 94.3279 39.2133V39.4053H92.5679C92.4239 38.8293 92.3599 38.3333 92.3599 37.5813C92.3119 35.2293 91.9759 34.8453 90.0879 34.8453H86.8719V39.4053H85.4639V28.7333ZM90.2639 33.6133C90.9999 33.6133 91.5279 33.4853 91.8479 33.2453C92.2799 32.9093 92.5199 32.3813 92.5199 31.7893C92.5199 31.1013 92.1839 30.5253 91.6559 30.2213C91.2879 30.0293 90.9199 29.9653 90.2639 29.9653H86.9039V33.6133H90.2639Z" fill="#191919"/>
<path d="M95.1277 28.7333H96.5357V39.4053H95.1277V28.7333Z" fill="#191919"/>
<path d="M97.6664 28.7333H99.4744L104.706 37.4693V28.7333H106.114V39.4053H104.306L99.0744 30.6693V39.4053H97.6664V28.7333Z" fill="#191919"/>
<path d="M111.988 39.4053H110.564V29.9653H106.964V28.7333H115.588V29.9653H111.988V39.4053Z" fill="#191919"/>
<rect x="456" y="14" width="76.852" height="39.813" rx="19.9065" fill="#191919"/>
<path d="M480.802 28.6036V30.1393H477.192V39.2111H475.498V30.1393H471.889V28.6036H480.802Z" fill="#F5F2EE"/>
<path d="M485.792 39.3694C482.768 39.3694 480.836 37.2163 480.836 33.9074C480.836 30.5985 482.768 28.4453 485.792 28.4453C488.8 28.4453 490.731 30.5985 490.731 33.9074C490.731 37.2163 488.8 39.3694 485.792 39.3694ZM485.792 37.7229C487.992 37.7229 488.911 36.6621 488.911 33.9074C488.911 31.1526 487.992 30.0918 485.792 30.0918C483.591 30.0918 482.657 31.1526 482.657 33.9074C482.657 36.6621 483.591 37.7229 485.792 37.7229Z" fill="#F5F2EE"/>
<path d="M499.68 28.6036V30.1393H496.07V39.2111H494.376V30.1393H490.767V28.6036H499.68Z" fill="#F5F2EE"/>
<path d="M507.039 39.2111L505.963 36.4563H501.039L499.962 39.2111H498.173L502.306 28.6036H504.76L508.892 39.2111H507.039ZM501.641 34.9206H505.361L504.253 32.1183L503.572 30.1552H503.445L502.749 32.1183L501.641 34.9206Z" fill="#F5F2EE"/>
<path d="M511.311 37.6754H516.963V39.2111H509.601V28.6036H511.311V37.6754Z" fill="#F5F2EE"/>
<g opacity="0.23">
<path d="M95 183H96V253H95V183Z" fill="#CEC9C2"/>
<path d="M189 183H190V253H189V183Z" fill="#CEC9C2"/>
<path d="M283 183H284V253H283V183Z" fill="#CEC9C2"/>
</g>
</g>
<defs>
<clipPath id="clip0_2750_2195">
<rect width="651" height="277" fill="white"/>
</clipPath>
</defs>
</svg>
