<svg width="651" height="277" viewBox="0 0 651 277" fill="none" xmlns="http://www.w3.org/2000/svg">
<g clip-path="url(#clip0_2748_2132)">
<path fill-rule="evenodd" clip-rule="evenodd" d="M447 0C447 5.52285 442.747 10 437.502 10C432.256 10 428.003 5.52285 428.003 0L36.474 0C23.7069 0 17.3233 -2.38419e-07 12.447 2.61584C8.15758 4.9168 4.67019 8.58834 2.48464 13.1042C0 18.2381 0 24.9587 0 38.4V238.6C0 252.041 0 258.762 2.48464 263.896C4.67019 268.412 8.15758 272.083 12.447 274.384C17.3233 277 23.7069 277 36.474 277H428.003C428.003 271.477 432.256 267 437.502 267C442.747 267 447 271.477 447 277H614.513C627.28 277 633.664 277 638.54 274.384C642.829 272.083 646.317 268.412 648.502 263.896C650.987 258.762 650.987 252.041 650.987 238.6V38.4C650.987 24.9587 650.987 18.2381 648.502 13.1042C646.317 8.58834 642.829 4.9168 638.54 2.61584C633.664 0 627.28 0 614.513 0L447 0Z" fill="#F5F2EE" fill-opacity="0.19"/>
<path d="M446.154 0C446.154 5.52285 442.503 10 438 10V267C442.503 267 446.154 271.477 446.154 277H618.689C629.649 277 635.129 277 639.315 274.384C642.997 272.083 645.991 268.412 647.867 263.896C650 258.762 650 252.041 650 238.6V38.4C650 24.9587 650 18.2381 647.867 13.1042C645.991 8.58834 642.997 4.9168 639.315 2.61584C635.129 0 629.649 0 618.689 0H446.154Z" fill="#FFD73B"/>
<path d="M21.248 74.9844H34.496C40.976 74.9844 44.72 78.3444 44.72 84.1524C44.72 87.8004 43.184 90.7764 40.448 92.3124C38.96 93.1284 36.992 93.5604 34.544 93.5604H25.472V107H21.248V74.9844ZM33.68 89.8644C35.84 89.8644 37.424 89.4804 38.432 88.6644C39.728 87.5604 40.448 85.9764 40.448 84.2004C40.448 82.1364 39.44 80.3604 37.856 79.4484C36.752 78.8724 35.6 78.6804 33.68 78.6804H25.568V89.8644H33.68Z" fill="#F5F2EE"/>
<path d="M47.7137 83.5764H51.6977V87.3204C53.4257 84.2484 55.1057 83.0964 57.5537 83.0964H59.1377V87.3204H57.8897C55.4417 87.3204 53.7137 88.2324 52.6097 90.1044C52.0817 91.0164 51.6017 93.0324 51.6017 94.3284V107H47.7137V83.5764Z" fill="#F5F2EE"/>
<path d="M70.3899 82.6164C76.9179 82.6164 81.1419 87.5604 81.1419 95.2404C81.1419 102.968 76.8699 107.864 70.1979 107.864C63.8139 107.864 59.5419 102.92 59.5419 95.4324C59.5419 87.8964 64.0059 82.6164 70.3899 82.6164ZM70.3419 86.3124C66.1659 86.3124 63.7659 89.6244 63.7659 95.2404C63.7659 101 66.1179 104.312 70.2939 104.312C74.5179 104.312 76.9179 101 76.9179 95.2884C76.9179 89.5764 74.5179 86.3124 70.3419 86.3124Z" fill="#F5F2EE"/>
<path d="M80.5427 113.048C80.9267 113.096 81.4067 113.144 81.6467 113.144C83.5187 113.144 84.2387 112.328 84.2387 110.072V83.5764H88.1267V110.696C88.1267 114.584 86.3507 116.504 82.8467 116.504C82.2227 116.504 81.8387 116.552 80.5427 116.408V113.048ZM84.2387 74.9844H88.1267V79.4484H84.2387V74.9844Z" fill="#F5F2EE"/>
<path d="M112.311 99.3684C112.167 101.432 111.399 103.208 110.007 104.792C108.327 106.76 105.495 107.864 102.087 107.864C95.4148 107.864 91.2388 103.208 91.2388 95.6724C91.2388 91.8324 92.0548 89.0964 93.7348 86.8404C95.7028 84.1524 98.6308 82.7604 102.087 82.7604C106.071 82.7604 109.095 84.4884 110.871 87.7524C111.975 89.8164 112.551 92.1204 112.551 94.5684V96.4404H95.5108C95.6548 98.8884 96.0388 100.328 96.9988 101.672C98.1028 103.352 100.071 104.312 102.231 104.312C104.103 104.312 105.735 103.688 106.695 102.392C107.415 101.672 107.607 100.904 107.991 99.3684H112.311ZM108.327 93.2244C108.135 89.0004 105.639 86.3124 101.943 86.3124C98.2468 86.3124 95.8468 89.0004 95.5108 93.2244H108.327Z" fill="#F5F2EE"/>
<path d="M135.62 98.6004C135.284 104.408 131.828 107.912 126.404 107.912C122.18 107.912 118.724 106.088 116.948 102.824C115.844 100.952 115.22 98.1684 115.22 95.7204C115.22 91.7364 116.036 89.0004 117.908 86.5524C119.924 84.0084 122.66 82.7124 126.068 82.7124C131.684 82.7124 135.092 85.7364 135.428 91.0644H131.204C130.868 87.9924 129.092 86.3124 126.068 86.3124C123.716 86.3124 121.652 87.5124 120.548 89.4804C119.732 90.8724 119.348 93.0324 119.348 95.8644C119.348 101 121.892 104.216 126.068 104.216C129.284 104.216 131.108 102.344 131.492 98.6004H135.62Z" fill="#F5F2EE"/>
<path d="M135.864 83.4324H139.08V77.4324H142.968V83.4324H146.76V86.5524H143.112V100.808C143.112 103.304 143.496 103.736 145.656 103.736C145.848 103.736 146.28 103.688 146.904 103.688V106.856C145.176 107 144.6 107.048 143.976 107.048C140.52 107.048 139.08 105.608 139.08 102.104V86.5524H135.864V83.4324Z" fill="#F5F2EE"/>
<path d="M169.765 74.9844H174.517L185.989 107H181.189L177.973 97.4004H165.637L162.037 107H157.525L169.765 74.9844ZM176.773 93.8964L172.021 80.1204L166.981 93.8964H176.773Z" fill="#F5F2EE"/>
<path d="M188.517 83.5764H192.501V87.3204C194.229 84.2484 195.909 83.0964 198.357 83.0964H199.941V87.3204H198.693C196.245 87.3204 194.517 88.2324 193.413 90.1044C192.885 91.0164 192.405 93.0324 192.405 94.3284V107H188.517V83.5764Z" fill="#F5F2EE"/>
<path d="M201.836 83.4324H205.052V77.4324H208.94V83.4324H212.732V86.5524H209.084V100.808C209.084 103.304 209.468 103.736 211.628 103.736C211.82 103.736 212.252 103.688 212.876 103.688V106.856C211.148 107 210.572 107.048 209.948 107.048C206.492 107.048 205.052 105.608 205.052 102.104V86.5524H201.836V83.4324Z" fill="#F5F2EE"/>
<path d="M215.044 91.6404H227.716V95.5284H215.044V91.6404Z" fill="#F5F2EE"/>
<path d="M230.836 74.9844H243.028C246.148 74.9844 247.684 75.1764 249.604 76.2324C254.356 78.5844 256.948 83.7204 256.948 90.5844C256.948 96.1044 255.412 100.616 252.34 103.688C249.892 106.04 247.252 107 243.028 107H230.836V74.9844ZM242.644 103.304C246.1 103.304 247.972 102.584 249.556 100.856C251.62 98.6004 252.676 95.1924 252.676 90.9684C252.676 86.5044 251.572 83.1924 249.412 81.0324C247.732 79.3524 246.1 78.6804 243.22 78.6804H235.108V103.304H242.644Z" fill="#F5F2EE"/>
<path d="M260.161 83.5764H264.049V107H260.161V83.5764ZM260.161 74.9844H264.049V79.4484H260.161V74.9844Z" fill="#F5F2EE"/>
<path d="M267.689 83.5764H271.673V87.3204C273.401 84.2484 275.081 83.0964 277.529 83.0964H279.113V87.3204H277.865C275.417 87.3204 273.689 88.2324 272.585 90.1044C272.057 91.0164 271.577 93.0324 271.577 94.3284V107H267.689V83.5764Z" fill="#F5F2EE"/>
<path d="M300.589 99.3684C300.445 101.432 299.677 103.208 298.285 104.792C296.605 106.76 293.773 107.864 290.365 107.864C283.693 107.864 279.517 103.208 279.517 95.6724C279.517 91.8324 280.333 89.0964 282.013 86.8404C283.981 84.1524 286.909 82.7604 290.365 82.7604C294.349 82.7604 297.373 84.4884 299.149 87.7524C300.253 89.8164 300.829 92.1204 300.829 94.5684V96.4404H283.789C283.933 98.8884 284.317 100.328 285.277 101.672C286.381 103.352 288.349 104.312 290.509 104.312C292.381 104.312 294.013 103.688 294.973 102.392C295.693 101.672 295.885 100.904 296.269 99.3684H300.589ZM296.605 93.2244C296.413 89.0004 293.917 86.3124 290.221 86.3124C286.525 86.3124 284.125 89.0004 283.789 93.2244H296.605Z" fill="#F5F2EE"/>
<path d="M323.898 98.6004C323.562 104.408 320.106 107.912 314.682 107.912C310.458 107.912 307.002 106.088 305.226 102.824C304.122 100.952 303.498 98.1684 303.498 95.7204C303.498 91.7364 304.314 89.0004 306.186 86.5524C308.202 84.0084 310.938 82.7124 314.346 82.7124C319.962 82.7124 323.37 85.7364 323.706 91.0644H319.482C319.146 87.9924 317.37 86.3124 314.346 86.3124C311.994 86.3124 309.93 87.5124 308.826 89.4804C308.01 90.8724 307.626 93.0324 307.626 95.8644C307.626 101 310.17 104.216 314.346 104.216C317.562 104.216 319.386 102.344 319.77 98.6004H323.898Z" fill="#F5F2EE"/>
<path d="M324.142 83.4324H327.358V77.4324H331.246V83.4324H335.038V86.5524H331.39V100.808C331.39 103.304 331.774 103.736 333.934 103.736C334.126 103.736 334.558 103.688 335.182 103.688V106.856C333.454 107 332.878 107.048 332.254 107.048C328.798 107.048 327.358 105.608 327.358 102.104V86.5524H324.142V83.4324Z" fill="#F5F2EE"/>
<path d="M337.926 83.5764H341.814V107H337.926V83.5764ZM337.926 74.9844H341.814V79.4484H337.926V74.9844Z" fill="#F5F2EE"/>
<path d="M355.774 82.6164C362.302 82.6164 366.526 87.5604 366.526 95.2404C366.526 102.968 362.254 107.864 355.582 107.864C349.198 107.864 344.926 102.92 344.926 95.4324C344.926 87.8964 349.39 82.6164 355.774 82.6164ZM355.726 86.3124C351.55 86.3124 349.15 89.6244 349.15 95.2404C349.15 101 351.502 104.312 355.678 104.312C359.902 104.312 362.302 101 362.302 95.2884C362.302 89.5764 359.902 86.3124 355.726 86.3124Z" fill="#F5F2EE"/>
<path d="M373.559 86.6484C374.663 85.3524 375.047 85.0164 375.575 84.5844C376.871 83.5764 378.695 82.9524 380.759 82.9524C383.831 82.9524 386.375 84.2004 387.575 86.2644C388.199 87.3684 388.487 88.7604 388.487 90.3444V107H384.599V91.7844C384.599 88.3284 382.871 86.5044 379.751 86.5044C375.959 86.5044 373.511 89.2404 373.511 93.4644V107H369.623V83.5764H373.559V86.6484Z" fill="#F5F2EE"/>
<path d="M469.392 76.0871C475.776 76.6151 479.376 79.8791 479.424 85.3031V85.7831H475.536C475.2 81.7991 473.472 80.1191 469.392 79.5911V89.7671C477.072 91.0631 480.336 93.6551 480.336 98.5031C480.336 102.103 478.416 105.031 475.152 106.519C473.568 107.239 471.648 107.671 469.392 107.767V111.031H467.424V107.815C460.512 107.575 456.432 103.831 456.432 97.7351V97.3031H460.224C460.608 100.375 461.184 101.719 462.72 102.727C464.016 103.639 465.36 103.975 467.424 104.311V93.4151C463.68 92.6471 461.136 91.7351 459.744 90.6311C458.16 89.3351 457.392 87.5111 457.392 85.1111C457.392 81.8471 459.024 78.9671 461.712 77.4791C463.2 76.7111 465.12 76.2311 467.376 76.0871V72.8711H469.392V76.0871ZM469.392 104.311C473.616 104.071 476.304 102.103 476.304 99.0311C476.304 97.5431 475.584 96.2471 474.48 95.5271C473.664 94.9991 471.696 94.3751 469.392 93.7991V104.311ZM467.376 79.5431C463.584 79.8791 461.376 81.7031 461.376 84.7271C461.376 87.3191 462.576 88.0391 467.424 89.3351L467.376 79.5431Z" fill="#1A1A1A"/>
<path d="M486.221 98.7911C486.845 100.903 487.133 101.431 487.757 102.055C488.957 103.207 490.733 103.879 492.605 103.879C496.637 103.879 499.469 101.047 499.469 96.9191C499.469 92.8391 496.637 89.8631 492.797 89.8631C490.349 89.8631 488.717 90.6311 486.653 92.8871H483.245L485.789 76.1351H501.821V79.8311H488.669L487.277 88.7111C490.157 86.6471 491.309 86.1671 493.853 86.1671C499.661 86.1671 503.693 90.4871 503.693 96.4871C503.693 102.871 499.085 107.479 492.701 107.479C488.861 107.479 485.453 105.847 483.725 103.303C482.765 101.911 482.477 100.759 482.333 98.7911H486.221Z" fill="#1A1A1A"/>
<path d="M506.228 111.655C507.956 111.271 508.388 110.167 508.532 106.999H506.228V102.343H510.74V106.999C510.74 111.175 509.3 113.143 506.228 113.575V111.655Z" fill="#1A1A1A"/>
<path d="M521.883 106.759C521.883 102.343 523.323 99.0791 526.443 96.3911C527.595 95.4311 528.987 94.3751 530.091 93.7991L531.195 93.1751L532.251 92.5991L533.307 91.9751C537.003 90.0071 539.019 87.4151 539.019 84.7271C539.019 83.1911 538.299 81.4151 537.291 80.4551C536.283 79.4951 534.747 78.9191 532.875 78.9191C530.955 78.9191 529.179 79.7351 528.075 81.1271C527.163 82.2791 526.731 83.8151 526.539 86.6471H522.507C522.699 82.6151 523.323 80.5991 524.811 78.8231C526.731 76.5671 529.707 75.2231 533.163 75.2231C539.163 75.2231 543.291 79.0631 543.291 84.6311C543.291 87.6551 542.187 90.1511 539.979 92.0231C539.067 92.8391 537.771 93.7031 536.667 94.3271L535.419 94.9991L534.219 95.6711L532.971 96.3431C528.363 98.7911 527.067 100.375 526.539 103.207H543.195V106.999H521.883V106.759Z" fill="#1A1A1A"/>
<path d="M556.205 75.2231C559.901 75.2231 562.925 77.0471 564.797 80.3111C566.093 82.6151 566.861 87.0311 566.861 91.4951C566.861 102.007 563.213 107.527 556.157 107.527C552.365 107.527 549.437 105.751 547.565 102.439C546.269 100.135 545.501 95.7671 545.501 91.3511C545.501 80.7911 549.149 75.2231 556.205 75.2231ZM556.253 78.7271C551.885 78.7271 549.725 82.9031 549.725 91.2071C549.725 96.0071 550.397 99.4631 551.549 101.335C552.749 103.111 554.285 104.023 556.157 104.023C560.477 104.023 562.637 99.8471 562.637 91.4951C562.637 86.4551 561.917 82.8551 560.525 81.0791C559.325 79.4951 557.885 78.7271 556.253 78.7271Z" fill="#1A1A1A"/>
<path d="M580.186 75.2231C583.882 75.2231 586.906 77.0471 588.778 80.3111C590.074 82.6151 590.842 87.0311 590.842 91.4951C590.842 102.007 587.194 107.527 580.138 107.527C576.346 107.527 573.418 105.751 571.546 102.439C570.25 100.135 569.482 95.7671 569.482 91.3511C569.482 80.7911 573.13 75.2231 580.186 75.2231ZM580.234 78.7271C575.866 78.7271 573.706 82.9031 573.706 91.2071C573.706 96.0071 574.378 99.4631 575.53 101.335C576.73 103.111 578.266 104.023 580.138 104.023C584.458 104.023 586.618 99.8471 586.618 91.4951C586.618 86.4551 585.898 82.8551 584.506 81.0791C583.306 79.4951 581.866 78.7271 580.234 78.7271Z" fill="#1A1A1A"/>
<path d="M460.224 201.792C460.848 203.904 461.136 204.432 461.76 205.056C462.96 206.208 464.736 206.88 466.608 206.88C470.64 206.88 473.472 204.048 473.472 199.92C473.472 195.84 470.64 192.864 466.8 192.864C464.352 192.864 462.72 193.632 460.656 195.888H457.248L459.792 179.136H475.824V182.832H462.672L461.28 191.712C464.16 189.648 465.312 189.168 467.856 189.168C473.664 189.168 477.696 193.488 477.696 199.488C477.696 205.872 473.088 210.48 466.704 210.48C462.864 210.48 459.456 208.848 457.728 206.304C456.768 204.912 456.48 203.76 456.336 201.792H460.224Z" fill="#1A1A1A"/>
<path d="M483.927 200.304C484.263 203.184 484.695 204.288 485.799 205.296C487.047 206.4 488.679 206.928 490.695 206.928C494.775 206.928 497.415 204.576 497.415 200.736C497.415 197.28 494.823 195.168 490.743 195.168C489.927 195.168 489.351 195.168 488.439 195.216V191.76C489.159 191.808 489.879 191.856 490.407 191.856C494.055 191.856 496.167 190.08 496.167 187.008C496.167 183.888 494.055 181.872 490.599 181.872C488.631 181.872 486.759 182.688 485.655 184.176C484.887 185.184 484.599 186.336 484.455 188.64H480.567V188.064C480.567 182.16 484.551 178.176 490.695 178.176C496.407 178.176 500.391 181.632 500.391 186.576C500.391 189.648 499.191 191.568 496.263 192.96C499.863 194.208 501.687 196.704 501.687 200.4C501.687 206.4 497.079 210.624 490.503 210.624C486.471 210.624 483.207 209.136 481.479 206.4C480.375 204.72 480.039 202.992 479.895 200.304H483.927Z" fill="#1A1A1A"/>
<path d="M457.248 225.984H461.472V239.184H478.224V225.984H482.448V258H478.224V242.976H461.472V258H457.248V225.984Z" fill="#1A1A1A"/>
<path d="M496.471 233.616C502.999 233.616 507.223 238.56 507.223 246.24C507.223 253.968 502.951 258.864 496.279 258.864C489.895 258.864 485.623 253.92 485.623 246.432C485.623 238.896 490.087 233.616 496.471 233.616ZM496.423 237.312C492.247 237.312 489.847 240.624 489.847 246.24C489.847 252 492.199 255.312 496.375 255.312C500.599 255.312 502.999 252 502.999 246.288C502.999 240.576 500.599 237.312 496.423 237.312Z" fill="#1A1A1A"/>
<path d="M525.056 254.88C523.952 256.224 523.616 256.56 523.088 256.992C521.792 258 519.968 258.624 517.904 258.624C514.832 258.624 512.288 257.376 511.088 255.312C510.464 254.208 510.176 252.816 510.176 251.232V234.576H514.064V249.792C514.064 253.2 515.792 255.072 518.912 255.072C522.608 255.072 525.152 252.336 525.152 248.112V234.576H529.04V258H525.056V254.88Z" fill="#1A1A1A"/>
<path d="M532.801 234.576H536.785V238.32C538.513 235.248 540.193 234.096 542.641 234.096H544.225V238.32H542.977C540.529 238.32 538.801 239.232 537.697 241.104C537.169 242.016 536.689 244.032 536.689 245.328V258H532.801V234.576Z" fill="#1A1A1A"/>
<path d="M559.967 241.2C559.823 239.712 559.727 239.232 559.199 238.608C558.383 237.696 556.847 237.216 554.639 237.216C551.951 237.216 550.031 238.56 550.031 240.624C550.031 241.344 550.367 241.92 550.895 242.256C551.231 242.496 551.663 242.64 552.239 242.832L555.743 243.744C558.479 244.464 560.543 245.04 561.359 245.424C563.615 246.528 564.719 248.352 564.719 250.848C564.719 255.696 560.831 258.864 554.927 258.864C548.591 258.864 545.183 255.84 545.183 250.416H549.215C549.263 252.144 549.455 252.864 550.175 253.584C551.135 254.544 553.103 255.168 555.359 255.168C558.431 255.168 560.495 253.776 560.495 251.52C560.495 250.32 559.823 249.456 558.527 248.928C558.095 248.736 557.711 248.64 556.415 248.304C555.647 248.064 554.591 247.872 553.679 247.632C550.463 246.864 548.975 246.288 547.823 245.376C546.527 244.416 545.903 242.784 545.903 241.056C545.903 239.184 546.623 237.504 548.015 236.16C549.695 234.48 551.807 233.712 554.927 233.712C560.639 233.712 564.095 236.592 564.095 241.2H559.967Z" fill="#1A1A1A"/>
<g opacity="0.5">
<path d="M25.418 121.992H27.497L32.516 135.999H30.416L29.009 131.799H23.612L22.037 135.999H20.063L25.418 121.992ZM28.484 130.266L26.405 124.239L24.2 130.266H28.484Z" fill="white"/>
<path d="M33.6218 125.751H35.3648V127.389C36.1208 126.045 36.8558 125.541 37.9268 125.541H38.6198V127.389H38.0738C37.0028 127.389 36.2468 127.788 35.7638 128.607C35.5328 129.006 35.3228 129.888 35.3228 130.455V135.999H33.6218V125.751Z" fill="white"/>
<path d="M39.4489 125.688H40.8559V123.063H42.5569V125.688H44.2159V127.053H42.6199V133.29C42.6199 134.382 42.7879 134.571 43.7329 134.571C43.8169 134.571 44.0059 134.55 44.2789 134.55V135.936C43.5229 135.999 43.2709 136.02 42.9979 136.02C41.4859 136.02 40.8559 135.39 40.8559 133.857V127.053H39.4489V125.688Z" fill="white"/>
<path d="M45.2274 129.279H50.7714V130.98H45.2274V129.279Z" fill="white"/>
<path d="M52.1362 121.992H57.4702C58.8352 121.992 59.5072 122.076 60.3472 122.538C62.4262 123.567 63.5602 125.814 63.5602 128.817C63.5602 131.232 62.8882 133.206 61.5442 134.55C60.4732 135.579 59.3182 135.999 57.4702 135.999H52.1362V121.992ZM57.3022 134.382C58.8142 134.382 59.6332 134.067 60.3262 133.311C61.2292 132.324 61.6912 130.833 61.6912 128.985C61.6912 127.032 61.2082 125.583 60.2632 124.638C59.5282 123.903 58.8142 123.609 57.5542 123.609H54.0052V134.382H57.3022Z" fill="white"/>
<path d="M64.9659 125.751H66.6669V135.999H64.9659V125.751ZM64.9659 121.992H66.6669V123.945H64.9659V121.992Z" fill="white"/>
<path d="M68.2595 125.751H70.0025V127.389C70.7585 126.045 71.4935 125.541 72.5645 125.541H73.2575V127.389H72.7115C71.6405 127.389 70.8845 127.788 70.4015 128.607C70.1705 129.006 69.9605 129.888 69.9605 130.455V135.999H68.2595V125.751Z" fill="white"/>
<path d="M82.6533 132.66C82.5903 133.563 82.2543 134.34 81.6453 135.033C80.9103 135.894 79.6713 136.377 78.1803 136.377C75.2613 136.377 73.4343 134.34 73.4343 131.043C73.4343 129.363 73.7913 128.166 74.5263 127.179C75.3873 126.003 76.6683 125.394 78.1803 125.394C79.9233 125.394 81.2463 126.15 82.0233 127.578C82.5063 128.481 82.7583 129.489 82.7583 130.56V131.379H75.3033C75.3663 132.45 75.5343 133.08 75.9543 133.668C76.4373 134.403 77.2983 134.823 78.2433 134.823C79.0623 134.823 79.7763 134.55 80.1963 133.983C80.5113 133.668 80.5953 133.332 80.7633 132.66H82.6533ZM80.9103 129.972C80.8263 128.124 79.7343 126.948 78.1173 126.948C76.5003 126.948 75.4503 128.124 75.3033 129.972H80.9103Z" fill="white"/>
<path d="M92.8511 132.324C92.7041 134.865 91.1921 136.398 88.8191 136.398C86.9711 136.398 85.4591 135.6 84.6821 134.172C84.1991 133.353 83.9261 132.135 83.9261 131.064C83.9261 129.321 84.2831 128.124 85.1021 127.053C85.9841 125.94 87.1811 125.373 88.6721 125.373C91.1291 125.373 92.6201 126.696 92.7671 129.027H90.9191C90.7721 127.683 89.9951 126.948 88.6721 126.948C87.6431 126.948 86.7401 127.473 86.2571 128.334C85.9001 128.943 85.7321 129.888 85.7321 131.127C85.7321 133.374 86.8451 134.781 88.6721 134.781C90.0791 134.781 90.8771 133.962 91.0451 132.324H92.8511Z" fill="white"/>
<path d="M92.9579 125.688H94.3649V123.063H96.0659V125.688H97.7249V127.053H96.1289V133.29C96.1289 134.382 96.2969 134.571 97.2419 134.571C97.3259 134.571 97.5149 134.55 97.7879 134.55V135.936C97.0319 135.999 96.7799 136.02 96.5069 136.02C94.9949 136.02 94.3649 135.39 94.3649 133.857V127.053H92.9579V125.688Z" fill="white"/>
<path d="M102.868 125.331C105.724 125.331 107.572 127.494 107.572 130.854C107.572 134.235 105.703 136.377 102.784 136.377C99.9906 136.377 98.1216 134.214 98.1216 130.938C98.1216 127.641 100.075 125.331 102.868 125.331ZM102.847 126.948C101.02 126.948 99.9696 128.397 99.9696 130.854C99.9696 133.374 100.999 134.823 102.826 134.823C104.674 134.823 105.724 133.374 105.724 130.875C105.724 128.376 104.674 126.948 102.847 126.948Z" fill="white"/>
<path d="M108.926 125.751H110.669V127.389C111.425 126.045 112.16 125.541 113.231 125.541H113.924V127.389H113.378C112.307 127.389 111.551 127.788 111.068 128.607C110.837 129.006 110.627 129.888 110.627 130.455V135.999H108.926V125.751Z" fill="white"/>
<path d="M112.624 138.036C113.38 137.868 113.569 137.385 113.632 135.999H112.624V133.962H114.598V135.999C114.598 137.826 113.968 138.687 112.624 138.876V138.036Z" fill="white"/>
<path d="M119.915 121.992H125.711C128.546 121.992 130.184 123.462 130.184 126.003C130.184 127.599 129.512 128.901 128.315 129.573C127.664 129.93 126.803 130.119 125.732 130.119H121.763V135.999H119.915V121.992ZM125.354 128.502C126.299 128.502 126.992 128.334 127.433 127.977C128 127.494 128.315 126.801 128.315 126.024C128.315 125.121 127.874 124.344 127.181 123.945C126.698 123.693 126.194 123.609 125.354 123.609H121.805V128.502H125.354Z" fill="white"/>
<path d="M131.493 125.751H133.236V127.389C133.992 126.045 134.727 125.541 135.798 125.541H136.491V127.389H135.945C134.874 127.389 134.118 127.788 133.635 128.607C133.404 129.006 133.194 129.888 133.194 130.455V135.999H131.493V125.751Z" fill="white"/>
<path d="M141.414 125.331C144.27 125.331 146.118 127.494 146.118 130.854C146.118 134.235 144.249 136.377 141.33 136.377C138.537 136.377 136.668 134.214 136.668 130.938C136.668 127.641 138.621 125.331 141.414 125.331ZM141.393 126.948C139.566 126.948 138.516 128.397 138.516 130.854C138.516 133.374 139.545 134.823 141.372 134.823C143.22 134.823 144.27 133.374 144.27 130.875C144.27 128.376 143.22 126.948 141.393 126.948Z" fill="white"/>
<path d="M156.272 135.999H154.508V134.823C153.689 135.978 152.912 136.356 151.568 136.356C148.88 136.356 147.242 134.319 147.242 131.022C147.242 129.153 147.557 127.893 148.292 126.906C149.048 125.898 150.203 125.352 151.568 125.352C152.849 125.352 153.71 125.772 154.571 126.801V121.992H156.272V135.999ZM151.862 126.843C150.119 126.843 149.09 128.334 149.09 130.77C149.09 133.395 150.098 134.865 151.862 134.865C153.605 134.865 154.634 133.353 154.634 130.896C154.634 129.72 154.361 128.586 153.941 127.935C153.521 127.284 152.681 126.843 151.862 126.843Z" fill="white"/>
<path d="M164.309 134.634C163.826 135.222 163.679 135.369 163.448 135.558C162.881 135.999 162.083 136.272 161.18 136.272C159.836 136.272 158.723 135.726 158.198 134.823C157.925 134.34 157.799 133.731 157.799 133.038V125.751H159.5V132.408C159.5 133.899 160.256 134.718 161.621 134.718C163.238 134.718 164.351 133.521 164.351 131.673V125.751H166.052V135.999H164.309V134.634Z" fill="white"/>
<path d="M176.392 132.324C176.245 134.865 174.733 136.398 172.36 136.398C170.512 136.398 169 135.6 168.223 134.172C167.74 133.353 167.467 132.135 167.467 131.064C167.467 129.321 167.824 128.124 168.643 127.053C169.525 125.94 170.722 125.373 172.213 125.373C174.67 125.373 176.161 126.696 176.308 129.027H174.46C174.313 127.683 173.536 126.948 172.213 126.948C171.184 126.948 170.281 127.473 169.798 128.334C169.441 128.943 169.273 129.888 169.273 131.127C169.273 133.374 170.386 134.781 172.213 134.781C173.62 134.781 174.418 133.962 174.586 132.324H176.392Z" fill="white"/>
<path d="M186.706 132.66C186.643 133.563 186.307 134.34 185.698 135.033C184.963 135.894 183.724 136.377 182.233 136.377C179.314 136.377 177.487 134.34 177.487 131.043C177.487 129.363 177.844 128.166 178.579 127.179C179.44 126.003 180.721 125.394 182.233 125.394C183.976 125.394 185.299 126.15 186.076 127.578C186.559 128.481 186.811 129.489 186.811 130.56V131.379H179.356C179.419 132.45 179.587 133.08 180.007 133.668C180.49 134.403 181.351 134.823 182.296 134.823C183.115 134.823 183.829 134.55 184.249 133.983C184.564 133.668 184.648 133.332 184.816 132.66H186.706ZM184.963 129.972C184.879 128.124 183.787 126.948 182.17 126.948C180.553 126.948 179.503 128.124 179.356 129.972H184.963Z" fill="white"/>
<path d="M188.21 125.751H189.953V127.389C190.709 126.045 191.444 125.541 192.515 125.541H193.208V127.389H192.662C191.591 127.389 190.835 127.788 190.352 128.607C190.121 129.006 189.911 129.888 189.911 130.455V135.999H188.21V125.751Z" fill="white"/>
<path d="M191.907 138.036C192.663 137.868 192.852 137.385 192.915 135.999H191.907V133.962H193.881V135.999C193.881 137.826 193.251 138.687 191.907 138.876V138.036Z" fill="white"/>
<path d="M199.198 121.992H201.046V134.298H208.081V135.999H199.198V121.992Z" fill="white"/>
<path d="M218.308 132.66C218.245 133.563 217.909 134.34 217.3 135.033C216.565 135.894 215.326 136.377 213.835 136.377C210.916 136.377 209.089 134.34 209.089 131.043C209.089 129.363 209.446 128.166 210.181 127.179C211.042 126.003 212.323 125.394 213.835 125.394C215.578 125.394 216.901 126.15 217.678 127.578C218.161 128.481 218.413 129.489 218.413 130.56V131.379H210.958C211.021 132.45 211.189 133.08 211.609 133.668C212.092 134.403 212.953 134.823 213.898 134.823C214.717 134.823 215.431 134.55 215.851 133.983C216.166 133.668 216.25 133.332 216.418 132.66H218.308ZM216.565 129.972C216.481 128.124 215.389 126.948 213.772 126.948C212.155 126.948 211.105 128.124 210.958 129.972H216.565Z" fill="white"/>
<path d="M229.178 136.062C228.443 136.125 228.275 136.146 227.96 136.146C226.889 136.146 226.469 135.621 226.406 134.508C225.839 135.243 225.545 135.516 225.104 135.789C224.495 136.125 223.676 136.314 222.899 136.314C220.82 136.314 219.518 135.159 219.518 133.311C219.518 132.051 220.148 131.022 221.177 130.539C221.702 130.308 222.206 130.203 224.117 129.93C226.028 129.699 226.301 129.489 226.301 128.733C226.301 127.536 225.545 126.948 224.033 126.948C222.437 126.948 221.681 127.536 221.534 128.859H219.728C219.896 126.675 221.492 125.436 224.117 125.436C226.553 125.436 228.002 126.57 228.002 128.418V133.899C228.002 134.55 228.212 134.76 228.695 134.76C228.842 134.76 228.926 134.76 229.178 134.697V136.062ZM226.259 130.812C225.44 131.085 225.062 131.211 223.718 131.379C222.017 131.631 221.303 132.177 221.303 133.248C221.303 134.277 221.996 134.886 223.235 134.886C224.138 134.886 224.936 134.55 225.629 133.899C226.112 133.395 226.259 133.101 226.259 132.492V130.812Z" fill="white"/>
<path d="M238.939 135.999H237.175V134.823C236.356 135.978 235.579 136.356 234.235 136.356C231.547 136.356 229.909 134.319 229.909 131.022C229.909 129.153 230.224 127.893 230.959 126.906C231.715 125.898 232.87 125.352 234.235 125.352C235.516 125.352 236.377 125.772 237.238 126.801V121.992H238.939V135.999ZM234.529 126.843C232.786 126.843 231.757 128.334 231.757 130.77C231.757 133.395 232.765 134.865 234.529 134.865C236.272 134.865 237.301 133.353 237.301 130.896C237.301 129.72 237.028 128.586 236.608 127.935C236.188 127.284 235.348 126.843 234.529 126.843Z" fill="white"/>
<path d="M244.458 121.992H249.792C251.158 121.992 251.829 122.076 252.669 122.538C254.748 123.567 255.882 125.814 255.882 128.817C255.882 131.232 255.21 133.206 253.867 134.55C252.796 135.579 251.641 135.999 249.792 135.999H244.458V121.992ZM249.624 134.382C251.136 134.382 251.956 134.067 252.648 133.311C253.551 132.324 254.013 130.833 254.013 128.985C254.013 127.032 253.531 125.583 252.585 124.638C251.85 123.903 251.136 123.609 249.876 123.609H246.327V134.382H249.624Z" fill="white"/>
<path d="M266.276 132.66C266.213 133.563 265.877 134.34 265.268 135.033C264.533 135.894 263.294 136.377 261.803 136.377C258.884 136.377 257.057 134.34 257.057 131.043C257.057 129.363 257.414 128.166 258.149 127.179C259.01 126.003 260.291 125.394 261.803 125.394C263.546 125.394 264.869 126.15 265.646 127.578C266.129 128.481 266.381 129.489 266.381 130.56V131.379H258.926C258.989 132.45 259.157 133.08 259.577 133.668C260.06 134.403 260.921 134.823 261.866 134.823C262.685 134.823 263.399 134.55 263.819 133.983C264.134 133.668 264.218 133.332 264.386 132.66H266.276ZM264.533 129.972C264.449 128.124 263.357 126.948 261.74 126.948C260.123 126.948 259.073 128.124 258.926 129.972H264.533Z" fill="white"/>
<path d="M273.644 128.649C273.581 127.998 273.539 127.788 273.308 127.515C272.951 127.116 272.279 126.906 271.313 126.906C270.137 126.906 269.297 127.494 269.297 128.397C269.297 128.712 269.444 128.964 269.675 129.111C269.822 129.216 270.011 129.279 270.263 129.363L271.796 129.762C272.993 130.077 273.896 130.329 274.253 130.497C275.24 130.98 275.723 131.778 275.723 132.87C275.723 134.991 274.022 136.377 271.439 136.377C268.667 136.377 267.176 135.054 267.176 132.681H268.94C268.961 133.437 269.045 133.752 269.36 134.067C269.78 134.487 270.641 134.76 271.628 134.76C272.972 134.76 273.875 134.151 273.875 133.164C273.875 132.639 273.581 132.261 273.014 132.03C272.825 131.946 272.657 131.904 272.09 131.757C271.754 131.652 271.292 131.568 270.893 131.463C269.486 131.127 268.835 130.875 268.331 130.476C267.764 130.056 267.491 129.342 267.491 128.586C267.491 127.767 267.806 127.032 268.415 126.444C269.15 125.709 270.074 125.373 271.439 125.373C273.938 125.373 275.45 126.633 275.45 128.649H273.644Z" fill="white"/>
<path d="M276.959 125.751H278.66V135.999H276.959V125.751ZM276.959 121.992H278.66V123.945H276.959V121.992Z" fill="white"/>
<path d="M282.185 137.217C282.269 137.826 282.395 138.099 282.71 138.351C283.109 138.666 283.76 138.855 284.495 138.855C286.259 138.855 287.141 137.91 287.141 136.02V134.634C286.322 135.642 285.503 136.062 284.306 136.062C281.702 136.062 280.001 133.899 280.001 130.539C280.001 127.347 281.597 125.373 284.264 125.373C285.587 125.373 286.322 125.793 287.141 126.906V125.751H288.884V135.957C288.884 136.755 288.758 137.406 288.527 137.931C287.876 139.359 286.301 140.22 284.306 140.22C282.857 140.22 281.576 139.716 280.841 138.792C280.484 138.309 280.379 137.973 280.316 137.217H282.185ZM284.579 126.864C282.815 126.864 281.849 128.271 281.849 130.812C281.849 133.143 282.878 134.571 284.579 134.571C285.524 134.571 286.364 134.046 286.763 133.206C287.078 132.555 287.267 131.61 287.267 130.707C287.267 128.292 286.259 126.864 284.579 126.864Z" fill="white"/>
<path d="M292.221 127.095C292.704 126.528 292.872 126.381 293.103 126.192C293.67 125.751 294.468 125.478 295.371 125.478C296.715 125.478 297.828 126.024 298.353 126.927C298.626 127.41 298.752 128.019 298.752 128.712V135.999H297.051V129.342C297.051 127.83 296.295 127.032 294.93 127.032C293.271 127.032 292.2 128.229 292.2 130.077V135.999H290.499V125.751H292.221V127.095Z" fill="white"/>
<path d="M309.322 132.66C309.259 133.563 308.923 134.34 308.314 135.033C307.579 135.894 306.34 136.377 304.849 136.377C301.93 136.377 300.103 134.34 300.103 131.043C300.103 129.363 300.46 128.166 301.195 127.179C302.056 126.003 303.337 125.394 304.849 125.394C306.592 125.394 307.915 126.15 308.692 127.578C309.175 128.481 309.427 129.489 309.427 130.56V131.379H301.972C302.035 132.45 302.203 133.08 302.623 133.668C303.106 134.403 303.967 134.823 304.912 134.823C305.731 134.823 306.445 134.55 306.865 133.983C307.18 133.668 307.264 133.332 307.432 132.66H309.322ZM307.579 129.972C307.495 128.124 306.403 126.948 304.786 126.948C303.169 126.948 302.119 128.124 301.972 129.972H307.579Z" fill="white"/>
<path d="M310.826 125.751H312.569V127.389C313.325 126.045 314.06 125.541 315.131 125.541H315.824V127.389H315.278C314.207 127.389 313.451 127.788 312.968 128.607C312.737 129.006 312.527 129.888 312.527 130.455V135.999H310.826V125.751Z" fill="white"/>
</g>
<g opacity="0.5">
<path d="M461.355 121H463.434L468.453 135.007H466.353L464.946 130.807H459.549L457.974 135.007H456L461.355 121ZM464.421 129.274L462.342 123.247L460.137 129.274H464.421Z" fill="#191919"/>
<path d="M475.37 133.642C474.887 134.23 474.74 134.377 474.509 134.566C473.942 135.007 473.144 135.28 472.241 135.28C470.897 135.28 469.784 134.734 469.259 133.831C468.986 133.348 468.86 132.739 468.86 132.046V124.759H470.561V131.416C470.561 132.907 471.317 133.726 472.682 133.726C474.299 133.726 475.412 132.529 475.412 130.681V124.759H477.113V135.007H475.37V133.642Z" fill="#191919"/>
<path d="M480.691 136.225C480.775 136.834 480.901 137.107 481.216 137.359C481.615 137.674 482.266 137.863 483.001 137.863C484.765 137.863 485.647 136.918 485.647 135.028V133.642C484.828 134.65 484.009 135.07 482.812 135.07C480.208 135.07 478.507 132.907 478.507 129.547C478.507 126.355 480.103 124.381 482.77 124.381C484.093 124.381 484.828 124.801 485.647 125.914V124.759H487.39V134.965C487.39 135.763 487.264 136.414 487.033 136.939C486.382 138.367 484.807 139.228 482.812 139.228C481.363 139.228 480.082 138.724 479.347 137.8C478.99 137.317 478.885 136.981 478.822 136.225H480.691ZM483.085 125.872C481.321 125.872 480.355 127.279 480.355 129.82C480.355 132.151 481.384 133.579 483.085 133.579C484.03 133.579 484.87 133.054 485.269 132.214C485.584 131.563 485.773 130.618 485.773 129.715C485.773 127.3 484.765 125.872 483.085 125.872Z" fill="#191919"/>
<path d="M495.451 133.642C494.968 134.23 494.821 134.377 494.59 134.566C494.023 135.007 493.225 135.28 492.322 135.28C490.978 135.28 489.865 134.734 489.34 133.831C489.067 133.348 488.941 132.739 488.941 132.046V124.759H490.642V131.416C490.642 132.907 491.398 133.726 492.763 133.726C494.38 133.726 495.493 132.529 495.493 130.681V124.759H497.194V135.007H495.451V133.642Z" fill="#191919"/>
<path d="M504.909 127.657C504.846 127.006 504.804 126.796 504.573 126.523C504.216 126.124 503.544 125.914 502.578 125.914C501.402 125.914 500.562 126.502 500.562 127.405C500.562 127.72 500.709 127.972 500.94 128.119C501.087 128.224 501.276 128.287 501.528 128.371L503.061 128.77C504.258 129.085 505.161 129.337 505.518 129.505C506.505 129.988 506.988 130.786 506.988 131.878C506.988 133.999 505.287 135.385 502.704 135.385C499.932 135.385 498.441 134.062 498.441 131.689H500.205C500.226 132.445 500.31 132.76 500.625 133.075C501.045 133.495 501.906 133.768 502.893 133.768C504.237 133.768 505.14 133.159 505.14 132.172C505.14 131.647 504.846 131.269 504.279 131.038C504.09 130.954 503.922 130.912 503.355 130.765C503.019 130.66 502.557 130.576 502.158 130.471C500.751 130.135 500.1 129.883 499.596 129.484C499.029 129.064 498.756 128.35 498.756 127.594C498.756 126.775 499.071 126.04 499.68 125.452C500.415 124.717 501.339 124.381 502.704 124.381C505.203 124.381 506.715 125.641 506.715 127.657H504.909Z" fill="#191919"/>
<path d="M507.189 124.696H508.596V122.071H510.297V124.696H511.956V126.061H510.36V132.298C510.36 133.39 510.528 133.579 511.473 133.579C511.557 133.579 511.746 133.558 512.019 133.558V134.944C511.263 135.007 511.011 135.028 510.738 135.028C509.226 135.028 508.596 134.398 508.596 132.865V126.061H507.189V124.696Z" fill="#191919"/>
<path d="M516.708 134.902C516.708 132.97 517.338 131.542 518.703 130.366C519.207 129.946 519.816 129.484 520.299 129.232L520.782 128.959L521.244 128.707L521.706 128.434C523.323 127.573 524.205 126.439 524.205 125.263C524.205 124.591 523.89 123.814 523.449 123.394C523.008 122.974 522.336 122.722 521.517 122.722C520.677 122.722 519.9 123.079 519.417 123.688C519.018 124.192 518.829 124.864 518.745 126.103H516.981C517.065 124.339 517.338 123.457 517.989 122.68C518.829 121.693 520.131 121.105 521.643 121.105C524.268 121.105 526.074 122.785 526.074 125.221C526.074 126.544 525.591 127.636 524.625 128.455C524.226 128.812 523.659 129.19 523.176 129.463L522.63 129.757L522.105 130.051L521.559 130.345C519.543 131.416 518.976 132.109 518.745 133.348H526.032V135.007H516.708V134.902Z" fill="#191919"/>
<path d="M531.724 121.105C533.341 121.105 534.664 121.903 535.483 123.331C536.05 124.339 536.386 126.271 536.386 128.224C536.386 132.823 534.79 135.238 531.703 135.238C530.044 135.238 528.763 134.461 527.944 133.012C527.377 132.004 527.041 130.093 527.041 128.161C527.041 123.541 528.637 121.105 531.724 121.105ZM531.745 122.638C529.834 122.638 528.889 124.465 528.889 128.098C528.889 130.198 529.183 131.71 529.687 132.529C530.212 133.306 530.884 133.705 531.703 133.705C533.593 133.705 534.538 131.878 534.538 128.224C534.538 126.019 534.223 124.444 533.614 123.667C533.089 122.974 532.459 122.638 531.745 122.638Z" fill="#191919"/>
<path d="M537.323 134.902C537.323 132.97 537.953 131.542 539.318 130.366C539.822 129.946 540.431 129.484 540.914 129.232L541.397 128.959L541.859 128.707L542.321 128.434C543.938 127.573 544.82 126.439 544.82 125.263C544.82 124.591 544.505 123.814 544.064 123.394C543.623 122.974 542.951 122.722 542.132 122.722C541.292 122.722 540.515 123.079 540.032 123.688C539.633 124.192 539.444 124.864 539.36 126.103H537.596C537.68 124.339 537.953 123.457 538.604 122.68C539.444 121.693 540.746 121.105 542.258 121.105C544.883 121.105 546.689 122.785 546.689 125.221C546.689 126.544 546.206 127.636 545.24 128.455C544.841 128.812 544.274 129.19 543.791 129.463L543.245 129.757L542.72 130.051L542.174 130.345C540.158 131.416 539.591 132.109 539.36 133.348H546.647V135.007H537.323V134.902Z" fill="#191919"/>
<path d="M549.251 130.765C549.398 132.025 549.587 132.508 550.07 132.949C550.616 133.432 551.33 133.663 552.212 133.663C553.997 133.663 555.152 132.634 555.152 130.954C555.152 129.442 554.018 128.518 552.233 128.518C551.876 128.518 551.624 128.518 551.225 128.539V127.027C551.54 127.048 551.855 127.069 552.086 127.069C553.682 127.069 554.606 126.292 554.606 124.948C554.606 123.583 553.682 122.701 552.17 122.701C551.309 122.701 550.49 123.058 550.007 123.709C549.671 124.15 549.545 124.654 549.482 125.662H547.781V125.41C547.781 122.827 549.524 121.084 552.212 121.084C554.711 121.084 556.454 122.596 556.454 124.759C556.454 126.103 555.929 126.943 554.648 127.552C556.223 128.098 557.021 129.19 557.021 130.807C557.021 133.432 555.005 135.28 552.128 135.28C550.364 135.28 548.936 134.629 548.18 133.432C547.697 132.697 547.55 131.941 547.487 130.765H549.251Z" fill="#191919"/>
</g>
<path d="M37.28 229.575C36.944 227.799 36.8 227.127 36.176 226.407C35.312 225.399 34.016 224.871 32.288 224.871C27.92 224.871 25.232 228.855 24.896 236.007C26.816 233.655 29.024 232.599 32.096 232.599C37.904 232.599 41.792 236.679 41.792 242.679C41.792 249.063 37.616 253.479 31.568 253.479C27.728 253.479 24.608 251.751 22.688 248.631C21.392 246.375 20.672 242.823 20.672 238.551C20.672 227.703 24.944 221.271 32.24 221.271C35.504 221.271 38.384 222.663 39.92 224.919C40.736 226.215 41.12 227.511 41.312 229.575H37.28ZM31.568 236.199C27.584 236.199 25.328 238.695 25.328 242.919C25.328 247.095 27.824 249.927 31.472 249.927C35.12 249.927 37.568 247.191 37.568 242.967C37.568 238.743 35.264 236.199 31.568 236.199Z" fill="#F5F2EE"/>
<path d="M44.2771 236.991H46.2211V242.895C47.3011 241.551 48.3811 240.975 49.9171 240.975C51.3811 240.975 52.7011 241.623 53.2531 242.655C53.5651 243.207 53.7091 243.903 53.7091 244.671V252.999H51.7651V245.391C51.7651 243.663 50.9251 242.751 49.3891 242.751C47.4691 242.751 46.2211 244.095 46.2211 246.231V252.999H44.2771V236.991Z" fill="#F5F2EE"/>
<path d="M110.24 252.759C110.24 248.343 111.68 245.079 114.8 242.391C115.952 241.431 117.344 240.375 118.448 239.799L119.552 239.175L120.608 238.599L121.664 237.975C125.36 236.007 127.376 233.415 127.376 230.727C127.376 229.191 126.656 227.415 125.648 226.455C124.64 225.495 123.104 224.919 121.232 224.919C119.312 224.919 117.536 225.735 116.432 227.127C115.52 228.279 115.088 229.815 114.896 232.647H110.864C111.056 228.615 111.68 226.599 113.168 224.823C115.088 222.567 118.064 221.223 121.52 221.223C127.52 221.223 131.648 225.063 131.648 230.631C131.648 233.655 130.544 236.151 128.336 238.023C127.424 238.839 126.128 239.703 125.024 240.327L123.776 240.999L122.576 241.671L121.328 242.343C116.72 244.791 115.424 246.375 114.896 249.207H131.552V252.999H110.24V252.759Z" fill="#F5F2EE"/>
<path d="M144.561 221.223C148.257 221.223 151.281 223.047 153.153 226.311C154.449 228.615 155.217 233.031 155.217 237.495C155.217 248.007 151.569 253.527 144.513 253.527C140.721 253.527 137.793 251.751 135.921 248.439C134.625 246.135 133.857 241.767 133.857 237.351C133.857 226.791 137.505 221.223 144.561 221.223ZM144.609 224.727C140.241 224.727 138.081 228.903 138.081 237.207C138.081 242.007 138.753 245.463 139.905 247.335C141.105 249.111 142.641 250.023 144.513 250.023C148.833 250.023 150.993 245.847 150.993 237.495C150.993 232.455 150.273 228.855 148.881 227.079C147.681 225.495 146.241 224.727 144.609 224.727Z" fill="#F5F2EE"/>
<path d="M157.743 236.991H159.687V242.895C160.767 241.551 161.847 240.975 163.383 240.975C164.847 240.975 166.167 241.623 166.719 242.655C167.031 243.207 167.175 243.903 167.175 244.671V252.999H165.231V245.391C165.231 243.663 164.391 242.751 162.855 242.751C160.935 242.751 159.687 244.095 159.687 246.231V252.999H157.743V236.991Z" fill="#F5F2EE"/>
<path d="M204.336 227.703C207.264 227.463 208.656 227.079 209.76 226.503C211.488 225.543 212.256 224.151 212.64 221.607H215.568V252.999H211.68V230.631H204.336V227.703Z" fill="#F5F2EE"/>
<path d="M222.783 244.791C223.407 246.903 223.695 247.431 224.319 248.055C225.519 249.207 227.295 249.879 229.167 249.879C233.199 249.879 236.031 247.047 236.031 242.919C236.031 238.839 233.199 235.863 229.359 235.863C226.911 235.863 225.279 236.631 223.215 238.887H219.807L222.351 222.135H238.383V225.831H225.231L223.839 234.711C226.719 232.647 227.871 232.167 230.415 232.167C236.223 232.167 240.255 236.487 240.255 242.487C240.255 248.871 235.647 253.479 229.263 253.479C225.423 253.479 222.015 251.847 220.287 249.303C219.327 247.911 219.039 246.759 218.895 244.791H222.783Z" fill="#F5F2EE"/>
<path d="M242.743 236.991H244.687V242.895C245.767 241.551 246.847 240.975 248.383 240.975C249.847 240.975 251.167 241.623 251.719 242.655C252.031 243.207 252.175 243.903 252.175 244.671V252.999H250.231V245.391C250.231 243.663 249.391 242.751 247.855 242.751C245.935 242.751 244.687 244.095 244.687 246.231V252.999H242.743V236.991Z" fill="#F5F2EE"/>
<path d="M298.336 227.703C301.264 227.463 302.656 227.079 303.76 226.503C305.488 225.543 306.256 224.151 306.64 221.607H309.568V252.999H305.68V230.631H298.336V227.703Z" fill="#F5F2EE"/>
<path d="M323.983 221.223C327.679 221.223 330.703 223.047 332.575 226.311C333.871 228.615 334.639 233.031 334.639 237.495C334.639 248.007 330.991 253.527 323.935 253.527C320.143 253.527 317.215 251.751 315.343 248.439C314.047 246.135 313.279 241.767 313.279 237.351C313.279 226.791 316.927 221.223 323.983 221.223ZM324.031 224.727C319.663 224.727 317.503 228.903 317.503 237.207C317.503 242.007 318.175 245.463 319.327 247.335C320.527 249.111 322.063 250.023 323.935 250.023C328.255 250.023 330.415 245.847 330.415 237.495C330.415 232.455 329.695 228.855 328.303 227.079C327.103 225.495 325.663 224.727 324.031 224.727Z" fill="#F5F2EE"/>
<path d="M337.165 236.991H339.109V242.895C340.189 241.551 341.269 240.975 342.805 240.975C344.269 240.975 345.589 241.623 346.141 242.655C346.453 243.207 346.597 243.903 346.597 244.671V252.999H344.653V245.391C344.653 243.663 343.813 242.751 342.277 242.751C340.357 242.751 339.109 244.095 339.109 246.231V252.999H337.165V236.991Z" fill="#F5F2EE"/>
<path d="M22.037 182.992L24.83 194.563L27.749 182.992H29.933L33.041 194.563L35.729 182.992H37.619L33.965 196.999H31.928L28.82 185.26L25.838 196.999H23.759L20.063 182.992H22.037Z" fill="white"/>
<path d="M46.2602 193.66C46.1972 194.563 45.8612 195.34 45.2522 196.033C44.5172 196.894 43.2782 197.377 41.7872 197.377C38.8682 197.377 37.0412 195.34 37.0412 192.043C37.0412 190.363 37.3982 189.166 38.1332 188.179C38.9942 187.003 40.2752 186.394 41.7872 186.394C43.5302 186.394 44.8532 187.15 45.6302 188.578C46.1132 189.481 46.3652 190.489 46.3652 191.56V192.379H38.9102C38.9732 193.45 39.1412 194.08 39.5612 194.668C40.0442 195.403 40.9052 195.823 41.8502 195.823C42.6692 195.823 43.3832 195.55 43.8032 194.983C44.1182 194.668 44.2022 194.332 44.3702 193.66H46.2602ZM44.5172 190.972C44.4332 189.124 43.3412 187.948 41.7242 187.948C40.1072 187.948 39.0572 189.124 38.9102 190.972H44.5172Z" fill="white"/>
<path d="M56.752 193.66C56.689 194.563 56.353 195.34 55.744 196.033C55.009 196.894 53.77 197.377 52.279 197.377C49.36 197.377 47.533 195.34 47.533 192.043C47.533 190.363 47.89 189.166 48.625 188.179C49.486 187.003 50.767 186.394 52.279 186.394C54.022 186.394 55.345 187.15 56.122 188.578C56.605 189.481 56.857 190.489 56.857 191.56V192.379H49.402C49.465 193.45 49.633 194.08 50.053 194.668C50.536 195.403 51.397 195.823 52.342 195.823C53.161 195.823 53.875 195.55 54.295 194.983C54.61 194.668 54.694 194.332 54.862 193.66H56.752ZM55.009 190.972C54.925 189.124 53.833 187.948 52.216 187.948C50.599 187.948 49.549 189.124 49.402 190.972H55.009Z" fill="white"/>
<path d="M58.2558 182.992H59.9568V191.119L64.2828 186.751H66.5718L62.6658 190.531L66.6558 196.999H64.5768L61.3638 191.791L59.9568 193.156V196.999H58.2558V182.992Z" fill="white"/>
<path d="M71.2935 185.932C72.5745 185.827 73.1835 185.659 73.6665 185.407C74.4225 184.987 74.7585 184.378 74.9265 183.265H76.2075V196.999H74.5065V187.213H71.2935V185.932Z" fill="white"/>
<path d="M112.037 182.992L114.83 194.563L117.749 182.992H119.933L123.041 194.563L125.729 182.992H127.619L123.965 196.999H121.928L118.82 185.26L115.838 196.999H113.759L110.063 182.992H112.037Z" fill="white"/>
<path d="M136.26 193.66C136.197 194.563 135.861 195.34 135.252 196.033C134.517 196.894 133.278 197.377 131.787 197.377C128.868 197.377 127.041 195.34 127.041 192.043C127.041 190.363 127.398 189.166 128.133 188.179C128.994 187.003 130.275 186.394 131.787 186.394C133.53 186.394 134.853 187.15 135.63 188.578C136.113 189.481 136.365 190.489 136.365 191.56V192.379H128.91C128.973 193.45 129.141 194.08 129.561 194.668C130.044 195.403 130.905 195.823 131.85 195.823C132.669 195.823 133.383 195.55 133.803 194.983C134.118 194.668 134.202 194.332 134.37 193.66H136.26ZM134.517 190.972C134.433 189.124 133.341 187.948 131.724 187.948C130.107 187.948 129.057 189.124 128.91 190.972H134.517Z" fill="white"/>
<path d="M146.752 193.66C146.689 194.563 146.353 195.34 145.744 196.033C145.009 196.894 143.77 197.377 142.279 197.377C139.36 197.377 137.533 195.34 137.533 192.043C137.533 190.363 137.89 189.166 138.625 188.179C139.486 187.003 140.767 186.394 142.279 186.394C144.022 186.394 145.345 187.15 146.122 188.578C146.605 189.481 146.857 190.489 146.857 191.56V192.379H139.402C139.465 193.45 139.633 194.08 140.053 194.668C140.536 195.403 141.397 195.823 142.342 195.823C143.161 195.823 143.875 195.55 144.295 194.983C144.61 194.668 144.694 194.332 144.862 193.66H146.752ZM145.009 190.972C144.925 189.124 143.833 187.948 142.216 187.948C140.599 187.948 139.549 189.124 139.402 190.972H145.009Z" fill="white"/>
<path d="M148.256 182.992H149.957V191.119L154.283 186.751H156.572L152.666 190.531L156.656 196.999H154.577L151.364 191.791L149.957 193.156V196.999H148.256V182.992Z" fill="white"/>
<path d="M161.251 196.894C161.251 194.962 161.881 193.534 163.246 192.358C163.75 191.938 164.359 191.476 164.842 191.224L165.325 190.951L165.787 190.699L166.249 190.426C167.866 189.565 168.748 188.431 168.748 187.255C168.748 186.583 168.433 185.806 167.992 185.386C167.551 184.966 166.879 184.714 166.06 184.714C165.22 184.714 164.443 185.071 163.96 185.68C163.561 186.184 163.372 186.856 163.288 188.095H161.524C161.608 186.331 161.881 185.449 162.532 184.672C163.372 183.685 164.674 183.097 166.186 183.097C168.811 183.097 170.617 184.777 170.617 187.213C170.617 188.536 170.134 189.628 169.168 190.447C168.769 190.804 168.202 191.182 167.719 191.455L167.173 191.749L166.648 192.043L166.102 192.337C164.086 193.408 163.519 194.101 163.288 195.34H170.575V196.999H161.251V196.894Z" fill="white"/>
<path d="M206.037 182.992L208.83 194.563L211.749 182.992H213.933L217.041 194.563L219.729 182.992H221.619L217.965 196.999H215.928L212.82 185.26L209.838 196.999H207.759L204.063 182.992H206.037Z" fill="white"/>
<path d="M230.26 193.66C230.197 194.563 229.861 195.34 229.252 196.033C228.517 196.894 227.278 197.377 225.787 197.377C222.868 197.377 221.041 195.34 221.041 192.043C221.041 190.363 221.398 189.166 222.133 188.179C222.994 187.003 224.275 186.394 225.787 186.394C227.53 186.394 228.853 187.15 229.63 188.578C230.113 189.481 230.365 190.489 230.365 191.56V192.379H222.91C222.973 193.45 223.141 194.08 223.561 194.668C224.044 195.403 224.905 195.823 225.85 195.823C226.669 195.823 227.383 195.55 227.803 194.983C228.118 194.668 228.202 194.332 228.37 193.66H230.26ZM228.517 190.972C228.433 189.124 227.341 187.948 225.724 187.948C224.107 187.948 223.057 189.124 222.91 190.972H228.517Z" fill="white"/>
<path d="M240.752 193.66C240.689 194.563 240.353 195.34 239.744 196.033C239.009 196.894 237.77 197.377 236.279 197.377C233.36 197.377 231.533 195.34 231.533 192.043C231.533 190.363 231.89 189.166 232.625 188.179C233.486 187.003 234.767 186.394 236.279 186.394C238.022 186.394 239.345 187.15 240.122 188.578C240.605 189.481 240.857 190.489 240.857 191.56V192.379H233.402C233.465 193.45 233.633 194.08 234.053 194.668C234.536 195.403 235.397 195.823 236.342 195.823C237.161 195.823 237.875 195.55 238.295 194.983C238.61 194.668 238.694 194.332 238.862 193.66H240.752ZM239.009 190.972C238.925 189.124 237.833 187.948 236.216 187.948C234.599 187.948 233.549 189.124 233.402 190.972H239.009Z" fill="white"/>
<path d="M242.256 182.992H243.957V191.119L248.283 186.751H250.572L246.666 190.531L250.656 196.999H248.577L245.364 191.791L243.957 193.156V196.999H242.256V182.992Z" fill="white"/>
<path d="M257.057 192.757C257.204 194.017 257.393 194.5 257.876 194.941C258.422 195.424 259.136 195.655 260.018 195.655C261.803 195.655 262.958 194.626 262.958 192.946C262.958 191.434 261.824 190.51 260.039 190.51C259.682 190.51 259.43 190.51 259.031 190.531V189.019C259.346 189.04 259.661 189.061 259.892 189.061C261.488 189.061 262.412 188.284 262.412 186.94C262.412 185.575 261.488 184.693 259.976 184.693C259.115 184.693 258.296 185.05 257.813 185.701C257.477 186.142 257.351 186.646 257.288 187.654H255.587V187.402C255.587 184.819 257.33 183.076 260.018 183.076C262.517 183.076 264.26 184.588 264.26 186.751C264.26 188.095 263.735 188.935 262.454 189.544C264.029 190.09 264.827 191.182 264.827 192.799C264.827 195.424 262.811 197.272 259.934 197.272C258.17 197.272 256.742 196.621 255.986 195.424C255.503 194.689 255.356 193.933 255.293 192.757H257.057Z" fill="white"/>
<path d="M300.037 182.992L302.83 194.563L305.749 182.992H307.933L311.041 194.563L313.729 182.992H315.619L311.965 196.999H309.928L306.82 185.26L303.838 196.999H301.759L298.063 182.992H300.037Z" fill="white"/>
<path d="M324.26 193.66C324.197 194.563 323.861 195.34 323.252 196.033C322.517 196.894 321.278 197.377 319.787 197.377C316.868 197.377 315.041 195.34 315.041 192.043C315.041 190.363 315.398 189.166 316.133 188.179C316.994 187.003 318.275 186.394 319.787 186.394C321.53 186.394 322.853 187.15 323.63 188.578C324.113 189.481 324.365 190.489 324.365 191.56V192.379H316.91C316.973 193.45 317.141 194.08 317.561 194.668C318.044 195.403 318.905 195.823 319.85 195.823C320.669 195.823 321.383 195.55 321.803 194.983C322.118 194.668 322.202 194.332 322.37 193.66H324.26ZM322.517 190.972C322.433 189.124 321.341 187.948 319.724 187.948C318.107 187.948 317.057 189.124 316.91 190.972H322.517Z" fill="white"/>
<path d="M334.752 193.66C334.689 194.563 334.353 195.34 333.744 196.033C333.009 196.894 331.77 197.377 330.279 197.377C327.36 197.377 325.533 195.34 325.533 192.043C325.533 190.363 325.89 189.166 326.625 188.179C327.486 187.003 328.767 186.394 330.279 186.394C332.022 186.394 333.345 187.15 334.122 188.578C334.605 189.481 334.857 190.489 334.857 191.56V192.379H327.402C327.465 193.45 327.633 194.08 328.053 194.668C328.536 195.403 329.397 195.823 330.342 195.823C331.161 195.823 331.875 195.55 332.295 194.983C332.61 194.668 332.694 194.332 332.862 193.66H334.752ZM333.009 190.972C332.925 189.124 331.833 187.948 330.216 187.948C328.599 187.948 327.549 189.124 327.402 190.972H333.009Z" fill="white"/>
<path d="M336.256 182.992H337.957V191.119L342.283 186.751H344.572L340.666 190.531L344.656 196.999H342.577L339.364 191.791L337.957 193.156V196.999H336.256V182.992Z" fill="white"/>
<path d="M349.293 192.022L355.53 183.286H357V192.169H359.016V193.681H357V196.999H355.278V193.681H349.293V192.022ZM355.236 192.169V185.911L350.847 192.169H355.236Z" fill="white"/>
<rect x="14" y="14" width="139.431" height="40.1369" rx="20.0684" fill="#FFD73B"/>
<path d="M33.9687 28.7333H35.5527L39.3767 39.4053H37.7767L36.7047 36.2053H32.5927L31.3927 39.4053H29.8887L33.9687 28.7333ZM36.3047 35.0373L34.7207 30.4453L33.0407 35.0373H36.3047Z" fill="#191919"/>
<path d="M48.3792 35.8533C48.3792 38.1893 46.7472 39.6773 44.2352 39.6773C42.6832 39.6773 41.3712 39.0853 40.6512 37.9973C40.2832 37.4373 40.0912 36.7173 40.0912 35.8533V28.7333H41.4992V35.5333C41.4992 37.3253 42.5232 38.3813 44.2352 38.3813C45.9632 38.3813 46.9712 37.3413 46.9712 35.5333V28.7333H48.3792V35.8533Z" fill="#191919"/>
<path d="M57.714 37.9653C56.482 39.3253 55.73 39.6773 54.242 39.6773C51.25 39.6773 49.314 37.5013 49.314 34.1733C49.314 32.5733 49.65 31.2293 50.338 30.3173C51.25 29.1013 52.626 28.4613 54.29 28.4613C56.85 28.4613 58.562 29.7733 58.818 31.9333H57.266C57.026 30.5413 55.938 29.6933 54.386 29.6933C52.082 29.6933 50.786 31.2773 50.786 34.0933C50.786 35.2453 51.106 36.3973 51.618 37.1173C52.194 37.9333 53.234 38.4453 54.37 38.4453C55.522 38.4453 56.514 37.9333 57.074 37.0533C57.426 36.5253 57.634 35.8213 57.714 34.9093H54.29V33.7413H58.93V39.4053H57.874L57.714 37.9653Z" fill="#191919"/>
<path d="M68.3004 35.8533C68.3004 38.1893 66.6684 39.6773 64.1564 39.6773C62.6044 39.6773 61.2924 39.0853 60.5724 37.9973C60.2044 37.4373 60.0124 36.7173 60.0124 35.8533V28.7333H61.4204V35.5333C61.4204 37.3253 62.4444 38.3813 64.1564 38.3813C65.8844 38.3813 66.8924 37.3413 66.8924 35.5333V28.7333H68.3004V35.8533Z" fill="#191919"/>
<path d="M75.8753 31.9173C75.8273 31.2933 75.6673 30.7973 75.3953 30.4453C75.0113 29.9813 74.1793 29.6773 73.2833 29.6773C71.8113 29.6773 70.8833 30.3973 70.8833 31.5333C70.8833 32.6373 71.3633 32.9893 73.7153 33.5013C74.4353 33.6773 74.9793 33.7733 75.3473 33.8853C76.8033 34.2693 77.5393 35.1013 77.5393 36.3973C77.5393 37.2453 77.1553 38.1573 76.5953 38.6693C75.8433 39.3573 74.6913 39.6933 73.1393 39.6933C70.6273 39.6933 69.1233 38.2853 69.1233 35.9653H70.4673C70.5793 36.9413 70.7393 37.3893 71.1713 37.7573C71.6833 38.1893 72.5313 38.4613 73.4753 38.4613C75.0593 38.4613 76.1313 37.6933 76.1313 36.5893C76.1313 36.0133 75.9393 35.5973 75.5393 35.3413C75.1713 35.0853 74.5473 34.8933 73.2833 34.6213C72.5633 34.4613 72.0193 34.3333 71.6513 34.2373C70.8033 33.9973 70.0993 33.5973 69.7793 33.0373C69.5713 32.6533 69.4753 32.2853 69.4753 31.6613C69.4753 30.8133 69.8433 29.9493 70.4193 29.3893C71.0593 28.7653 72.0833 28.4453 73.2993 28.4453C75.0753 28.4453 76.4033 29.1653 76.9633 30.3813C77.1393 30.8133 77.2353 31.2613 77.2513 31.9173H75.8753Z" fill="#191919"/>
<path d="M82.3579 39.4053H80.9339V29.9653H77.3339V28.7333H85.9579V29.9653H82.3579V39.4053Z" fill="#191919"/>
<path d="M96.1322 31.9173C96.0842 31.2933 95.9242 30.7973 95.6522 30.4453C95.2682 29.9813 94.4362 29.6773 93.5402 29.6773C92.0682 29.6773 91.1402 30.3973 91.1402 31.5333C91.1402 32.6373 91.6202 32.9893 93.9722 33.5013C94.6922 33.6773 95.2362 33.7733 95.6042 33.8853C97.0602 34.2693 97.7962 35.1013 97.7962 36.3973C97.7962 37.2453 97.4122 38.1573 96.8522 38.6693C96.1002 39.3573 94.9482 39.6933 93.3962 39.6933C90.8842 39.6933 89.3802 38.2853 89.3802 35.9653H90.7242C90.8362 36.9413 90.9962 37.3893 91.4282 37.7573C91.9402 38.1893 92.7882 38.4613 93.7322 38.4613C95.3162 38.4613 96.3882 37.6933 96.3882 36.5893C96.3882 36.0133 96.1962 35.5973 95.7962 35.3413C95.4282 35.0853 94.8042 34.8933 93.5402 34.6213C92.8202 34.4613 92.2762 34.3333 91.9082 34.2373C91.0602 33.9973 90.3562 33.5973 90.0362 33.0373C89.8282 32.6533 89.7322 32.2853 89.7322 31.6613C89.7322 30.8133 90.1002 29.9493 90.6762 29.3893C91.3162 28.7653 92.3402 28.4453 93.5562 28.4453C95.3322 28.4453 96.6602 29.1653 97.2202 30.3813C97.3962 30.8133 97.4922 31.2613 97.5082 31.9173H96.1322Z" fill="#191919"/>
<path d="M98.676 28.7333H103.092C105.252 28.7333 106.5 29.8533 106.5 31.7893C106.5 33.0053 105.988 33.9973 105.076 34.5093C104.58 34.7813 103.924 34.9253 103.108 34.9253H100.084V39.4053H98.676V28.7333ZM102.82 33.6933C103.54 33.6933 104.068 33.5653 104.404 33.2933C104.836 32.9253 105.076 32.3973 105.076 31.8053C105.076 31.1173 104.74 30.5253 104.212 30.2213C103.844 30.0293 103.46 29.9653 102.82 29.9653H100.116V33.6933H102.82Z" fill="#191919"/>
<path d="M107.418 28.7333H112.522C114.682 28.7333 115.93 29.8533 115.93 31.7893C115.93 33.0693 115.466 33.7733 114.314 34.2213C115.45 34.5093 115.674 35.0693 115.722 37.1493C115.722 38.4773 115.77 38.5253 116.282 39.2133V39.4053H114.522C114.378 38.8293 114.314 38.3333 114.314 37.5813C114.266 35.2293 113.93 34.8453 112.042 34.8453H108.826V39.4053H107.418V28.7333ZM112.218 33.6133C112.954 33.6133 113.482 33.4853 113.802 33.2453C114.234 32.9093 114.474 32.3813 114.474 31.7893C114.474 31.1013 114.138 30.5253 113.61 30.2213C113.242 30.0293 112.874 29.9653 112.218 29.9653H108.858V33.6133H112.218Z" fill="#191919"/>
<path d="M117.082 28.7333H118.49V39.4053H117.082V28.7333Z" fill="#191919"/>
<path d="M119.62 28.7333H121.428L126.66 37.4693V28.7333H128.068V39.4053H126.26L121.028 30.6693V39.4053H119.62V28.7333Z" fill="#191919"/>
<path d="M133.942 39.4053H132.518V29.9653H128.918V28.7333H137.542V29.9653H133.942V39.4053Z" fill="#191919"/>
<rect x="456" y="14" width="76.852" height="39.813" rx="19.9065" fill="#191919"/>
<path d="M480.802 28.6036V30.1393H477.192V39.2111H475.498V30.1393H471.889V28.6036H480.802Z" fill="#F5F2EE"/>
<path d="M485.792 39.3694C482.768 39.3694 480.836 37.2163 480.836 33.9074C480.836 30.5985 482.768 28.4453 485.792 28.4453C488.8 28.4453 490.731 30.5985 490.731 33.9074C490.731 37.2163 488.8 39.3694 485.792 39.3694ZM485.792 37.7229C487.992 37.7229 488.911 36.6621 488.911 33.9074C488.911 31.1526 487.992 30.0918 485.792 30.0918C483.591 30.0918 482.657 31.1526 482.657 33.9074C482.657 36.6621 483.591 37.7229 485.792 37.7229Z" fill="#F5F2EE"/>
<path d="M499.68 28.6036V30.1393H496.07V39.2111H494.376V30.1393H490.767V28.6036H499.68Z" fill="#F5F2EE"/>
<path d="M507.039 39.2111L505.963 36.4563H501.039L499.962 39.2111H498.173L502.306 28.6036H504.76L508.892 39.2111H507.039ZM501.641 34.9206H505.361L504.253 32.1183L503.572 30.1552H503.445L502.749 32.1183L501.641 34.9206Z" fill="#F5F2EE"/>
<path d="M511.311 37.6754H516.963V39.2111H509.601V28.6036H511.311V37.6754Z" fill="#F5F2EE"/>
<g opacity="0.23">
<path d="M95 183H96V253H95V183Z" fill="#CEC9C2"/>
<path d="M189 183H190V253H189V183Z" fill="#CEC9C2"/>
<path d="M283 183H284V253H283V183Z" fill="#CEC9C2"/>
</g>
</g>
<defs>
<clipPath id="clip0_2748_2132">
<rect width="651" height="277" fill="white"/>
</clipPath>
</defs>
</svg>
