<svg width="651" height="277" viewBox="0 0 651 277" fill="none" xmlns="http://www.w3.org/2000/svg">
<g clip-path="url(#clip0_2750_2168)">
<path fill-rule="evenodd" clip-rule="evenodd" d="M447 0C447 5.52285 442.747 10 437.502 10C432.256 10 428.003 5.52285 428.003 0L36.474 0C23.7069 0 17.3233 -2.38419e-07 12.447 2.61584C8.15758 4.9168 4.67019 8.58834 2.48464 13.1042C0 18.2381 0 24.9587 0 38.4V238.6C0 252.041 0 258.762 2.48464 263.896C4.67019 268.412 8.15758 272.083 12.447 274.384C17.3233 277 23.7069 277 36.474 277H428.003C428.003 271.477 432.256 267 437.502 267C442.747 267 447 271.477 447 277H614.513C627.28 277 633.664 277 638.54 274.384C642.829 272.083 646.317 268.412 648.502 263.896C650.987 258.762 650.987 252.041 650.987 238.6V38.4C650.987 24.9587 650.987 18.2381 648.502 13.1042C646.317 8.58834 642.829 4.9168 638.54 2.61584C633.664 0 627.28 0 614.513 0L447 0Z" fill="#F5F2EE" fill-opacity="0.19"/>
<path d="M446.154 0C446.154 5.52285 442.503 10 438 10V267C442.503 267 446.154 271.477 446.154 277H618.689C629.649 277 635.129 277 639.315 274.384C642.997 272.083 645.991 268.412 647.867 263.896C650 258.762 650 252.041 650 238.6V38.4C650 24.9587 650 18.2381 647.867 13.1042C645.991 8.58834 642.997 4.9168 639.315 2.61584C635.129 0 629.649 0 618.689 0H446.154Z" fill="#FF72B7"/>
<path d="M22.248 74.9844H44.424V78.6804H26.568V88.6644H42.264V92.3604H26.472V107H22.248V74.9844Z" fill="#F5F2EE"/>
<path d="M44.9168 83.5764H48.9008V87.3204C50.6288 84.2484 52.3088 83.0964 54.7568 83.0964H56.3408V87.3204H55.0928C52.6448 87.3204 50.9168 88.2324 49.8128 90.1044C49.2848 91.0164 48.8048 93.0324 48.8048 94.3284V107H44.9168V83.5764Z" fill="#F5F2EE"/>
<path d="M67.593 82.6164C74.121 82.6164 78.3451 87.5604 78.3451 95.2404C78.3451 102.968 74.0731 107.864 67.4011 107.864C61.0171 107.864 56.745 102.92 56.745 95.4324C56.745 87.8964 61.209 82.6164 67.593 82.6164ZM67.545 86.3124C63.369 86.3124 60.969 89.6244 60.969 95.2404C60.969 101 63.321 104.312 67.497 104.312C71.721 104.312 74.121 101 74.121 95.2884C74.121 89.5764 71.721 86.3124 67.545 86.3124Z" fill="#F5F2EE"/>
<path d="M85.3778 86.6484C86.4818 85.3524 86.8658 85.0164 87.3938 84.5844C88.6898 83.5764 90.5138 82.9524 92.5778 82.9524C95.6498 82.9524 98.1938 84.2004 99.3938 86.2644C100.018 87.3684 100.306 88.7604 100.306 90.3444V107H96.4178V91.7844C96.4178 88.3284 94.6898 86.5044 91.5698 86.5044C87.7778 86.5044 85.3298 89.2404 85.3298 93.4644V107H81.4418V83.5764H85.3778V86.6484Z" fill="#F5F2EE"/>
<path d="M103.011 83.4324H106.227V77.4324H110.115V83.4324H113.907V86.5524H110.259V100.808C110.259 103.304 110.643 103.736 112.803 103.736C112.995 103.736 113.427 103.688 114.051 103.688V106.856C112.323 107 111.747 107.048 111.123 107.048C107.667 107.048 106.227 105.608 106.227 102.104V86.5524H103.011V83.4324Z" fill="#F5F2EE"/>
<path d="M135.886 99.3684C135.742 101.432 134.974 103.208 133.582 104.792C131.902 106.76 129.07 107.864 125.662 107.864C118.99 107.864 114.814 103.208 114.814 95.6724C114.814 91.8324 115.63 89.0964 117.31 86.8404C119.278 84.1524 122.206 82.7604 125.662 82.7604C129.646 82.7604 132.67 84.4884 134.446 87.7524C135.55 89.8164 136.126 92.1204 136.126 94.5684V96.4404H119.086C119.23 98.8884 119.614 100.328 120.574 101.672C121.678 103.352 123.646 104.312 125.806 104.312C127.678 104.312 129.31 103.688 130.27 102.392C130.99 101.672 131.182 100.904 131.566 99.3684H135.886ZM131.902 93.2244C131.71 89.0004 129.214 86.3124 125.518 86.3124C121.822 86.3124 119.422 89.0004 119.086 93.2244H131.902Z" fill="#F5F2EE"/>
<path d="M143.259 86.6484C144.363 85.3524 144.747 85.0164 145.275 84.5844C146.571 83.5764 148.395 82.9524 150.459 82.9524C153.531 82.9524 156.075 84.2004 157.275 86.2644C157.899 87.3684 158.187 88.7604 158.187 90.3444V107H154.299V91.7844C154.299 88.3284 152.571 86.5044 149.451 86.5044C145.659 86.5044 143.211 89.2404 143.211 93.4644V107H139.323V83.5764H143.259V86.6484Z" fill="#F5F2EE"/>
<path d="M181.916 107H177.884V104.312C176.012 106.952 174.236 107.816 171.164 107.816C165.02 107.816 161.276 103.16 161.276 95.6244C161.276 91.3524 161.996 88.4724 163.676 86.2164C165.404 83.9124 168.044 82.6644 171.164 82.6644C174.092 82.6644 176.06 83.6244 178.028 85.9764V74.9844H181.916V107ZM171.836 86.0724C167.852 86.0724 165.5 89.4804 165.5 95.0484C165.5 101.048 167.804 104.408 171.836 104.408C175.82 104.408 178.172 100.952 178.172 95.3364C178.172 92.6484 177.548 90.0564 176.588 88.5684C175.628 87.0804 173.708 86.0724 171.836 86.0724Z" fill="#F5F2EE"/>
<path d="M194.532 74.9844H206.724C209.844 74.9844 211.38 75.1764 213.3 76.2324C218.052 78.5844 220.644 83.7204 220.644 90.5844C220.644 96.1044 219.108 100.616 216.036 103.688C213.588 106.04 210.948 107 206.724 107H194.532V74.9844ZM206.34 103.304C209.796 103.304 211.668 102.584 213.252 100.856C215.316 98.6004 216.372 95.1924 216.372 90.9684C216.372 86.5044 215.268 83.1924 213.108 81.0324C211.428 79.3524 209.796 78.6804 206.916 78.6804H198.804V103.304H206.34Z" fill="#F5F2EE"/>
<path d="M244.401 99.3684C244.257 101.432 243.489 103.208 242.097 104.792C240.417 106.76 237.585 107.864 234.177 107.864C227.505 107.864 223.329 103.208 223.329 95.6724C223.329 91.8324 224.145 89.0964 225.825 86.8404C227.793 84.1524 230.721 82.7604 234.177 82.7604C238.161 82.7604 241.185 84.4884 242.961 87.7524C244.065 89.8164 244.641 92.1204 244.641 94.5684V96.4404H227.601C227.745 98.8884 228.129 100.328 229.089 101.672C230.193 103.352 232.161 104.312 234.321 104.312C236.193 104.312 237.825 103.688 238.785 102.392C239.505 101.672 239.697 100.904 240.081 99.3684H244.401ZM240.417 93.2244C240.225 89.0004 237.729 86.3124 234.033 86.3124C230.337 86.3124 227.937 89.0004 227.601 93.2244H240.417Z" fill="#F5F2EE"/>
<path d="M249.65 83.5764L255.842 102.392L262.226 83.5764H266.594L257.714 107H253.634L245.282 83.5764H249.65Z" fill="#F5F2EE"/>
<path d="M263.885 102.344H268.349V107H263.885V102.344Z" fill="#F5F2EE"/>
<path d="M469.392 76.0871C475.776 76.6151 479.376 79.8791 479.424 85.3031V85.7831H475.536C475.2 81.7991 473.472 80.1191 469.392 79.5911V89.7671C477.072 91.0631 480.336 93.6551 480.336 98.5031C480.336 102.103 478.416 105.031 475.152 106.519C473.568 107.239 471.648 107.671 469.392 107.767V111.031H467.424V107.815C460.512 107.575 456.432 103.831 456.432 97.7351V97.3031H460.224C460.608 100.375 461.184 101.719 462.72 102.727C464.016 103.639 465.36 103.975 467.424 104.311V93.4151C463.68 92.6471 461.136 91.7351 459.744 90.6311C458.16 89.3351 457.392 87.5111 457.392 85.1111C457.392 81.8471 459.024 78.9671 461.712 77.4791C463.2 76.7111 465.12 76.2311 467.376 76.0871V72.8711H469.392V76.0871ZM469.392 104.311C473.616 104.071 476.304 102.103 476.304 99.0311C476.304 97.5431 475.584 96.2471 474.48 95.5271C473.664 94.9991 471.696 94.3751 469.392 93.7991V104.311ZM467.376 79.5431C463.584 79.8791 461.376 81.7031 461.376 84.7271C461.376 87.3191 462.576 88.0391 467.424 89.3351L467.376 79.5431Z" fill="#1A1A1A"/>
<path d="M486.365 97.3031C486.701 100.183 487.133 101.287 488.237 102.295C489.485 103.399 491.117 103.927 493.133 103.927C497.213 103.927 499.853 101.575 499.853 97.7351C499.853 94.2791 497.261 92.1671 493.181 92.1671C492.365 92.1671 491.789 92.1671 490.877 92.2151V88.7591C491.597 88.8071 492.317 88.8551 492.845 88.8551C496.493 88.8551 498.605 87.0791 498.605 84.0071C498.605 80.8871 496.493 78.8711 493.037 78.8711C491.069 78.8711 489.197 79.6871 488.093 81.1751C487.325 82.1831 487.037 83.3351 486.893 85.6391H483.005V85.0631C483.005 79.1591 486.989 75.1751 493.133 75.1751C498.845 75.1751 502.829 78.6311 502.829 83.5751C502.829 86.6471 501.629 88.5671 498.701 89.9591C502.301 91.2071 504.125 93.7031 504.125 97.3991C504.125 103.399 499.517 107.623 492.941 107.623C488.909 107.623 485.645 106.135 483.917 103.399C482.813 101.719 482.477 99.9911 482.333 97.3031H486.365Z" fill="#1A1A1A"/>
<path d="M506.65 111.655C508.378 111.271 508.81 110.167 508.954 106.999H506.65V102.343H511.162V106.999C511.162 111.175 509.722 113.143 506.65 113.575V111.655Z" fill="#1A1A1A"/>
<path d="M522.401 95.6231L536.657 75.6551H540.017V95.9591H544.625V99.4151H540.017V106.999H536.081V99.4151H522.401V95.6231ZM535.985 95.9591V81.6551L525.953 95.9591H535.985Z" fill="#1A1A1A"/>
<path d="M546.38 106.759C546.38 102.343 547.82 99.0791 550.94 96.3911C552.092 95.4311 553.484 94.3751 554.588 93.7991L555.692 93.1751L556.748 92.5991L557.804 91.9751C561.5 90.0071 563.516 87.4151 563.516 84.7271C563.516 83.1911 562.796 81.4151 561.788 80.4551C560.78 79.4951 559.244 78.9191 557.372 78.9191C555.452 78.9191 553.676 79.7351 552.572 81.1271C551.66 82.2791 551.228 83.8151 551.036 86.6471H547.004C547.196 82.6151 547.82 80.5991 549.308 78.8231C551.228 76.5671 554.204 75.2231 557.66 75.2231C563.66 75.2231 567.788 79.0631 567.788 84.6311C567.788 87.6551 566.684 90.1511 564.476 92.0231C563.564 92.8391 562.268 93.7031 561.164 94.3271L559.916 94.9991L558.716 95.6711L557.468 96.3431C552.86 98.7911 551.564 100.375 551.036 103.207H567.692V106.999H546.38V106.759Z" fill="#1A1A1A"/>
<path d="M580.702 75.2231C584.398 75.2231 587.422 77.0471 589.294 80.3111C590.59 82.6151 591.358 87.0311 591.358 91.4951C591.358 102.007 587.71 107.527 580.654 107.527C576.862 107.527 573.934 105.751 572.062 102.439C570.766 100.135 569.998 95.7671 569.998 91.3511C569.998 80.7911 573.646 75.2231 580.702 75.2231ZM580.75 78.7271C576.382 78.7271 574.222 82.9031 574.222 91.2071C574.222 96.0071 574.894 99.4631 576.046 101.335C577.246 103.111 578.782 104.023 580.654 104.023C584.974 104.023 587.134 99.8471 587.134 91.4951C587.134 86.4551 586.414 82.8551 585.022 81.0791C583.822 79.4951 582.382 78.7271 580.75 78.7271Z" fill="#1A1A1A"/>
<path d="M456.336 198.625L470.592 178.657H473.952V198.961H478.56V202.417H473.952V210.001H470.016V202.417H456.336V198.625ZM469.92 198.961V184.657L459.888 198.961H469.92Z" fill="#1A1A1A"/>
<path d="M480.315 209.761C480.315 205.345 481.755 202.081 484.875 199.393C486.027 198.433 487.419 197.377 488.523 196.801L489.627 196.177L490.683 195.601L491.739 194.977C495.435 193.009 497.451 190.417 497.451 187.729C497.451 186.193 496.731 184.417 495.723 183.457C494.715 182.497 493.179 181.921 491.307 181.921C489.387 181.921 487.611 182.737 486.507 184.129C485.595 185.281 485.163 186.817 484.971 189.649H480.939C481.131 185.617 481.755 183.601 483.243 181.825C485.163 179.569 488.139 178.225 491.595 178.225C497.595 178.225 501.723 182.065 501.723 187.633C501.723 190.657 500.619 193.153 498.411 195.025C497.499 195.841 496.203 196.705 495.099 197.329L493.851 198.001L492.651 198.673L491.403 199.345C486.795 201.793 485.499 203.377 484.971 206.209H501.627V210.001H480.315V209.761Z" fill="#1A1A1A"/>
<path d="M457.248 225.985H461.472V239.185H478.224V225.985H482.448V258.001H478.224V242.977H461.472V258.001H457.248V225.985Z" fill="#1A1A1A"/>
<path d="M496.471 233.617C502.999 233.617 507.223 238.561 507.223 246.241C507.223 253.969 502.951 258.865 496.279 258.865C489.895 258.865 485.623 253.921 485.623 246.433C485.623 238.897 490.087 233.617 496.471 233.617ZM496.423 237.313C492.247 237.313 489.847 240.625 489.847 246.241C489.847 252.001 492.199 255.313 496.375 255.313C500.599 255.313 502.999 252.001 502.999 246.289C502.999 240.577 500.599 237.313 496.423 237.313Z" fill="#1A1A1A"/>
<path d="M525.056 254.881C523.952 256.225 523.616 256.561 523.088 256.993C521.792 258.001 519.968 258.625 517.904 258.625C514.832 258.625 512.288 257.377 511.088 255.313C510.464 254.209 510.176 252.817 510.176 251.233V234.577H514.064V249.793C514.064 253.201 515.792 255.073 518.912 255.073C522.608 255.073 525.152 252.337 525.152 248.113V234.577H529.04V258.001H525.056V254.881Z" fill="#1A1A1A"/>
<path d="M532.801 234.577H536.785V238.321C538.513 235.249 540.193 234.097 542.641 234.097H544.225V238.321H542.977C540.529 238.321 538.801 239.233 537.697 241.105C537.169 242.017 536.689 244.033 536.689 245.329V258.001H532.801V234.577Z" fill="#1A1A1A"/>
<path d="M559.967 241.201C559.823 239.713 559.727 239.233 559.199 238.609C558.383 237.697 556.847 237.217 554.639 237.217C551.951 237.217 550.031 238.561 550.031 240.625C550.031 241.345 550.367 241.921 550.895 242.257C551.231 242.497 551.663 242.641 552.239 242.833L555.743 243.745C558.479 244.465 560.543 245.041 561.359 245.425C563.615 246.529 564.719 248.353 564.719 250.849C564.719 255.697 560.831 258.865 554.927 258.865C548.591 258.865 545.183 255.841 545.183 250.417H549.215C549.263 252.145 549.455 252.865 550.175 253.585C551.135 254.545 553.103 255.169 555.359 255.169C558.431 255.169 560.495 253.777 560.495 251.521C560.495 250.321 559.823 249.457 558.527 248.929C558.095 248.737 557.711 248.641 556.415 248.305C555.647 248.065 554.591 247.873 553.679 247.633C550.463 246.865 548.975 246.289 547.823 245.377C546.527 244.417 545.903 242.785 545.903 241.057C545.903 239.185 546.623 237.505 548.015 236.161C549.695 234.481 551.807 233.713 554.927 233.713C560.639 233.713 564.095 236.593 564.095 241.201H559.967Z" fill="#1A1A1A"/>
<g opacity="0.5">
<path d="M20.5459 121.992H30.2479V123.609H22.4359V127.977H29.3029V129.594H22.3939V135.999H20.5459V121.992Z" fill="white"/>
<path d="M30.4635 125.751H32.2065V127.389C32.9625 126.045 33.6975 125.541 34.7685 125.541H35.4615V127.389H34.9155C33.8445 127.389 33.0885 127.788 32.6055 128.607C32.3745 129.006 32.1645 129.888 32.1645 130.455V135.999H30.4635V125.751Z" fill="white"/>
<path d="M40.3843 125.331C43.2403 125.331 45.0883 127.494 45.0883 130.854C45.0883 134.235 43.2193 136.377 40.3003 136.377C37.5073 136.377 35.6383 134.214 35.6383 130.938C35.6383 127.641 37.5913 125.331 40.3843 125.331ZM40.3633 126.948C38.5363 126.948 37.4863 128.397 37.4863 130.854C37.4863 133.374 38.5153 134.823 40.3423 134.823C42.1903 134.823 43.2403 133.374 43.2403 130.875C43.2403 128.376 42.1903 126.948 40.3633 126.948Z" fill="white"/>
<path d="M48.1652 127.095C48.6482 126.528 48.8162 126.381 49.0472 126.192C49.6142 125.751 50.4122 125.478 51.3152 125.478C52.6592 125.478 53.7722 126.024 54.2972 126.927C54.5702 127.41 54.6962 128.019 54.6962 128.712V135.999H52.9952V129.342C52.9952 127.83 52.2392 127.032 50.8742 127.032C49.2152 127.032 48.1442 128.229 48.1442 130.077V135.999H46.4432V125.751H48.1652V127.095Z" fill="white"/>
<path d="M55.8797 125.688H57.2867V123.063H58.9877V125.688H60.6467V127.053H59.0507V133.29C59.0507 134.382 59.2187 134.571 60.1637 134.571C60.2477 134.571 60.4367 134.55 60.7097 134.55V135.936C59.9537 135.999 59.7017 136.02 59.4287 136.02C57.9167 136.02 57.2867 135.39 57.2867 133.857V127.053H55.8797V125.688Z" fill="white"/>
<path d="M61.6582 129.279H67.2022V130.98H61.6582V129.279Z" fill="white"/>
<path d="M68.567 121.992H78.752V123.609H70.436V127.914H78.122V129.531H70.436V134.298H78.878V135.999H68.567V121.992Z" fill="white"/>
<path d="M81.9087 127.095C82.3917 126.528 82.5597 126.381 82.7907 126.192C83.3577 125.751 84.1557 125.478 85.0587 125.478C86.4027 125.478 87.5157 126.024 88.0407 126.927C88.3137 127.41 88.4397 128.019 88.4397 128.712V135.999H86.7387V129.342C86.7387 127.83 85.9827 127.032 84.6177 127.032C82.9587 127.032 81.8877 128.229 81.8877 130.077V135.999H80.1867V125.751H81.9087V127.095Z" fill="white"/>
<path d="M98.8213 135.999H97.0573V134.823C96.2383 135.978 95.4613 136.356 94.1173 136.356C91.4293 136.356 89.7913 134.319 89.7913 131.022C89.7913 129.153 90.1063 127.893 90.8413 126.906C91.5973 125.898 92.7523 125.352 94.1173 125.352C95.3983 125.352 96.2593 125.772 97.1203 126.801V121.992H98.8213V135.999ZM94.4113 126.843C92.6683 126.843 91.6393 128.334 91.6393 130.77C91.6393 133.395 92.6473 134.865 94.4113 134.865C96.1543 134.865 97.1833 133.353 97.1833 130.896C97.1833 129.72 96.9103 128.586 96.4903 127.935C96.0703 127.284 95.2303 126.843 94.4113 126.843Z" fill="white"/>
<path d="M104.341 121.992H109.675C111.04 121.992 111.712 122.076 112.552 122.538C114.631 123.567 115.765 125.814 115.765 128.817C115.765 131.232 115.093 133.206 113.749 134.55C112.678 135.579 111.523 135.999 109.675 135.999H104.341V121.992ZM109.507 134.382C111.019 134.382 111.838 134.067 112.531 133.311C113.434 132.324 113.896 130.833 113.896 128.985C113.896 127.032 113.413 125.583 112.468 124.638C111.733 123.903 111.019 123.609 109.759 123.609H106.21V134.382H109.507Z" fill="white"/>
<path d="M126.159 132.66C126.096 133.563 125.76 134.34 125.151 135.033C124.416 135.894 123.177 136.377 121.686 136.377C118.767 136.377 116.94 134.34 116.94 131.043C116.94 129.363 117.297 128.166 118.032 127.179C118.893 126.003 120.174 125.394 121.686 125.394C123.429 125.394 124.752 126.15 125.529 127.578C126.012 128.481 126.264 129.489 126.264 130.56V131.379H118.809C118.872 132.45 119.04 133.08 119.46 133.668C119.943 134.403 120.804 134.823 121.749 134.823C122.568 134.823 123.282 134.55 123.702 133.983C124.017 133.668 124.101 133.332 124.269 132.66H126.159ZM124.416 129.972C124.332 128.124 123.24 126.948 121.623 126.948C120.006 126.948 118.956 128.124 118.809 129.972H124.416Z" fill="white"/>
<path d="M128.455 125.751L131.164 133.983L133.957 125.751H135.868L131.983 135.999H130.198L126.544 125.751H128.455Z" fill="white"/>
<path d="M145.153 132.66C145.09 133.563 144.754 134.34 144.145 135.033C143.41 135.894 142.171 136.377 140.68 136.377C137.761 136.377 135.934 134.34 135.934 131.043C135.934 129.363 136.291 128.166 137.026 127.179C137.887 126.003 139.168 125.394 140.68 125.394C142.423 125.394 143.746 126.15 144.523 127.578C145.006 128.481 145.258 129.489 145.258 130.56V131.379H137.803C137.866 132.45 138.034 133.08 138.454 133.668C138.937 134.403 139.798 134.823 140.743 134.823C141.562 134.823 142.276 134.55 142.696 133.983C143.011 133.668 143.095 133.332 143.263 132.66H145.153ZM143.41 129.972C143.326 128.124 142.234 126.948 140.617 126.948C139 126.948 137.95 128.124 137.803 129.972H143.41Z" fill="white"/>
<path d="M146.657 121.992H148.358V135.999H146.657V121.992Z" fill="white"/>
<path d="M154.465 125.331C157.321 125.331 159.169 127.494 159.169 130.854C159.169 134.235 157.3 136.377 154.381 136.377C151.588 136.377 149.719 134.214 149.719 130.938C149.719 127.641 151.672 125.331 154.465 125.331ZM154.444 126.948C152.617 126.948 151.567 128.397 151.567 130.854C151.567 133.374 152.596 134.823 154.423 134.823C156.271 134.823 157.321 133.374 157.321 130.875C157.321 128.376 156.271 126.948 154.444 126.948Z" fill="white"/>
<path d="M160.524 125.751H162.267V126.906C163.107 125.751 163.863 125.373 165.228 125.373C167.895 125.373 169.554 127.452 169.554 130.728C169.554 132.597 169.218 133.836 168.483 134.823C167.727 135.852 166.572 136.377 165.207 136.377C163.926 136.377 163.065 135.978 162.225 134.949V139.758H160.524V125.751ZM164.913 126.864C163.17 126.864 162.141 128.355 162.141 130.854C162.141 132.03 162.414 133.122 162.834 133.794C163.254 134.445 164.094 134.886 164.913 134.886C166.614 134.886 167.685 133.395 167.685 130.959C167.685 128.334 166.677 126.864 164.913 126.864Z" fill="white"/>
<path d="M179.901 132.66C179.838 133.563 179.502 134.34 178.893 135.033C178.158 135.894 176.919 136.377 175.428 136.377C172.509 136.377 170.682 134.34 170.682 131.043C170.682 129.363 171.039 128.166 171.774 127.179C172.635 126.003 173.916 125.394 175.428 125.394C177.171 125.394 178.494 126.15 179.271 127.578C179.754 128.481 180.006 129.489 180.006 130.56V131.379H172.551C172.614 132.45 172.782 133.08 173.202 133.668C173.685 134.403 174.546 134.823 175.491 134.823C176.31 134.823 177.024 134.55 177.444 133.983C177.759 133.668 177.843 133.332 178.011 132.66H179.901ZM178.158 129.972C178.074 128.124 176.982 126.948 175.365 126.948C173.748 126.948 172.698 128.124 172.551 129.972H178.158Z" fill="white"/>
<path d="M181.405 125.751H183.148V127.389C183.904 126.045 184.639 125.541 185.71 125.541H186.403V127.389H185.857C184.786 127.389 184.03 127.788 183.547 128.607C183.316 129.006 183.106 129.888 183.106 130.455V135.999H181.405V125.751Z" fill="white"/>
<path d="M185.103 138.036C185.859 137.868 186.048 137.385 186.111 135.999H185.103V133.962H187.077V135.999C187.077 137.826 186.447 138.687 185.103 138.876V138.036Z" fill="white"/>
<path d="M192.393 121.992H198.189C201.024 121.992 202.662 123.462 202.662 126.003C202.662 127.599 201.99 128.901 200.793 129.573C200.142 129.93 199.281 130.119 198.21 130.119H194.241V135.999H192.393V121.992ZM197.832 128.502C198.777 128.502 199.47 128.334 199.911 127.977C200.478 127.494 200.793 126.801 200.793 126.024C200.793 125.121 200.352 124.344 199.659 123.945C199.176 123.693 198.672 123.609 197.832 123.609H194.283V128.502H197.832Z" fill="white"/>
<path d="M203.972 125.751H205.715V127.389C206.471 126.045 207.206 125.541 208.277 125.541H208.97V127.389H208.424C207.353 127.389 206.597 127.788 206.114 128.607C205.883 129.006 205.673 129.888 205.673 130.455V135.999H203.972V125.751Z" fill="white"/>
<path d="M213.893 125.331C216.749 125.331 218.597 127.494 218.597 130.854C218.597 134.235 216.728 136.377 213.809 136.377C211.016 136.377 209.147 134.214 209.147 130.938C209.147 127.641 211.1 125.331 213.893 125.331ZM213.872 126.948C212.045 126.948 210.995 128.397 210.995 130.854C210.995 133.374 212.024 134.823 213.851 134.823C215.699 134.823 216.749 133.374 216.749 130.875C216.749 128.376 215.699 126.948 213.872 126.948Z" fill="white"/>
<path d="M228.751 135.999H226.987V134.823C226.168 135.978 225.391 136.356 224.047 136.356C221.359 136.356 219.721 134.319 219.721 131.022C219.721 129.153 220.036 127.893 220.771 126.906C221.527 125.898 222.682 125.352 224.047 125.352C225.328 125.352 226.189 125.772 227.05 126.801V121.992H228.751V135.999ZM224.341 126.843C222.598 126.843 221.569 128.334 221.569 130.77C221.569 133.395 222.577 134.865 224.341 134.865C226.084 134.865 227.113 133.353 227.113 130.896C227.113 129.72 226.84 128.586 226.42 127.935C226 127.284 225.16 126.843 224.341 126.843Z" fill="white"/>
<path d="M236.788 134.634C236.305 135.222 236.158 135.369 235.927 135.558C235.36 135.999 234.562 136.272 233.659 136.272C232.315 136.272 231.202 135.726 230.677 134.823C230.404 134.34 230.278 133.731 230.278 133.038V125.751H231.979V132.408C231.979 133.899 232.735 134.718 234.1 134.718C235.717 134.718 236.83 133.521 236.83 131.673V125.751H238.531V135.999H236.788V134.634Z" fill="white"/>
<path d="M248.87 132.324C248.723 134.865 247.211 136.398 244.838 136.398C242.99 136.398 241.478 135.6 240.701 134.172C240.218 133.353 239.945 132.135 239.945 131.064C239.945 129.321 240.302 128.124 241.121 127.053C242.003 125.94 243.2 125.373 244.691 125.373C247.148 125.373 248.639 126.696 248.786 129.027H246.938C246.791 127.683 246.014 126.948 244.691 126.948C243.662 126.948 242.759 127.473 242.276 128.334C241.919 128.943 241.751 129.888 241.751 131.127C241.751 133.374 242.864 134.781 244.691 134.781C246.098 134.781 246.896 133.962 247.064 132.324H248.87Z" fill="white"/>
<path d="M259.184 132.66C259.121 133.563 258.785 134.34 258.176 135.033C257.441 135.894 256.202 136.377 254.711 136.377C251.792 136.377 249.965 134.34 249.965 131.043C249.965 129.363 250.322 128.166 251.057 127.179C251.918 126.003 253.199 125.394 254.711 125.394C256.454 125.394 257.777 126.15 258.554 127.578C259.037 128.481 259.289 129.489 259.289 130.56V131.379H251.834C251.897 132.45 252.065 133.08 252.485 133.668C252.968 134.403 253.829 134.823 254.774 134.823C255.593 134.823 256.307 134.55 256.727 133.983C257.042 133.668 257.126 133.332 257.294 132.66H259.184ZM257.441 129.972C257.357 128.124 256.265 126.948 254.648 126.948C253.031 126.948 251.981 128.124 251.834 129.972H257.441Z" fill="white"/>
<path d="M260.688 125.751H262.431V127.389C263.187 126.045 263.922 125.541 264.993 125.541H265.686V127.389H265.14C264.069 127.389 263.313 127.788 262.83 128.607C262.599 129.006 262.389 129.888 262.389 130.455V135.999H260.688V125.751Z" fill="white"/>
</g>
<g opacity="0.5">
<path d="M465.009 126.172C464.946 125.353 464.736 124.702 464.379 124.24C463.875 123.631 462.783 123.232 461.607 123.232C459.675 123.232 458.457 124.177 458.457 125.668C458.457 127.117 459.087 127.579 462.174 128.251C463.119 128.482 463.833 128.608 464.316 128.755C466.227 129.259 467.193 130.351 467.193 132.052C467.193 133.165 466.689 134.362 465.954 135.034C464.967 135.937 463.455 136.378 461.418 136.378C458.121 136.378 456.147 134.53 456.147 131.485H457.911C458.058 132.766 458.268 133.354 458.835 133.837C459.507 134.404 460.62 134.761 461.859 134.761C463.938 134.761 465.345 133.753 465.345 132.304C465.345 131.548 465.093 131.002 464.568 130.666C464.085 130.33 463.266 130.078 461.607 129.721C460.662 129.511 459.948 129.343 459.465 129.217C458.352 128.902 457.428 128.377 457.008 127.642C456.735 127.138 456.609 126.655 456.609 125.836C456.609 124.723 457.092 123.589 457.848 122.854C458.688 122.035 460.032 121.615 461.628 121.615C463.959 121.615 465.702 122.56 466.437 124.156C466.668 124.723 466.794 125.311 466.815 126.172H465.009Z" fill="#191919"/>
<path d="M477.441 132.661C477.378 133.564 477.042 134.341 476.433 135.034C475.698 135.895 474.459 136.378 472.968 136.378C470.049 136.378 468.222 134.341 468.222 131.044C468.222 129.364 468.579 128.167 469.314 127.18C470.175 126.004 471.456 125.395 472.968 125.395C474.711 125.395 476.034 126.151 476.811 127.579C477.294 128.482 477.546 129.49 477.546 130.561V131.38H470.091C470.154 132.451 470.322 133.081 470.742 133.669C471.225 134.404 472.086 134.824 473.031 134.824C473.85 134.824 474.564 134.551 474.984 133.984C475.299 133.669 475.383 133.333 475.551 132.661H477.441ZM475.698 129.973C475.614 128.125 474.522 126.949 472.905 126.949C471.288 126.949 470.238 128.125 470.091 129.973H475.698Z" fill="#191919"/>
<path d="M478.945 125.752H480.688V126.907C481.528 125.752 482.284 125.374 483.649 125.374C486.316 125.374 487.975 127.453 487.975 130.729C487.975 132.598 487.639 133.837 486.904 134.824C486.148 135.853 484.993 136.378 483.628 136.378C482.347 136.378 481.486 135.979 480.646 134.95V139.759H478.945V125.752ZM483.334 126.865C481.591 126.865 480.562 128.356 480.562 130.855C480.562 132.031 480.835 133.123 481.255 133.795C481.675 134.446 482.515 134.887 483.334 134.887C485.035 134.887 486.106 133.396 486.106 130.96C486.106 128.335 485.098 126.865 483.334 126.865Z" fill="#191919"/>
<path d="M488.525 125.689H489.932V123.064H491.633V125.689H493.292V127.054H491.696V133.291C491.696 134.383 491.864 134.572 492.809 134.572C492.893 134.572 493.082 134.551 493.355 134.551V135.937C492.599 136 492.347 136.021 492.074 136.021C490.562 136.021 489.932 135.391 489.932 133.858V127.054H488.525V125.689Z" fill="#191919"/>
<path d="M502.908 132.661C502.845 133.564 502.509 134.341 501.9 135.034C501.165 135.895 499.926 136.378 498.435 136.378C495.516 136.378 493.689 134.341 493.689 131.044C493.689 129.364 494.046 128.167 494.781 127.18C495.642 126.004 496.923 125.395 498.435 125.395C500.178 125.395 501.501 126.151 502.278 127.579C502.761 128.482 503.013 129.49 503.013 130.561V131.38H495.558C495.621 132.451 495.789 133.081 496.209 133.669C496.692 134.404 497.553 134.824 498.498 134.824C499.317 134.824 500.031 134.551 500.451 133.984C500.766 133.669 500.85 133.333 501.018 132.661H502.908ZM501.165 129.973C501.081 128.125 499.989 126.949 498.372 126.949C496.755 126.949 495.705 128.125 495.558 129.973H501.165Z" fill="#191919"/>
<path d="M504.412 125.752H506.155V127.054C506.554 126.571 506.638 126.403 506.827 126.235C507.352 125.731 508.15 125.416 509.053 125.416C510.334 125.416 511.3 125.983 511.909 127.096C512.35 126.571 512.539 126.403 512.812 126.172C513.421 125.668 514.156 125.416 515.017 125.416C517.033 125.416 518.251 126.613 518.251 128.524V136H516.55V129.049C516.55 127.705 515.857 126.949 514.681 126.949C513.169 126.949 512.161 128.146 512.161 130.078V136H510.46V129.049C510.46 127.705 509.788 126.97 508.591 126.97C507.1 126.97 506.113 128.23 506.113 130.078V136H504.412V125.752Z" fill="#191919"/>
<path d="M521.526 121.993V126.802C522.366 125.773 523.227 125.353 524.508 125.353C526.104 125.353 527.364 126.088 528.12 127.432C528.645 128.356 528.855 129.427 528.855 131.023C528.855 134.32 527.196 136.357 524.529 136.357C523.164 136.357 522.408 135.979 521.568 134.824V136H519.825V121.993H521.526ZM524.214 126.844C523.227 126.844 522.387 127.369 521.967 128.272C521.631 128.944 521.442 129.91 521.442 130.897C521.442 133.354 522.471 134.866 524.214 134.866C525.978 134.866 526.986 133.396 526.986 130.771C526.986 128.335 525.915 126.844 524.214 126.844Z" fill="#191919"/>
<path d="M539.203 132.661C539.14 133.564 538.804 134.341 538.195 135.034C537.46 135.895 536.221 136.378 534.73 136.378C531.811 136.378 529.984 134.341 529.984 131.044C529.984 129.364 530.341 128.167 531.076 127.18C531.937 126.004 533.218 125.395 534.73 125.395C536.473 125.395 537.796 126.151 538.573 127.579C539.056 128.482 539.308 129.49 539.308 130.561V131.38H531.853C531.916 132.451 532.084 133.081 532.504 133.669C532.987 134.404 533.848 134.824 534.793 134.824C535.612 134.824 536.326 134.551 536.746 133.984C537.061 133.669 537.145 133.333 537.313 132.661H539.203ZM537.46 129.973C537.376 128.125 536.284 126.949 534.667 126.949C533.05 126.949 532 128.125 531.853 129.973H537.46Z" fill="#191919"/>
<path d="M540.706 125.752H542.449V127.39C543.205 126.046 543.94 125.542 545.011 125.542H545.704V127.39H545.158C544.087 127.39 543.331 127.789 542.848 128.608C542.617 129.007 542.407 129.889 542.407 130.456V136H540.706V125.752Z" fill="#191919"/>
<path d="M550.421 135.895C550.421 133.963 551.051 132.535 552.416 131.359C552.92 130.939 553.529 130.477 554.012 130.225L554.495 129.952L554.957 129.7L555.419 129.427C557.036 128.566 557.918 127.432 557.918 126.256C557.918 125.584 557.603 124.807 557.162 124.387C556.721 123.967 556.049 123.715 555.23 123.715C554.39 123.715 553.613 124.072 553.13 124.681C552.731 125.185 552.542 125.857 552.458 127.096H550.694C550.778 125.332 551.051 124.45 551.702 123.673C552.542 122.686 553.844 122.098 555.356 122.098C557.981 122.098 559.787 123.778 559.787 126.214C559.787 127.537 559.304 128.629 558.338 129.448C557.939 129.805 557.372 130.183 556.889 130.456L556.343 130.75L555.818 131.044L555.272 131.338C553.256 132.409 552.689 133.102 552.458 134.341H559.745V136H550.421V135.895Z" fill="#191919"/>
<path d="M565.437 122.098C567.054 122.098 568.377 122.896 569.196 124.324C569.763 125.332 570.099 127.264 570.099 129.217C570.099 133.816 568.503 136.231 565.416 136.231C563.757 136.231 562.476 135.454 561.657 134.005C561.09 132.997 560.754 131.086 560.754 129.154C560.754 124.534 562.35 122.098 565.437 122.098ZM565.458 123.631C563.547 123.631 562.602 125.458 562.602 129.091C562.602 131.191 562.896 132.703 563.4 133.522C563.925 134.299 564.597 134.698 565.416 134.698C567.306 134.698 568.251 132.871 568.251 129.217C568.251 127.012 567.936 125.437 567.327 124.66C566.802 123.967 566.172 123.631 565.458 123.631Z" fill="#191919"/>
<path d="M571.035 135.895C571.035 133.963 571.665 132.535 573.03 131.359C573.534 130.939 574.143 130.477 574.626 130.225L575.109 129.952L575.571 129.7L576.033 129.427C577.65 128.566 578.532 127.432 578.532 126.256C578.532 125.584 578.217 124.807 577.776 124.387C577.335 123.967 576.663 123.715 575.844 123.715C575.004 123.715 574.227 124.072 573.744 124.681C573.345 125.185 573.156 125.857 573.072 127.096H571.308C571.392 125.332 571.665 124.45 572.316 123.673C573.156 122.686 574.458 122.098 575.97 122.098C578.595 122.098 580.401 123.778 580.401 126.214C580.401 127.537 579.918 128.629 578.952 129.448C578.553 129.805 577.986 130.183 577.503 130.456L576.957 130.75L576.432 131.044L575.886 131.338C573.87 132.409 573.303 133.102 573.072 134.341H580.359V136H571.035V135.895Z" fill="#191919"/>
<path d="M582.964 131.758C583.111 133.018 583.3 133.501 583.783 133.942C584.329 134.425 585.043 134.656 585.925 134.656C587.71 134.656 588.865 133.627 588.865 131.947C588.865 130.435 587.731 129.511 585.946 129.511C585.589 129.511 585.337 129.511 584.938 129.532V128.02C585.253 128.041 585.568 128.062 585.799 128.062C587.395 128.062 588.319 127.285 588.319 125.941C588.319 124.576 587.395 123.694 585.883 123.694C585.022 123.694 584.203 124.051 583.72 124.702C583.384 125.143 583.258 125.647 583.195 126.655H581.494V126.403C581.494 123.82 583.237 122.077 585.925 122.077C588.424 122.077 590.167 123.589 590.167 125.752C590.167 127.096 589.642 127.936 588.361 128.545C589.936 129.091 590.734 130.183 590.734 131.8C590.734 134.425 588.718 136.273 585.841 136.273C584.077 136.273 582.649 135.622 581.893 134.425C581.41 133.69 581.263 132.934 581.2 131.758H582.964Z" fill="#191919"/>
</g>
<path d="M36.0325 236.007C38.0005 236.631 38.7685 237.111 39.6805 238.023C41.1685 239.511 41.9365 241.719 41.9365 244.215C41.9365 249.879 37.8085 253.479 31.2325 253.479C24.6565 253.479 20.6725 249.927 20.6725 244.167C20.6725 239.751 22.7845 236.823 26.7685 236.007C25.1845 235.671 24.3205 235.287 23.4085 234.183C22.3045 232.887 21.7285 231.303 21.7285 229.335C21.7285 224.391 25.4245 221.175 31.2805 221.175C37.0885 221.175 40.8805 224.343 40.8805 229.335C40.8805 232.647 39.2485 234.903 36.0325 236.007ZM31.3285 237.879C27.6325 237.879 24.8965 240.423 24.8965 243.879C24.8965 247.335 27.6325 249.927 31.3285 249.927C34.8805 249.927 37.6645 247.335 37.6645 243.879C37.6645 240.375 35.0245 237.879 31.3285 237.879ZM31.2805 224.871C27.8245 224.871 25.8565 226.647 25.8565 229.719C25.8565 232.743 27.9205 234.519 31.2325 234.519C34.6405 234.519 36.6565 232.743 36.6565 229.671C36.6565 226.647 34.5925 224.871 31.2805 224.871Z" fill="#F5F2EE"/>
<path d="M44.3714 236.991H46.3154V242.895C47.3954 241.551 48.4754 240.975 50.0114 240.975C51.4754 240.975 52.7953 241.623 53.3474 242.655C53.6594 243.207 53.8034 243.903 53.8034 244.671V252.999H51.8594V245.391C51.8594 243.663 51.0194 242.751 49.4834 242.751C47.5634 242.751 46.3154 244.095 46.3154 246.231V252.999H44.3714V236.991Z" fill="#F5F2EE"/>
<path d="M110.336 227.703C113.264 227.463 114.656 227.079 115.76 226.503C117.488 225.543 118.256 224.151 118.64 221.607H121.568V252.999H117.68V230.631H110.336V227.703Z" fill="#F5F2EE"/>
<path d="M124.8 252.759C124.8 248.343 126.24 245.079 129.36 242.391C130.512 241.431 131.904 240.375 133.008 239.799L134.112 239.175L135.168 238.599L136.224 237.975C139.92 236.007 141.936 233.415 141.936 230.727C141.936 229.191 141.216 227.415 140.208 226.455C139.2 225.495 137.664 224.919 135.792 224.919C133.872 224.919 132.096 225.735 130.992 227.127C130.08 228.279 129.648 229.815 129.456 232.647H125.424C125.616 228.615 126.24 226.599 127.728 224.823C129.648 222.567 132.624 221.223 136.08 221.223C142.08 221.223 146.208 225.063 146.208 230.631C146.208 233.655 145.104 236.151 142.896 238.023C141.984 238.839 140.688 239.703 139.584 240.327L138.336 240.999L137.136 241.671L135.888 242.343C131.28 244.791 129.984 246.375 129.456 249.207H146.112V252.999H124.8V252.759Z" fill="#F5F2EE"/>
<path d="M148.321 236.991H150.265V242.895C151.345 241.551 152.425 240.975 153.961 240.975C155.425 240.975 156.745 241.623 157.297 242.655C157.609 243.207 157.753 243.903 157.753 244.671V252.999H155.809V245.391C155.809 243.663 154.969 242.751 153.433 242.751C151.513 242.751 150.265 244.095 150.265 246.231V252.999H148.321V236.991Z" fill="#F5F2EE"/>
<path d="M204.336 227.703C207.264 227.463 208.656 227.079 209.76 226.503C211.488 225.543 212.256 224.151 212.64 221.607H215.568V252.999H211.68V230.631H204.336V227.703Z" fill="#F5F2EE"/>
<path d="M222.928 243.303C223.264 246.183 223.696 247.287 224.8 248.295C226.048 249.399 227.68 249.927 229.696 249.927C233.776 249.927 236.416 247.575 236.416 243.735C236.416 240.279 233.824 238.167 229.744 238.167C228.928 238.167 228.352 238.167 227.44 238.215V234.759C228.16 234.807 228.88 234.855 229.408 234.855C233.056 234.855 235.168 233.079 235.168 230.007C235.168 226.887 233.056 224.871 229.6 224.871C227.632 224.871 225.76 225.687 224.656 227.175C223.888 228.183 223.6 229.335 223.456 231.639H219.568V231.063C219.568 225.159 223.552 221.175 229.696 221.175C235.408 221.175 239.392 224.631 239.392 229.575C239.392 232.647 238.192 234.567 235.264 235.959C238.864 237.207 240.688 239.703 240.688 243.399C240.688 249.399 236.08 253.623 229.504 253.623C225.472 253.623 222.208 252.135 220.48 249.399C219.376 247.719 219.04 245.991 218.896 243.303H222.928Z" fill="#F5F2EE"/>
<path d="M243.165 236.991H245.109V242.895C246.189 241.551 247.269 240.975 248.805 240.975C250.269 240.975 251.589 241.623 252.141 242.655C252.453 243.207 252.597 243.903 252.597 244.671V252.999H250.653V245.391C250.653 243.663 249.813 242.751 248.277 242.751C246.357 242.751 245.109 244.095 245.109 246.231V252.999H243.165V236.991Z" fill="#F5F2EE"/>
<path d="M303.184 245.223C303.376 246.999 303.664 247.623 304.24 248.343C305.152 249.351 306.448 249.879 308.128 249.879C312.544 249.879 315.232 245.943 315.568 238.791C313.648 241.095 311.488 242.151 308.368 242.151C302.56 242.151 298.672 238.071 298.672 232.071C298.672 225.687 302.8 221.271 308.896 221.271C312.736 221.271 315.856 222.951 317.728 226.167C319.024 228.327 319.792 231.975 319.792 236.199C319.792 247.047 315.472 253.479 308.176 253.479C304.912 253.479 302.08 252.135 300.544 249.831C299.728 248.631 299.296 247.287 299.152 245.223H303.184ZM308.992 224.823C305.344 224.823 302.848 227.655 302.848 231.783C302.848 236.007 305.104 238.551 308.896 238.551C312.784 238.551 315.088 236.055 315.088 231.831C315.088 227.607 312.64 224.823 308.992 224.823Z" fill="#F5F2EE"/>
<path d="M322.278 236.991H324.222V242.895C325.302 241.551 326.382 240.975 327.918 240.975C329.382 240.975 330.702 241.623 331.254 242.655C331.566 243.207 331.71 243.903 331.71 244.671V252.999H329.766V245.391C329.766 243.663 328.926 242.751 327.39 242.751C325.47 242.751 324.222 244.095 324.222 246.231V252.999H322.278V236.991Z" fill="#F5F2EE"/>
<path d="M22.0375 182.992L24.8305 194.563L27.7495 182.992H29.9335L33.0415 194.563L35.7295 182.992H37.6195L33.9655 196.999H31.9285L28.8205 185.26L25.8385 196.999H23.7595L20.0635 182.992H22.0375Z" fill="white"/>
<path d="M46.2606 193.66C46.1976 194.563 45.8617 195.34 45.2526 196.033C44.5176 196.894 43.2786 197.377 41.7876 197.377C38.8686 197.377 37.0416 195.34 37.0416 192.043C37.0416 190.363 37.3986 189.166 38.1336 188.179C38.9946 187.003 40.2757 186.394 41.7876 186.394C43.5306 186.394 44.8536 187.15 45.6306 188.578C46.1136 189.481 46.3656 190.489 46.3656 191.56V192.379H38.9106C38.9736 193.45 39.1416 194.08 39.5616 194.668C40.0446 195.403 40.9056 195.823 41.8506 195.823C42.6696 195.823 43.3836 195.55 43.8036 194.983C44.1186 194.668 44.2026 194.332 44.3706 193.66H46.2606ZM44.5176 190.972C44.4336 189.124 43.3416 187.948 41.7246 187.948C40.1076 187.948 39.0576 189.124 38.9106 190.972H44.5176Z" fill="white"/>
<path d="M56.7524 193.66C56.6894 194.563 56.3534 195.34 55.7444 196.033C55.0094 196.894 53.7704 197.377 52.2794 197.377C49.3604 197.377 47.5334 195.34 47.5334 192.043C47.5334 190.363 47.8904 189.166 48.6254 188.179C49.4864 187.003 50.7674 186.394 52.2794 186.394C54.0224 186.394 55.3454 187.15 56.1224 188.578C56.6054 189.481 56.8574 190.489 56.8574 191.56V192.379H49.4024C49.4654 193.45 49.6334 194.08 50.0534 194.668C50.5364 195.403 51.3974 195.823 52.3424 195.823C53.1614 195.823 53.8754 195.55 54.2954 194.983C54.6104 194.668 54.6944 194.332 54.8624 193.66H56.7524ZM55.0094 190.972C54.9254 189.124 53.8334 187.948 52.2164 187.948C50.5994 187.948 49.5494 189.124 49.4024 190.972H55.0094Z" fill="white"/>
<path d="M58.2562 182.992H59.9572V191.119L64.2832 186.751H66.5722L62.6662 190.531L66.6562 196.999H64.5772L61.3642 191.791L59.9572 193.156V196.999H58.2562V182.992Z" fill="white"/>
<path d="M71.294 185.932C72.575 185.827 73.184 185.659 73.667 185.407C74.423 184.987 74.759 184.378 74.927 183.265H76.208V196.999H74.507V187.213H71.294V185.932Z" fill="white"/>
<path d="M112.037 182.992L114.83 194.563L117.749 182.992H119.933L123.041 194.563L125.729 182.992H127.619L123.965 196.999H121.928L118.82 185.26L115.838 196.999H113.759L110.063 182.992H112.037Z" fill="white"/>
<path d="M136.261 193.66C136.198 194.563 135.862 195.34 135.253 196.033C134.518 196.894 133.279 197.377 131.788 197.377C128.869 197.377 127.042 195.34 127.042 192.043C127.042 190.363 127.399 189.166 128.134 188.179C128.995 187.003 130.276 186.394 131.788 186.394C133.531 186.394 134.854 187.15 135.631 188.578C136.114 189.481 136.366 190.489 136.366 191.56V192.379H128.911C128.974 193.45 129.142 194.08 129.562 194.668C130.045 195.403 130.906 195.823 131.851 195.823C132.67 195.823 133.384 195.55 133.804 194.983C134.119 194.668 134.203 194.332 134.371 193.66H136.261ZM134.518 190.972C134.434 189.124 133.342 187.948 131.725 187.948C130.108 187.948 129.058 189.124 128.911 190.972H134.518Z" fill="white"/>
<path d="M146.752 193.66C146.689 194.563 146.353 195.34 145.744 196.033C145.009 196.894 143.77 197.377 142.279 197.377C139.36 197.377 137.533 195.34 137.533 192.043C137.533 190.363 137.89 189.166 138.625 188.179C139.486 187.003 140.767 186.394 142.279 186.394C144.022 186.394 145.345 187.15 146.122 188.578C146.605 189.481 146.857 190.489 146.857 191.56V192.379H139.402C139.465 193.45 139.633 194.08 140.053 194.668C140.536 195.403 141.397 195.823 142.342 195.823C143.161 195.823 143.875 195.55 144.295 194.983C144.61 194.668 144.694 194.332 144.862 193.66H146.752ZM145.009 190.972C144.925 189.124 143.833 187.948 142.216 187.948C140.599 187.948 139.549 189.124 139.402 190.972H145.009Z" fill="white"/>
<path d="M148.256 182.992H149.957V191.119L154.283 186.751H156.572L152.666 190.531L156.656 196.999H154.577L151.364 191.791L149.957 193.156V196.999H148.256V182.992Z" fill="white"/>
<path d="M161.252 196.894C161.252 194.962 161.882 193.534 163.247 192.358C163.751 191.938 164.36 191.476 164.843 191.224L165.326 190.951L165.788 190.699L166.25 190.426C167.867 189.565 168.749 188.431 168.749 187.255C168.749 186.583 168.434 185.806 167.993 185.386C167.552 184.966 166.88 184.714 166.061 184.714C165.221 184.714 164.444 185.071 163.961 185.68C163.562 186.184 163.373 186.856 163.289 188.095H161.525C161.609 186.331 161.882 185.449 162.533 184.672C163.373 183.685 164.675 183.097 166.187 183.097C168.812 183.097 170.618 184.777 170.618 187.213C170.618 188.536 170.135 189.628 169.169 190.447C168.77 190.804 168.203 191.182 167.72 191.455L167.174 191.749L166.649 192.043L166.103 192.337C164.087 193.408 163.52 194.101 163.289 195.34H170.576V196.999H161.252V196.894Z" fill="white"/>
<path d="M206.037 182.992L208.83 194.563L211.749 182.992H213.933L217.041 194.563L219.729 182.992H221.619L217.965 196.999H215.928L212.82 185.26L209.838 196.999H207.759L204.063 182.992H206.037Z" fill="white"/>
<path d="M230.261 193.66C230.198 194.563 229.862 195.34 229.253 196.033C228.518 196.894 227.279 197.377 225.788 197.377C222.869 197.377 221.042 195.34 221.042 192.043C221.042 190.363 221.399 189.166 222.134 188.179C222.995 187.003 224.276 186.394 225.788 186.394C227.531 186.394 228.854 187.15 229.631 188.578C230.114 189.481 230.366 190.489 230.366 191.56V192.379H222.911C222.974 193.45 223.142 194.08 223.562 194.668C224.045 195.403 224.906 195.823 225.851 195.823C226.67 195.823 227.384 195.55 227.804 194.983C228.119 194.668 228.203 194.332 228.371 193.66H230.261ZM228.518 190.972C228.434 189.124 227.342 187.948 225.725 187.948C224.108 187.948 223.058 189.124 222.911 190.972H228.518Z" fill="white"/>
<path d="M240.752 193.66C240.689 194.563 240.353 195.34 239.744 196.033C239.009 196.894 237.77 197.377 236.279 197.377C233.36 197.377 231.533 195.34 231.533 192.043C231.533 190.363 231.89 189.166 232.625 188.179C233.486 187.003 234.767 186.394 236.279 186.394C238.022 186.394 239.345 187.15 240.122 188.578C240.605 189.481 240.857 190.489 240.857 191.56V192.379H233.402C233.465 193.45 233.633 194.08 234.053 194.668C234.536 195.403 235.397 195.823 236.342 195.823C237.161 195.823 237.875 195.55 238.295 194.983C238.61 194.668 238.694 194.332 238.862 193.66H240.752ZM239.009 190.972C238.925 189.124 237.833 187.948 236.216 187.948C234.599 187.948 233.549 189.124 233.402 190.972H239.009Z" fill="white"/>
<path d="M242.256 182.992H243.957V191.119L248.283 186.751H250.572L246.666 190.531L250.656 196.999H248.577L245.364 191.791L243.957 193.156V196.999H242.256V182.992Z" fill="white"/>
<path d="M257.058 192.757C257.205 194.017 257.394 194.5 257.877 194.941C258.423 195.424 259.137 195.655 260.019 195.655C261.804 195.655 262.959 194.626 262.959 192.946C262.959 191.434 261.825 190.51 260.04 190.51C259.683 190.51 259.431 190.51 259.032 190.531V189.019C259.347 189.04 259.662 189.061 259.893 189.061C261.489 189.061 262.413 188.284 262.413 186.94C262.413 185.575 261.489 184.693 259.977 184.693C259.116 184.693 258.297 185.05 257.814 185.701C257.478 186.142 257.352 186.646 257.289 187.654H255.588V187.402C255.588 184.819 257.331 183.076 260.019 183.076C262.518 183.076 264.261 184.588 264.261 186.751C264.261 188.095 263.736 188.935 262.455 189.544C264.03 190.09 264.828 191.182 264.828 192.799C264.828 195.424 262.812 197.272 259.935 197.272C258.171 197.272 256.743 196.621 255.987 195.424C255.504 194.689 255.357 193.933 255.294 192.757H257.058Z" fill="white"/>
<path d="M300.037 182.992L302.83 194.563L305.749 182.992H307.933L311.041 194.563L313.729 182.992H315.619L311.965 196.999H309.928L306.82 185.26L303.838 196.999H301.759L298.063 182.992H300.037Z" fill="white"/>
<path d="M324.261 193.66C324.198 194.563 323.862 195.34 323.253 196.033C322.518 196.894 321.279 197.377 319.788 197.377C316.869 197.377 315.042 195.34 315.042 192.043C315.042 190.363 315.399 189.166 316.134 188.179C316.995 187.003 318.276 186.394 319.788 186.394C321.531 186.394 322.854 187.15 323.631 188.578C324.114 189.481 324.366 190.489 324.366 191.56V192.379H316.911C316.974 193.45 317.142 194.08 317.562 194.668C318.045 195.403 318.906 195.823 319.851 195.823C320.67 195.823 321.384 195.55 321.804 194.983C322.119 194.668 322.203 194.332 322.371 193.66H324.261ZM322.518 190.972C322.434 189.124 321.342 187.948 319.725 187.948C318.108 187.948 317.058 189.124 316.911 190.972H322.518Z" fill="white"/>
<path d="M334.752 193.66C334.689 194.563 334.353 195.34 333.744 196.033C333.009 196.894 331.77 197.377 330.279 197.377C327.36 197.377 325.533 195.34 325.533 192.043C325.533 190.363 325.89 189.166 326.625 188.179C327.486 187.003 328.767 186.394 330.279 186.394C332.022 186.394 333.345 187.15 334.122 188.578C334.605 189.481 334.857 190.489 334.857 191.56V192.379H327.402C327.465 193.45 327.633 194.08 328.053 194.668C328.536 195.403 329.397 195.823 330.342 195.823C331.161 195.823 331.875 195.55 332.295 194.983C332.61 194.668 332.694 194.332 332.862 193.66H334.752ZM333.009 190.972C332.925 189.124 331.833 187.948 330.216 187.948C328.599 187.948 327.549 189.124 327.402 190.972H333.009Z" fill="white"/>
<path d="M336.256 182.992H337.957V191.119L342.283 186.751H344.572L340.666 190.531L344.656 196.999H342.577L339.364 191.791L337.957 193.156V196.999H336.256V182.992Z" fill="white"/>
<path d="M349.294 192.022L355.531 183.286H357.001V192.169H359.017V193.681H357.001V196.999H355.279V193.681H349.294V192.022ZM355.237 192.169V185.911L350.848 192.169H355.237Z" fill="white"/>
<rect x="14" y="14" width="166.108" height="40.1369" rx="20.0684" fill="#FF72B7"/>
<path d="M160.619 39.4044H159.195V29.9644H155.595V28.7324H164.219V29.9644H160.619V39.4044Z" fill="#191919"/>
<path d="M146.298 28.7324H148.106L153.338 37.4684V28.7324H154.746V39.4044H152.938L147.706 30.6684V39.4044H146.298V28.7324Z" fill="#191919"/>
<path d="M143.759 28.7324H145.167V39.4044H143.759V28.7324Z" fill="#191919"/>
<path d="M134.095 28.7324H139.199C141.359 28.7324 142.607 29.8524 142.607 31.7884C142.607 33.0684 142.143 33.7724 140.991 34.2204C142.127 34.5084 142.351 35.0684 142.399 37.1484C142.399 38.4764 142.447 38.5244 142.959 39.2124V39.4044H141.199C141.055 38.8284 140.991 38.3324 140.991 37.5804C140.943 35.2284 140.607 34.8444 138.719 34.8444H135.503V39.4044H134.095V28.7324ZM138.895 33.6124C139.631 33.6124 140.159 33.4844 140.479 33.2444C140.911 32.9084 141.151 32.3804 141.151 31.7884C141.151 31.1004 140.815 30.5244 140.287 30.2204C139.919 30.0284 139.551 29.9644 138.895 29.9644H135.535V33.6124H138.895Z" fill="#191919"/>
<path d="M125.354 28.7324H129.77C131.93 28.7324 133.178 29.8524 133.178 31.7884C133.178 33.0044 132.666 33.9964 131.754 34.5084C131.258 34.7804 130.602 34.9244 129.786 34.9244H126.762V39.4044H125.354V28.7324ZM129.498 33.6924C130.218 33.6924 130.746 33.5644 131.082 33.2924C131.514 32.9244 131.754 32.3964 131.754 31.8044C131.754 31.1164 131.418 30.5244 130.89 30.2204C130.522 30.0284 130.138 29.9644 129.498 29.9644H126.794V33.6924H129.498Z" fill="#191919"/>
<path d="M122.81 31.9173C122.762 31.2933 122.602 30.7973 122.33 30.4453C121.946 29.9813 121.114 29.6773 120.218 29.6773C118.746 29.6773 117.818 30.3973 117.818 31.5333C117.818 32.6373 118.298 32.9893 120.65 33.5013C121.37 33.6773 121.914 33.7733 122.282 33.8853C123.738 34.2693 124.474 35.1013 124.474 36.3973C124.474 37.2453 124.09 38.1573 123.53 38.6693C122.778 39.3573 121.626 39.6933 120.074 39.6933C117.562 39.6933 116.058 38.2853 116.058 35.9653H117.402C117.514 36.9413 117.674 37.3893 118.106 37.7573C118.618 38.1893 119.466 38.4613 120.41 38.4613C121.994 38.4613 123.066 37.6933 123.066 36.5893C123.066 36.0133 122.874 35.5973 122.474 35.3413C122.106 35.0853 121.482 34.8933 120.218 34.6213C119.498 34.4613 118.954 34.3333 118.586 34.2373C117.738 33.9973 117.034 33.5973 116.714 33.0373C116.506 32.6533 116.41 32.2853 116.41 31.6613C116.41 30.8133 116.778 29.9493 117.354 29.3893C117.994 28.7653 119.018 28.4453 120.234 28.4453C122.01 28.4453 123.338 29.1653 123.898 30.3813C124.074 30.8133 124.17 31.2613 124.186 31.9173H122.81Z" fill="#191919"/>
<path d="M103.784 28.7324H108.888C111.048 28.7324 112.296 29.8524 112.296 31.7884C112.296 33.0684 111.832 33.7724 110.68 34.2204C111.816 34.5084 112.04 35.0684 112.088 37.1484C112.088 38.4764 112.136 38.5244 112.648 39.2124V39.4044H110.888C110.744 38.8284 110.68 38.3324 110.68 37.5804C110.632 35.2284 110.296 34.8444 108.408 34.8444H105.192V39.4044H103.784V28.7324ZM108.584 33.6124C109.32 33.6124 109.848 33.4844 110.168 33.2444C110.6 32.9084 110.84 32.3804 110.84 31.7884C110.84 31.1004 110.504 30.5244 109.976 30.2204C109.608 30.0284 109.24 29.9644 108.584 29.9644H105.224V33.6124H108.584Z" fill="#191919"/>
<path d="M95.0107 28.7324H102.771V29.9644H96.4347V33.2444H102.291V34.4764H96.4347V38.1084H102.867V39.4044H95.0107V28.7324Z" fill="#191919"/>
<path d="M85.9404 28.7324H90.4044C92.5324 28.7324 93.5884 29.6284 93.5884 31.4044C93.5884 32.6364 93.0444 33.4044 91.9404 33.7084C93.3644 34.0284 94.0844 34.8764 94.0844 36.2684C94.0844 37.4204 93.5084 38.3964 92.5324 38.9724C92.0044 39.2604 91.3004 39.4044 90.4524 39.4044H85.9404V28.7324ZM90.3404 38.1724C91.0764 38.1724 91.6204 38.0444 91.9564 37.7884C92.3884 37.4524 92.6284 36.9244 92.6284 36.3004C92.6284 35.0364 91.8604 34.3964 90.3404 34.3964H87.3644V38.1724H90.3404ZM90.3404 33.2444C90.9324 33.2444 91.2844 33.1644 91.5884 32.9244C91.9564 32.6524 92.1644 32.1884 92.1644 31.6284C92.1644 31.1164 91.9724 30.5724 91.6684 30.3164C91.3644 30.0604 90.9804 29.9644 90.3404 29.9644H87.3644V33.2444H90.3404Z" fill="#191919"/>
<path d="M74.6055 28.7324H76.8135L79.7415 37.3564L82.6055 28.7324H84.7815V39.4044H83.3735V30.6204L80.3655 39.4044H79.0215L76.0135 30.6204V39.4044H74.6055V28.7324Z" fill="#191919"/>
<path d="M65.832 28.7324H73.592V29.9644H67.256V33.2444H73.112V34.4764H67.256V38.1084H73.688V39.4044H65.832V28.7324Z" fill="#191919"/>
<path d="M61.4195 39.4044H59.9955V29.9644H56.3955V28.7324H65.0195V29.9644H61.4195V39.4044Z" fill="#191919"/>
<path d="M47.958 28.7324H52.374C54.534 28.7324 55.782 29.8524 55.782 31.7884C55.782 33.0044 55.27 33.9964 54.358 34.5084C53.862 34.7804 53.206 34.9244 52.39 34.9244H49.366V39.4044H47.958V28.7324ZM52.102 33.6924C52.822 33.6924 53.35 33.5644 53.686 33.2924C54.118 32.9244 54.358 32.3964 54.358 31.8044C54.358 31.1164 54.022 30.5244 53.494 30.2204C53.126 30.0284 52.742 29.9644 52.102 29.9644H49.398V33.6924H52.102Z" fill="#191919"/>
<path d="M39.1846 28.7324H46.9446V29.9644H40.6086V33.2444H46.4646V34.4764H40.6086V38.1084H47.0406V39.4044H39.1846V28.7324Z" fill="#191919"/>
<path d="M36.6407 31.9173C36.5927 31.2933 36.4327 30.7973 36.1607 30.4453C35.7767 29.9813 34.9447 29.6773 34.0487 29.6773C32.5767 29.6773 31.6487 30.3973 31.6487 31.5333C31.6487 32.6373 32.1287 32.9893 34.4807 33.5013C35.2007 33.6773 35.7447 33.7733 36.1127 33.8853C37.5687 34.2693 38.3047 35.1013 38.3047 36.3973C38.3047 37.2453 37.9207 38.1573 37.3607 38.6693C36.6087 39.3573 35.4567 39.6933 33.9047 39.6933C31.3927 39.6933 29.8887 38.2853 29.8887 35.9653H31.2327C31.3447 36.9413 31.5047 37.3893 31.9367 37.7573C32.4487 38.1893 33.2967 38.4613 34.2407 38.4613C35.8247 38.4613 36.8967 37.6933 36.8967 36.5893C36.8967 36.0133 36.7047 35.5973 36.3047 35.3413C35.9367 35.0853 35.3127 34.8933 34.0487 34.6213C33.3287 34.4613 32.7847 34.3333 32.4167 34.2373C31.5687 33.9973 30.8647 33.5973 30.5447 33.0373C30.3367 32.6533 30.2407 32.2853 30.2407 31.6613C30.2407 30.8133 30.6087 29.9493 31.1847 29.3893C31.8247 28.7653 32.8487 28.4453 34.0647 28.4453C35.8407 28.4453 37.1687 29.1653 37.7287 30.3813C37.9047 30.8133 38.0007 31.2613 38.0167 31.9173H36.6407Z" fill="#191919"/>
<rect x="456" y="14" width="76.852" height="39.813" rx="19.9065" fill="#191919"/>
<path d="M480.802 28.6036V30.1393H477.192V39.2111H475.498V30.1393H471.889V28.6036H480.802Z" fill="#F5F2EE"/>
<path d="M485.792 39.3694C482.768 39.3694 480.836 37.2163 480.836 33.9074C480.836 30.5985 482.768 28.4453 485.792 28.4453C488.8 28.4453 490.731 30.5985 490.731 33.9074C490.731 37.2163 488.8 39.3694 485.792 39.3694ZM485.792 37.7229C487.992 37.7229 488.911 36.6621 488.911 33.9074C488.911 31.1526 487.992 30.0918 485.792 30.0918C483.591 30.0918 482.657 31.1526 482.657 33.9074C482.657 36.6621 483.591 37.7229 485.792 37.7229Z" fill="#F5F2EE"/>
<path d="M499.68 28.6036V30.1393H496.07V39.2111H494.376V30.1393H490.767V28.6036H499.68Z" fill="#F5F2EE"/>
<path d="M507.039 39.2111L505.963 36.4563H501.039L499.962 39.2111H498.173L502.306 28.6036H504.76L508.892 39.2111H507.039ZM501.641 34.9206H505.361L504.253 32.1183L503.572 30.1552H503.445L502.749 32.1183L501.641 34.9206Z" fill="#F5F2EE"/>
<path d="M511.311 37.6754H516.963V39.2111H509.601V28.6036H511.311V37.6754Z" fill="#F5F2EE"/>
<g opacity="0.23">
<path d="M95 183H96V253H95V183Z" fill="#CEC9C2"/>
<path d="M189 183H190V253H189V183Z" fill="#CEC9C2"/>
<path d="M283 183H284V253H283V183Z" fill="#CEC9C2"/>
</g>
</g>
<defs>
<clipPath id="clip0_2750_2168">
<rect width="651" height="277" fill="white"/>
</clipPath>
</defs>
</svg>
